<svg xmlns="http://www.w3.org/2000/svg" xmlns:xlink="http://www.w3.org/1999/xlink" id="body_1" preserveAspectRatio="xMinYMin meet" viewBox="0 0 793 1123"><defs><clipPath id="1"><path id="" clip-rule="evenodd" transform="matrix(1 0 0 1 0 0)" d="M0 842L0 0L0 0L595 0L595 0L595 842L595 842L0 842z" /></clipPath><clipPath id="2"><path id="" clip-rule="evenodd" transform="matrix(1 0 0 1 0 0)" d="M0 0L594.75 0L594.75 0L594.75 841.9774L594.75 841.9774L0 841.9774L0 841.9774L0 0z" /></clipPath><clipPath id="3"><path id="" clip-rule="evenodd" transform="matrix(1 0 0 1 0 0)" d="M0 0L594.75 0L594.75 0L594.75 841.9774L594.75 841.9774L0 841.9774L0 841.9774L0 0z" /></clipPath><clipPath id="4"><path id="" clip-rule="evenodd" transform="matrix(1 0 0 1 0 0)" d="M38.11214 523.5405L110.3246 523.5405L110.3246 523.5405L110.3246 554.1305L110.3246 554.1305L44.63132 554.1305C 41.03273 554.1305 38.11214 551.2099 38.11214 547.6113L38.11214 547.6113L38.11214 523.5405z" /></clipPath><clipPath id="5"><path id="" clip-rule="evenodd" transform="matrix(1 0 0 1 0 0)" d="M0 0L594.75 0L594.75 0L594.75 841.9774L594.75 841.9774L0 841.9774L0 841.9774L0 0z" /></clipPath><clipPath id="6"><path id="" clip-rule="evenodd" transform="matrix(1 0 0 1 0 0)" d="M0 0L594.75 0L594.75 0L594.75 841.9774L594.75 841.9774L0 841.9774L0 841.9774L0 0z" /></clipPath><clipPath id="7"><path id="" clip-rule="evenodd" transform="matrix(1 0 0 1 0 0)" d="M479.4106 523.5405L552.1246 523.5405L552.1246 523.5405L552.1246 547.6113C 552.1246 551.2099 549.204 554.1305 545.6054 554.1305L545.6054 554.1305L479.4106 554.1305L479.4106 554.1305L479.4106 523.5405z" /></clipPath><clipPath id="8"><path id="" clip-rule="evenodd" transform="matrix(1 0 0 1 0 0)" d="M0 0L594.75 0L594.75 0L594.75 841.9774L594.75 841.9774L0 841.9774L0 841.9774L0 0z" /></clipPath></defs><g transform="matrix(1.333333 0 0 1.333333 0 0)"><g clip-path="url(#1)"><g clip-path="url(#2)"><g transform="matrix(0.1200004 0 0 0.1202962 27.58115 25.57526)"><g transform="matrix(1 0 0 1 0 0)"><image x="0" y="0" xlink:href="img_01.png" width="794" height="346" /></g></g><path id="60" transform="matrix(1 0 0 -1 0 842)" d="M44.12985 650.9378L109.8232 650.9378L109.8232 650.9378L109.8232 621.3508L109.8232 621.3508L38.11214 621.3508L38.11214 621.3508L38.11214 644.9201C 38.11214 648.2419 40.80807 650.9378 44.12985 650.9378zM44.12985 651.4393L110.3246 651.4393L110.3246 651.4393L110.3246 620.8493L110.3246 620.8493L37.61066 620.8493L37.61066 620.8493L37.61066 644.9201C 37.61066 648.5187 40.53126 651.4393 44.12985 651.4393z" stroke="none" fill="#DDDDDD" fill-rule="evenodd" /><path id="69" transform="matrix(1 0 0 -1 0 842)" d="M109.8231 651.4393L479.9121 651.4393L479.9121 650.9378L109.8231 650.9378z" stroke="none" fill="#DDDDDD" fill-rule="nonzero" /><path id="70" transform="matrix(1 0 0 -1 0 842)" d="M109.8231 621.3508L479.9121 621.3508L479.9121 620.8492L109.8231 620.8492z" stroke="none" fill="#DDDDDD" fill-rule="nonzero" /><path id="71" transform="matrix(1 0 0 -1 0 842)" d="M109.8231 651.4393L110.3246 651.4393L110.3246 620.8492L109.8231 620.8492z" stroke="none" fill="#DDDDDD" fill-rule="nonzero" /><path id="72" transform="matrix(1 0 0 -1 0 842)" d="M479.4106 651.4393L479.9121 651.4393L479.9121 620.8492L479.4106 620.8492z" stroke="none" fill="#DDDDDD" fill-rule="nonzero" /><path id="88" transform="matrix(1 0 0 -1 0 842)" d="M479.9121 650.9378L545.6054 650.9378C 548.9272 650.9378 551.623 648.2419 551.623 644.9201L551.623 644.9201L551.623 621.3508L551.623 621.3508L479.9121 621.3508L479.9121 621.3508L479.9121 650.9378zM479.4106 651.4393L545.6054 651.4393C 549.204 651.4393 552.1246 648.5187 552.1246 644.9201L552.1246 644.9201L552.1246 620.8493L552.1246 620.8493L479.4106 620.8493L479.4106 620.8493L479.4106 651.4393z" stroke="none" fill="#DDDDDD" fill-rule="evenodd" /><path id="98" transform="matrix(1 0 0 -1 0 842)" d="M37.61066 620.8492L110.3246 620.8492L110.3246 590.2593L37.61066 590.2593z" stroke="none" fill="#2C3E77" fill-rule="nonzero" /><path id="99" transform="matrix(1 0 0 -1 0 842)" d="M37.61066 620.8492L110.3246 620.8492L110.3246 620.3478L37.61066 620.3478z" stroke="none" fill="#DDDDDD" fill-rule="nonzero" /><path id="100" transform="matrix(1 0 0 -1 0 842)" d="M37.61066 590.7607L110.3246 590.7607L110.3246 590.2593L37.61066 590.2593z" stroke="none" fill="#DDDDDD" fill-rule="nonzero" /><path id="101" transform="matrix(1 0 0 -1 0 842)" d="M37.61066 620.8492L38.11214 620.8492L38.11214 590.2593L37.61066 590.2593z" stroke="none" fill="#DDDDDD" fill-rule="nonzero" /><path id="102" transform="matrix(1 0 0 -1 0 842)" d="M109.8231 620.8492L110.3246 620.8492L110.3246 590.2593L109.8231 590.2593z" stroke="none" fill="#DDDDDD" fill-rule="nonzero" /><path id="122" transform="matrix(1 0 0 -1 0 842)" d="M109.8231 621.3508L296.8735 621.3508L296.8735 590.7607L109.8231 590.7607z" stroke="none" fill="#2C3E77" fill-rule="nonzero" /><path id="123" transform="matrix(1 0 0 -1 0 842)" d="M109.8231 621.3508L296.8735 621.3508L296.8735 620.8492L109.8231 620.8492z" stroke="none" fill="#DDDDDD" fill-rule="nonzero" /><path id="124" transform="matrix(1 0 0 -1 0 842)" d="M109.8231 591.2622L296.8735 591.2622L296.8735 590.7607L109.8231 590.7607z" stroke="none" fill="#DDDDDD" fill-rule="nonzero" /><path id="125" transform="matrix(1 0 0 -1 0 842)" d="M109.8231 621.3508L110.3246 621.3508L110.3246 590.7607L109.8231 590.7607z" stroke="none" fill="#DDDDDD" fill-rule="nonzero" /><path id="126" transform="matrix(1 0 0 -1 0 842)" d="M296.372 621.3508L296.8735 621.3508L296.8735 590.7607L296.372 590.7607z" stroke="none" fill="#DDDDDD" fill-rule="nonzero" /><path id="144" transform="matrix(1 0 0 -1 0 842)" d="M296.372 621.3508L480.4135 621.3508L480.4135 590.7607L296.372 590.7607z" stroke="none" fill="#2C3E77" fill-rule="nonzero" /><path id="145" transform="matrix(1 0 0 -1 0 842)" d="M296.372 621.3508L480.4135 621.3508L480.4135 620.8492L296.372 620.8492z" stroke="none" fill="#DDDDDD" fill-rule="nonzero" /><path id="146" transform="matrix(1 0 0 -1 0 842)" d="M296.372 591.2622L480.4135 591.2622L480.4135 590.7607L296.372 590.7607z" stroke="none" fill="#DDDDDD" fill-rule="nonzero" /><path id="147" transform="matrix(1 0 0 -1 0 842)" d="M296.372 621.3508L296.8735 621.3508L296.8735 590.7607L296.372 590.7607z" stroke="none" fill="#DDDDDD" fill-rule="nonzero" /><path id="148" transform="matrix(1 0 0 -1 0 842)" d="M479.9121 621.3508L480.4135 621.3508L480.4135 590.7607L479.9121 590.7607z" stroke="none" fill="#DDDDDD" fill-rule="nonzero" /><path id="168" transform="matrix(1 0 0 -1 0 842)" d="M479.9121 621.3508L552.626 621.3508L552.626 590.7607L479.9121 590.7607z" stroke="none" fill="#2C3E77" fill-rule="nonzero" /><path id="169" transform="matrix(1 0 0 -1 0 842)" d="M479.9121 621.3508L552.626 621.3508L552.626 620.8492L479.9121 620.8492z" stroke="none" fill="#DDDDDD" fill-rule="nonzero" /><path id="170" transform="matrix(1 0 0 -1 0 842)" d="M479.9121 591.2622L552.626 591.2622L552.626 590.7607L479.9121 590.7607z" stroke="none" fill="#DDDDDD" fill-rule="nonzero" /><path id="171" transform="matrix(1 0 0 -1 0 842)" d="M479.9121 621.3508L480.4135 621.3508L480.4135 590.7607L479.9121 590.7607z" stroke="none" fill="#DDDDDD" fill-rule="nonzero" /><path id="172" transform="matrix(1 0 0 -1 0 842)" d="M552.1245 621.3508L552.626 621.3508L552.626 590.7607L552.1245 590.7607z" stroke="none" fill="#DDDDDD" fill-rule="nonzero" /><path id="188" transform="matrix(1 0 0 -1 0 842)" d="M37.61066 590.2593L110.3246 590.2593L110.3246 559.6693L37.61066 559.6693z" stroke="none" fill="#2C3E77" fill-rule="nonzero" /><path id="189" transform="matrix(1 0 0 -1 0 842)" d="M37.61066 590.2593L110.3246 590.2593L110.3246 589.7578L37.61066 589.7578z" stroke="none" fill="#DDDDDD" fill-rule="nonzero" /><path id="190" transform="matrix(1 0 0 -1 0 842)" d="M37.61066 560.1707L110.3246 560.1707L110.3246 559.6693L37.61066 559.6693z" stroke="none" fill="#DDDDDD" fill-rule="nonzero" /><path id="191" transform="matrix(1 0 0 -1 0 842)" d="M37.61066 590.2593L38.11214 590.2593L38.11214 559.6693L37.61066 559.6693z" stroke="none" fill="#DDDDDD" fill-rule="nonzero" /><path id="192" transform="matrix(1 0 0 -1 0 842)" d="M109.8231 590.2593L110.3246 590.2593L110.3246 559.6693L109.8231 559.6693z" stroke="none" fill="#DDDDDD" fill-rule="nonzero" /><path id="212" transform="matrix(1 0 0 -1 0 842)" d="M109.8231 590.7607L296.8735 590.7607L296.8735 560.1707L109.8231 560.1707z" stroke="none" fill="#2C3E77" fill-rule="nonzero" /><path id="213" transform="matrix(1 0 0 -1 0 842)" d="M109.8231 590.7607L296.8735 590.7607L296.8735 590.2593L109.8231 590.2593z" stroke="none" fill="#DDDDDD" fill-rule="nonzero" /><path id="214" transform="matrix(1 0 0 -1 0 842)" d="M109.8231 560.6722L296.8735 560.6722L296.8735 560.1707L109.8231 560.1707z" stroke="none" fill="#DDDDDD" fill-rule="nonzero" /><path id="215" transform="matrix(1 0 0 -1 0 842)" d="M109.8231 590.7607L110.3246 590.7607L110.3246 560.1707L109.8231 560.1707z" stroke="none" fill="#DDDDDD" fill-rule="nonzero" /><path id="216" transform="matrix(1 0 0 -1 0 842)" d="M296.372 590.7607L296.8735 590.7607L296.8735 560.1707L296.372 560.1707z" stroke="none" fill="#DDDDDD" fill-rule="nonzero" /><path id="234" transform="matrix(1 0 0 -1 0 842)" d="M296.372 590.7607L480.4135 590.7607L480.4135 560.1707L296.372 560.1707z" stroke="none" fill="#2C3E77" fill-rule="nonzero" /><path id="235" transform="matrix(1 0 0 -1 0 842)" d="M296.372 590.7607L480.4135 590.7607L480.4135 590.2593L296.372 590.2593z" stroke="none" fill="#DDDDDD" fill-rule="nonzero" /><path id="236" transform="matrix(1 0 0 -1 0 842)" d="M296.372 560.6722L480.4135 560.6722L480.4135 560.1707L296.372 560.1707z" stroke="none" fill="#DDDDDD" fill-rule="nonzero" /><path id="237" transform="matrix(1 0 0 -1 0 842)" d="M296.372 590.7607L296.8735 590.7607L296.8735 560.1707L296.372 560.1707z" stroke="none" fill="#DDDDDD" fill-rule="nonzero" /><path id="238" transform="matrix(1 0 0 -1 0 842)" d="M479.9121 590.7607L480.4135 590.7607L480.4135 560.1707L479.9121 560.1707z" stroke="none" fill="#DDDDDD" fill-rule="nonzero" /><path id="258" transform="matrix(1 0 0 -1 0 842)" d="M479.9121 590.7607L552.626 590.7607L552.626 560.1707L479.9121 560.1707z" stroke="none" fill="#2C3E77" fill-rule="nonzero" /><path id="259" transform="matrix(1 0 0 -1 0 842)" d="M479.9121 590.7607L552.626 590.7607L552.626 590.2593L479.9121 590.2593z" stroke="none" fill="#DDDDDD" fill-rule="nonzero" /><path id="260" transform="matrix(1 0 0 -1 0 842)" d="M479.9121 560.6722L552.626 560.6722L552.626 560.1707L479.9121 560.1707z" stroke="none" fill="#DDDDDD" fill-rule="nonzero" /><path id="261" transform="matrix(1 0 0 -1 0 842)" d="M479.9121 590.7607L480.4135 590.7607L480.4135 560.1707L479.9121 560.1707z" stroke="none" fill="#DDDDDD" fill-rule="nonzero" /><path id="262" transform="matrix(1 0 0 -1 0 842)" d="M552.1245 590.7607L552.626 590.7607L552.626 560.1707L552.1245 560.1707z" stroke="none" fill="#DDDDDD" fill-rule="nonzero" /><path id="278" transform="matrix(1 0 0 -1 0 842)" d="M37.61066 560.1707L110.3246 560.1707L110.3246 529.5807L37.61066 529.5807z" stroke="none" fill="#2C3E77" fill-rule="nonzero" /><path id="279" transform="matrix(1 0 0 -1 0 842)" d="M37.61066 560.1707L110.3246 560.1707L110.3246 559.6693L37.61066 559.6693z" stroke="none" fill="#DDDDDD" fill-rule="nonzero" /><path id="280" transform="matrix(1 0 0 -1 0 842)" d="M37.61066 530.0822L110.3246 530.0822L110.3246 529.5807L37.61066 529.5807z" stroke="none" fill="#DDDDDD" fill-rule="nonzero" /><path id="281" transform="matrix(1 0 0 -1 0 842)" d="M37.61066 560.1707L38.11214 560.1707L38.11214 529.5807L37.61066 529.5807z" stroke="none" fill="#DDDDDD" fill-rule="nonzero" /><path id="282" transform="matrix(1 0 0 -1 0 842)" d="M109.8231 560.1707L110.3246 560.1707L110.3246 529.5807L109.8231 529.5807z" stroke="none" fill="#DDDDDD" fill-rule="nonzero" /><path id="297" transform="matrix(1 0 0 -1 0 842)" d="M109.8231 560.1707L296.8735 560.1707L296.8735 529.5807L109.8231 529.5807z" stroke="none" fill="#2C3E77" fill-rule="nonzero" /><path id="298" transform="matrix(1 0 0 -1 0 842)" d="M109.8231 560.1707L296.8735 560.1707L296.8735 559.6693L109.8231 559.6693z" stroke="none" fill="#DDDDDD" fill-rule="nonzero" /><path id="299" transform="matrix(1 0 0 -1 0 842)" d="M109.8231 530.0822L296.8735 530.0822L296.8735 529.5807L109.8231 529.5807z" stroke="none" fill="#DDDDDD" fill-rule="nonzero" /><path id="300" transform="matrix(1 0 0 -1 0 842)" d="M109.8231 560.1707L110.3246 560.1707L110.3246 529.5807L109.8231 529.5807z" stroke="none" fill="#DDDDDD" fill-rule="nonzero" /><path id="301" transform="matrix(1 0 0 -1 0 842)" d="M296.372 560.1707L296.8735 560.1707L296.8735 529.5807L296.372 529.5807z" stroke="none" fill="#DDDDDD" fill-rule="nonzero" /><path id="318" transform="matrix(1 0 0 -1 0 842)" d="M296.372 560.1707L480.4135 560.1707L480.4135 529.5807L296.372 529.5807z" stroke="none" fill="#2C3E77" fill-rule="nonzero" /><path id="319" transform="matrix(1 0 0 -1 0 842)" d="M296.372 560.1707L480.4135 560.1707L480.4135 559.6693L296.372 559.6693z" stroke="none" fill="#DDDDDD" fill-rule="nonzero" /><path id="320" transform="matrix(1 0 0 -1 0 842)" d="M296.372 530.0822L480.4135 530.0822L480.4135 529.5807L296.372 529.5807z" stroke="none" fill="#DDDDDD" fill-rule="nonzero" /><path id="321" transform="matrix(1 0 0 -1 0 842)" d="M296.372 560.1707L296.8735 560.1707L296.8735 529.5807L296.372 529.5807z" stroke="none" fill="#DDDDDD" fill-rule="nonzero" /><path id="322" transform="matrix(1 0 0 -1 0 842)" d="M479.9121 560.1707L480.4135 560.1707L480.4135 529.5807L479.9121 529.5807z" stroke="none" fill="#DDDDDD" fill-rule="nonzero" /><path id="337" transform="matrix(1 0 0 -1 0 842)" d="M479.9121 560.1707L552.626 560.1707L552.626 529.5807L479.9121 529.5807z" stroke="none" fill="#2C3E77" fill-rule="nonzero" /><path id="338" transform="matrix(1 0 0 -1 0 842)" d="M479.9121 560.1707L552.626 560.1707L552.626 559.6693L479.9121 559.6693z" stroke="none" fill="#DDDDDD" fill-rule="nonzero" /><path id="339" transform="matrix(1 0 0 -1 0 842)" d="M479.9121 530.0822L552.626 530.0822L552.626 529.5807L479.9121 529.5807z" stroke="none" fill="#DDDDDD" fill-rule="nonzero" /><path id="340" transform="matrix(1 0 0 -1 0 842)" d="M479.9121 560.1707L480.4135 560.1707L480.4135 529.5807L479.9121 529.5807z" stroke="none" fill="#DDDDDD" fill-rule="nonzero" /><path id="341" transform="matrix(1 0 0 -1 0 842)" d="M552.1245 560.1707L552.626 560.1707L552.626 529.5807L552.1245 529.5807z" stroke="none" fill="#DDDDDD" fill-rule="nonzero" /><path id="352" transform="matrix(1 0 0 -1 0 842)" d="M37.61066 530.0822L110.3246 530.0822L110.3246 529.5807L37.61066 529.5807z" stroke="none" fill="#DDDDDD" fill-rule="nonzero" /><path id="353" transform="matrix(1 0 0 -1 0 842)" d="M37.61066 499.9937L110.3246 499.9937L110.3246 499.4922L37.61066 499.4922z" stroke="none" fill="#DDDDDD" fill-rule="nonzero" /><path id="354" transform="matrix(1 0 0 -1 0 842)" d="M37.61066 530.0822L38.11214 530.0822L38.11214 499.4922L37.61066 499.4922z" stroke="none" fill="#DDDDDD" fill-rule="nonzero" /><path id="355" transform="matrix(1 0 0 -1 0 842)" d="M109.8231 530.0822L110.3246 530.0822L110.3246 499.4922L109.8231 499.4922z" stroke="none" fill="#DDDDDD" fill-rule="nonzero" /><path id="366" transform="matrix(1 0 0 -1 0 842)" d="M109.8231 530.0822L479.9121 530.0822L479.9121 529.5807L109.8231 529.5807z" stroke="none" fill="#DDDDDD" fill-rule="nonzero" /><path id="367" transform="matrix(1 0 0 -1 0 842)" d="M109.8231 499.9937L479.9121 499.9937L479.9121 499.4922L109.8231 499.4922z" stroke="none" fill="#DDDDDD" fill-rule="nonzero" /><path id="368" transform="matrix(1 0 0 -1 0 842)" d="M109.8231 530.0822L110.3246 530.0822L110.3246 499.4922L109.8231 499.4922z" stroke="none" fill="#DDDDDD" fill-rule="nonzero" /><path id="369" transform="matrix(1 0 0 -1 0 842)" d="M479.4106 530.0822L479.9121 530.0822L479.9121 499.4922L479.4106 499.4922z" stroke="none" fill="#DDDDDD" fill-rule="nonzero" /><path id="381" transform="matrix(1 0 0 -1 0 842)" d="M479.4106 530.0822L552.1245 530.0822L552.1245 529.5807L479.4106 529.5807z" stroke="none" fill="#DDDDDD" fill-rule="nonzero" /><path id="382" transform="matrix(1 0 0 -1 0 842)" d="M479.4106 499.9937L552.1245 499.9937L552.1245 499.4922L479.4106 499.4922z" stroke="none" fill="#DDDDDD" fill-rule="nonzero" /><path id="383" transform="matrix(1 0 0 -1 0 842)" d="M479.4106 530.0822L479.9121 530.0822L479.9121 499.4922L479.4106 499.4922z" stroke="none" fill="#DDDDDD" fill-rule="nonzero" /><path id="384" transform="matrix(1 0 0 -1 0 842)" d="M551.623 530.0822L552.1245 530.0822L552.1245 499.4922L551.623 499.4922z" stroke="none" fill="#DDDDDD" fill-rule="nonzero" /><path id="402" transform="matrix(1 0 0 -1 0 842)" d="M37.10919 499.9937L110.3246 499.9937L110.3246 469.4037L37.10919 469.4037z" stroke="none" fill="#F8F8F9" fill-rule="nonzero" /><path id="403" transform="matrix(1 0 0 -1 0 842)" d="M37.10919 499.9937L110.3246 499.9937L110.3246 499.4922L37.10919 499.4922z" stroke="none" fill="#DDDDDD" fill-rule="nonzero" /><path id="404" transform="matrix(1 0 0 -1 0 842)" d="M37.10919 469.9051L110.3246 469.9051L110.3246 469.4037L37.10919 469.4037z" stroke="none" fill="#DDDDDD" fill-rule="nonzero" /><path id="405" transform="matrix(1 0 0 -1 0 842)" d="M37.10919 499.9937L37.61066 499.9937L37.61066 469.4037L37.10919 469.4037z" stroke="none" fill="#DDDDDD" fill-rule="nonzero" /><path id="406" transform="matrix(1 0 0 -1 0 842)" d="M109.8231 499.9937L110.3246 499.9937L110.3246 469.4037L109.8231 469.4037z" stroke="none" fill="#DDDDDD" fill-rule="nonzero" /><path id="412" transform="matrix(1 0 0 -1 0 842)" d="M109.8231 499.9937L296.8735 499.9937L296.8735 469.4037L109.8231 469.4037z" stroke="none" fill="#F8F8F9" fill-rule="nonzero" /><path id="413" transform="matrix(1 0 0 -1 0 842)" d="M109.8231 499.9937L296.8735 499.9937L296.8735 499.4922L109.8231 499.4922z" stroke="none" fill="#DDDDDD" fill-rule="nonzero" /><path id="414" transform="matrix(1 0 0 -1 0 842)" d="M109.8231 469.9051L296.8735 469.9051L296.8735 469.4037L109.8231 469.4037z" stroke="none" fill="#DDDDDD" fill-rule="nonzero" /><path id="415" transform="matrix(1 0 0 -1 0 842)" d="M109.8231 499.9937L110.3246 499.9937L110.3246 469.4037L109.8231 469.4037z" stroke="none" fill="#DDDDDD" fill-rule="nonzero" /><path id="416" transform="matrix(1 0 0 -1 0 842)" d="M296.372 499.9937L296.8735 499.9937L296.8735 469.4037L296.372 469.4037z" stroke="none" fill="#DDDDDD" fill-rule="nonzero" /><path id="449" transform="matrix(1 0 0 -1 0 842)" d="M296.372 499.4922L480.4135 499.4922L480.4135 468.9022L296.372 468.9022z" stroke="none" fill="#F8F8F9" fill-rule="nonzero" /><path id="450" transform="matrix(1 0 0 -1 0 842)" d="M296.372 499.4922L480.4135 499.4922L480.4135 498.9907L296.372 498.9907z" stroke="none" fill="#DDDDDD" fill-rule="nonzero" /><path id="451" transform="matrix(1 0 0 -1 0 842)" d="M296.372 469.4037L480.4135 469.4037L480.4135 468.9022L296.372 468.9022z" stroke="none" fill="#DDDDDD" fill-rule="nonzero" /><path id="452" transform="matrix(1 0 0 -1 0 842)" d="M296.372 499.4922L296.8735 499.4922L296.8735 468.9022L296.372 468.9022z" stroke="none" fill="#DDDDDD" fill-rule="nonzero" /><path id="453" transform="matrix(1 0 0 -1 0 842)" d="M479.9121 499.4922L480.4135 499.4922L480.4135 468.9022L479.9121 468.9022z" stroke="none" fill="#DDDDDD" fill-rule="nonzero" /><path id="477" transform="matrix(1 0 0 -1 0 842)" d="M479.9121 499.9937L552.626 499.9937L552.626 469.4037L479.9121 469.4037z" stroke="none" fill="#F8F8F9" fill-rule="nonzero" /><path id="478" transform="matrix(1 0 0 -1 0 842)" d="M479.9121 499.9937L552.626 499.9937L552.626 499.4922L479.9121 499.4922z" stroke="none" fill="#DDDDDD" fill-rule="nonzero" /><path id="479" transform="matrix(1 0 0 -1 0 842)" d="M479.9121 469.9051L552.626 469.9051L552.626 469.4037L479.9121 469.4037z" stroke="none" fill="#DDDDDD" fill-rule="nonzero" /><path id="480" transform="matrix(1 0 0 -1 0 842)" d="M479.9121 499.9937L480.4135 499.9937L480.4135 469.4037L479.9121 469.4037z" stroke="none" fill="#DDDDDD" fill-rule="nonzero" /><path id="481" transform="matrix(1 0 0 -1 0 842)" d="M552.1245 499.9937L552.626 499.9937L552.626 469.4037L552.1245 469.4037z" stroke="none" fill="#DDDDDD" fill-rule="nonzero" /><path id="486" transform="matrix(1 0 0 -1 0 842)" d="M37.61066 469.4037L110.3246 469.4037L110.3246 468.9022L37.61066 468.9022z" stroke="none" fill="#DDDDDD" fill-rule="nonzero" /><path id="487" transform="matrix(1 0 0 -1 0 842)" d="M37.61066 439.3151L110.3246 439.3151L110.3246 438.8136L37.61066 438.8136z" stroke="none" fill="#DDDDDD" fill-rule="nonzero" /><path id="488" transform="matrix(1 0 0 -1 0 842)" d="M37.61066 469.4037L38.11214 469.4037L38.11214 438.8136L37.61066 438.8136z" stroke="none" fill="#DDDDDD" fill-rule="nonzero" /><path id="489" transform="matrix(1 0 0 -1 0 842)" d="M109.8231 469.4037L110.3246 469.4037L110.3246 438.8136L109.8231 438.8136z" stroke="none" fill="#DDDDDD" fill-rule="nonzero" /><path id="507" transform="matrix(1 0 0 -1 0 842)" d="M109.8231 469.4037L479.9121 469.4037L479.9121 468.9022L109.8231 468.9022z" stroke="none" fill="#DDDDDD" fill-rule="nonzero" /><path id="508" transform="matrix(1 0 0 -1 0 842)" d="M109.8231 439.3151L479.9121 439.3151L479.9121 438.8136L109.8231 438.8136z" stroke="none" fill="#DDDDDD" fill-rule="nonzero" /><path id="509" transform="matrix(1 0 0 -1 0 842)" d="M109.8231 469.4037L110.3246 469.4037L110.3246 438.8136L109.8231 438.8136z" stroke="none" fill="#DDDDDD" fill-rule="nonzero" /><path id="510" transform="matrix(1 0 0 -1 0 842)" d="M479.4106 469.4037L479.9121 469.4037L479.9121 438.8136L479.4106 438.8136z" stroke="none" fill="#DDDDDD" fill-rule="nonzero" /><path id="522" transform="matrix(1 0 0 -1 0 842)" d="M479.4106 469.4037L552.1245 469.4037L552.1245 468.9022L479.4106 468.9022z" stroke="none" fill="#DDDDDD" fill-rule="nonzero" /><path id="523" transform="matrix(1 0 0 -1 0 842)" d="M479.4106 439.3151L552.1245 439.3151L552.1245 438.8136L479.4106 438.8136z" stroke="none" fill="#DDDDDD" fill-rule="nonzero" /><path id="524" transform="matrix(1 0 0 -1 0 842)" d="M479.4106 469.4037L479.9121 469.4037L479.9121 438.8136L479.4106 438.8136z" stroke="none" fill="#DDDDDD" fill-rule="nonzero" /><path id="525" transform="matrix(1 0 0 -1 0 842)" d="M551.623 469.4037L552.1245 469.4037L552.1245 438.8136L551.623 438.8136z" stroke="none" fill="#DDDDDD" fill-rule="nonzero" /><path id="542" transform="matrix(1 0 0 -1 0 842)" d="M37.61066 439.3151L110.3246 439.3151L110.3246 408.7251L37.61066 408.7251z" stroke="none" fill="#F8F8F9" fill-rule="nonzero" /><path id="543" transform="matrix(1 0 0 -1 0 842)" d="M37.61066 439.3151L110.3246 439.3151L110.3246 438.8136L37.61066 438.8136z" stroke="none" fill="#DDDDDD" fill-rule="nonzero" /><path id="544" transform="matrix(1 0 0 -1 0 842)" d="M37.61066 409.2266L110.3246 409.2266L110.3246 408.7251L37.61066 408.7251z" stroke="none" fill="#DDDDDD" fill-rule="nonzero" /><path id="545" transform="matrix(1 0 0 -1 0 842)" d="M37.61066 439.3151L38.11214 439.3151L38.11214 408.7251L37.61066 408.7251z" stroke="none" fill="#DDDDDD" fill-rule="nonzero" /><path id="546" transform="matrix(1 0 0 -1 0 842)" d="M109.8231 439.3151L110.3246 439.3151L110.3246 408.7251L109.8231 408.7251z" stroke="none" fill="#DDDDDD" fill-rule="nonzero" /><path id="559" transform="matrix(1 0 0 -1 0 842)" d="M109.8231 439.3151L296.8735 439.3151L296.8735 408.7251L109.8231 408.7251z" stroke="none" fill="#F8F8F9" fill-rule="nonzero" /><path id="560" transform="matrix(1 0 0 -1 0 842)" d="M109.8231 439.3151L296.8735 439.3151L296.8735 438.8136L109.8231 438.8136z" stroke="none" fill="#DDDDDD" fill-rule="nonzero" /><path id="561" transform="matrix(1 0 0 -1 0 842)" d="M109.8231 409.2266L296.8735 409.2266L296.8735 408.7251L109.8231 408.7251z" stroke="none" fill="#DDDDDD" fill-rule="nonzero" /><path id="562" transform="matrix(1 0 0 -1 0 842)" d="M109.8231 439.3151L110.3246 439.3151L110.3246 408.7251L109.8231 408.7251z" stroke="none" fill="#DDDDDD" fill-rule="nonzero" /><path id="563" transform="matrix(1 0 0 -1 0 842)" d="M296.372 439.3151L296.8735 439.3151L296.8735 408.7251L296.372 408.7251z" stroke="none" fill="#DDDDDD" fill-rule="nonzero" /><path id="576" transform="matrix(1 0 0 -1 0 842)" d="M296.372 439.3151L480.4135 439.3151L480.4135 408.7251L296.372 408.7251z" stroke="none" fill="#F8F8F9" fill-rule="nonzero" /><path id="577" transform="matrix(1 0 0 -1 0 842)" d="M296.372 439.3151L480.4135 439.3151L480.4135 438.8136L296.372 438.8136z" stroke="none" fill="#DDDDDD" fill-rule="nonzero" /><path id="578" transform="matrix(1 0 0 -1 0 842)" d="M296.372 409.2266L480.4135 409.2266L480.4135 408.7251L296.372 408.7251z" stroke="none" fill="#DDDDDD" fill-rule="nonzero" /><path id="579" transform="matrix(1 0 0 -1 0 842)" d="M296.372 439.3151L296.8735 439.3151L296.8735 408.7251L296.372 408.7251z" stroke="none" fill="#DDDDDD" fill-rule="nonzero" /><path id="580" transform="matrix(1 0 0 -1 0 842)" d="M479.9121 439.3151L480.4135 439.3151L480.4135 408.7251L479.9121 408.7251z" stroke="none" fill="#DDDDDD" fill-rule="nonzero" /><path id="590" transform="matrix(1 0 0 -1 0 842)" d="M479.9121 439.3151L552.626 439.3151L552.626 408.7251L479.9121 408.7251z" stroke="none" fill="#F8F8F9" fill-rule="nonzero" /><path id="591" transform="matrix(1 0 0 -1 0 842)" d="M479.9121 439.3151L552.626 439.3151L552.626 438.8136L479.9121 438.8136z" stroke="none" fill="#DDDDDD" fill-rule="nonzero" /><path id="592" transform="matrix(1 0 0 -1 0 842)" d="M479.9121 409.2266L552.626 409.2266L552.626 408.7251L479.9121 408.7251z" stroke="none" fill="#DDDDDD" fill-rule="nonzero" /><path id="593" transform="matrix(1 0 0 -1 0 842)" d="M479.9121 439.3151L480.4135 439.3151L480.4135 408.7251L479.9121 408.7251z" stroke="none" fill="#DDDDDD" fill-rule="nonzero" /><path id="594" transform="matrix(1 0 0 -1 0 842)" d="M552.1245 439.3151L552.626 439.3151L552.626 408.7251L552.1245 408.7251z" stroke="none" fill="#DDDDDD" fill-rule="nonzero" /><path id="602" transform="matrix(1 0 0 -1 0 842)" d="M37.61066 409.2266L110.3246 409.2266L110.3246 408.7251L37.61066 408.7251z" stroke="none" fill="#DDDDDD" fill-rule="nonzero" /><path id="603" transform="matrix(1 0 0 -1 0 842)" d="M37.61066 379.1381L110.3246 379.1381L110.3246 378.6366L37.61066 378.6366z" stroke="none" fill="#DDDDDD" fill-rule="nonzero" /><path id="604" transform="matrix(1 0 0 -1 0 842)" d="M37.61066 409.2266L38.11214 409.2266L38.11214 378.6366L37.61066 378.6366z" stroke="none" fill="#DDDDDD" fill-rule="nonzero" /><path id="605" transform="matrix(1 0 0 -1 0 842)" d="M109.8231 409.2266L110.3246 409.2266L110.3246 378.6366L109.8231 378.6366z" stroke="none" fill="#DDDDDD" fill-rule="nonzero" /><path id="615" transform="matrix(1 0 0 -1 0 842)" d="M109.8231 409.2266L296.8735 409.2266L296.8735 408.7251L109.8231 408.7251z" stroke="none" fill="#DDDDDD" fill-rule="nonzero" /><path id="616" transform="matrix(1 0 0 -1 0 842)" d="M109.8231 379.1381L296.8735 379.1381L296.8735 378.6366L109.8231 378.6366z" stroke="none" fill="#DDDDDD" fill-rule="nonzero" /><path id="617" transform="matrix(1 0 0 -1 0 842)" d="M109.8231 409.2266L110.3246 409.2266L110.3246 378.6366L109.8231 378.6366z" stroke="none" fill="#DDDDDD" fill-rule="nonzero" /><path id="618" transform="matrix(1 0 0 -1 0 842)" d="M296.372 409.2266L296.8735 409.2266L296.8735 378.6366L296.372 378.6366z" stroke="none" fill="#DDDDDD" fill-rule="nonzero" /><path id="620" transform="matrix(1 0 0 -1 0 842)" d="M296.372 409.2266L480.4135 409.2266L480.4135 408.7251L296.372 408.7251z" stroke="none" fill="#DDDDDD" fill-rule="nonzero" /><path id="621" transform="matrix(1 0 0 -1 0 842)" d="M296.372 379.1381L480.4135 379.1381L480.4135 378.6366L296.372 378.6366z" stroke="none" fill="#DDDDDD" fill-rule="nonzero" /><path id="622" transform="matrix(1 0 0 -1 0 842)" d="M296.372 409.2266L296.8735 409.2266L296.8735 378.6366L296.372 378.6366z" stroke="none" fill="#DDDDDD" fill-rule="nonzero" /><path id="623" transform="matrix(1 0 0 -1 0 842)" d="M479.9121 409.2266L480.4135 409.2266L480.4135 378.6366L479.9121 378.6366z" stroke="none" fill="#DDDDDD" fill-rule="nonzero" /><path id="625" transform="matrix(1 0 0 -1 0 842)" d="M479.9121 409.2266L552.626 409.2266L552.626 408.7251L479.9121 408.7251z" stroke="none" fill="#DDDDDD" fill-rule="nonzero" /><path id="626" transform="matrix(1 0 0 -1 0 842)" d="M479.9121 379.1381L552.626 379.1381L552.626 378.6366L479.9121 378.6366z" stroke="none" fill="#DDDDDD" fill-rule="nonzero" /><path id="627" transform="matrix(1 0 0 -1 0 842)" d="M479.9121 409.2266L480.4135 409.2266L480.4135 378.6366L479.9121 378.6366z" stroke="none" fill="#DDDDDD" fill-rule="nonzero" /><path id="628" transform="matrix(1 0 0 -1 0 842)" d="M552.1245 409.2266L552.626 409.2266L552.626 378.6366L552.1245 378.6366z" stroke="none" fill="#DDDDDD" fill-rule="nonzero" /><path id="637" transform="matrix(1 0 0 -1 0 842)" d="M38.11214 379.1381L110.3246 379.1381L110.3246 348.548L38.11214 348.548z" stroke="none" fill="#F8F8F9" fill-rule="nonzero" /><path id="638" transform="matrix(1 0 0 -1 0 842)" d="M38.11214 379.1381L110.3246 379.1381L110.3246 378.6366L38.11214 378.6366z" stroke="none" fill="#DDDDDD" fill-rule="nonzero" /><path id="639" transform="matrix(1 0 0 -1 0 842)" d="M38.11214 349.0495L110.3246 349.0495L110.3246 348.548L38.11214 348.548z" stroke="none" fill="#DDDDDD" fill-rule="nonzero" /><path id="640" transform="matrix(1 0 0 -1 0 842)" d="M38.11214 379.1381L38.61361 379.1381L38.61361 348.548L38.11214 348.548z" stroke="none" fill="#DDDDDD" fill-rule="nonzero" /><path id="641" transform="matrix(1 0 0 -1 0 842)" d="M109.8231 379.1381L110.3246 379.1381L110.3246 348.548L109.8231 348.548z" stroke="none" fill="#DDDDDD" fill-rule="nonzero" /><path id="656" transform="matrix(1 0 0 -1 0 842)" d="M109.8231 379.1381L296.8735 379.1381L296.8735 348.548L109.8231 348.548z" stroke="none" fill="#F8F8F9" fill-rule="nonzero" /><path id="657" transform="matrix(1 0 0 -1 0 842)" d="M109.8231 379.1381L296.8735 379.1381L296.8735 378.6366L109.8231 378.6366z" stroke="none" fill="#DDDDDD" fill-rule="nonzero" /><path id="658" transform="matrix(1 0 0 -1 0 842)" d="M109.8231 349.0495L296.8735 349.0495L296.8735 348.548L109.8231 348.548z" stroke="none" fill="#DDDDDD" fill-rule="nonzero" /><path id="659" transform="matrix(1 0 0 -1 0 842)" d="M109.8231 379.1381L110.3246 379.1381L110.3246 348.548L109.8231 348.548z" stroke="none" fill="#DDDDDD" fill-rule="nonzero" /><path id="660" transform="matrix(1 0 0 -1 0 842)" d="M296.372 379.1381L296.8735 379.1381L296.8735 348.548L296.372 348.548z" stroke="none" fill="#DDDDDD" fill-rule="nonzero" /><path id="691" transform="matrix(1 0 0 -1 0 842)" d="M296.372 378.6366L479.9121 378.6366L479.9121 348.0466L296.372 348.0466z" stroke="none" fill="#F8F8F9" fill-rule="nonzero" /><path id="692" transform="matrix(1 0 0 -1 0 842)" d="M296.372 378.6366L479.9121 378.6366L479.9121 378.1351L296.372 378.1351z" stroke="none" fill="#DDDDDD" fill-rule="nonzero" /><path id="693" transform="matrix(1 0 0 -1 0 842)" d="M296.372 348.548L479.9121 348.548L479.9121 348.0466L296.372 348.0466z" stroke="none" fill="#DDDDDD" fill-rule="nonzero" /><path id="694" transform="matrix(1 0 0 -1 0 842)" d="M296.372 378.6366L296.8735 378.6366L296.8735 348.0466L296.372 348.0466z" stroke="none" fill="#DDDDDD" fill-rule="nonzero" /><path id="695" transform="matrix(1 0 0 -1 0 842)" d="M479.4106 378.6366L479.9121 378.6366L479.9121 348.0466L479.4106 348.0466z" stroke="none" fill="#DDDDDD" fill-rule="nonzero" /><path id="716" transform="matrix(1 0 0 -1 0 842)" d="M479.4106 379.1381L552.1245 379.1381L552.1245 348.548L479.4106 348.548z" stroke="none" fill="#F8F8F9" fill-rule="nonzero" /><path id="717" transform="matrix(1 0 0 -1 0 842)" d="M479.4106 379.1381L552.1245 379.1381L552.1245 378.6366L479.4106 378.6366z" stroke="none" fill="#DDDDDD" fill-rule="nonzero" /><path id="718" transform="matrix(1 0 0 -1 0 842)" d="M479.4106 349.0495L552.1245 349.0495L552.1245 348.548L479.4106 348.548z" stroke="none" fill="#DDDDDD" fill-rule="nonzero" /><path id="719" transform="matrix(1 0 0 -1 0 842)" d="M479.4106 379.1381L479.9121 379.1381L479.9121 348.548L479.4106 348.548z" stroke="none" fill="#DDDDDD" fill-rule="nonzero" /><path id="720" transform="matrix(1 0 0 -1 0 842)" d="M551.623 379.1381L552.1245 379.1381L552.1245 348.548L551.623 348.548z" stroke="none" fill="#DDDDDD" fill-rule="nonzero" /><path id="737" transform="matrix(1 0 0 -1 0 842)" d="M37.61066 348.548L110.3246 348.548L110.3246 348.0466L37.61066 348.0466z" stroke="none" fill="#DDDDDD" fill-rule="nonzero" /><path id="738" transform="matrix(1 0 0 -1 0 842)" d="M37.61066 318.4595L110.3246 318.4595L110.3246 317.958L37.61066 317.958z" stroke="none" fill="#DDDDDD" fill-rule="nonzero" /><path id="739" transform="matrix(1 0 0 -1 0 842)" d="M37.61066 348.548L38.11214 348.548L38.11214 317.958L37.61066 317.958z" stroke="none" fill="#DDDDDD" fill-rule="nonzero" /><path id="740" transform="matrix(1 0 0 -1 0 842)" d="M109.8231 348.548L110.3246 348.548L110.3246 317.958L109.8231 317.958z" stroke="none" fill="#DDDDDD" fill-rule="nonzero" /><path id="750" transform="matrix(1 0 0 -1 0 842)" d="M109.8231 348.548L296.8735 348.548L296.8735 348.0466L109.8231 348.0466z" stroke="none" fill="#DDDDDD" fill-rule="nonzero" /><path id="751" transform="matrix(1 0 0 -1 0 842)" d="M109.8231 318.4595L296.8735 318.4595L296.8735 317.958L109.8231 317.958z" stroke="none" fill="#DDDDDD" fill-rule="nonzero" /><path id="752" transform="matrix(1 0 0 -1 0 842)" d="M109.8231 348.548L110.3246 348.548L110.3246 317.958L109.8231 317.958z" stroke="none" fill="#DDDDDD" fill-rule="nonzero" /><path id="753" transform="matrix(1 0 0 -1 0 842)" d="M296.372 348.548L296.8735 348.548L296.8735 317.958L296.372 317.958z" stroke="none" fill="#DDDDDD" fill-rule="nonzero" /><path id="773" transform="matrix(1 0 0 -1 0 842)" d="M296.372 348.548L480.4135 348.548L480.4135 348.0466L296.372 348.0466z" stroke="none" fill="#DDDDDD" fill-rule="nonzero" /><path id="774" transform="matrix(1 0 0 -1 0 842)" d="M296.372 318.4595L480.4135 318.4595L480.4135 317.958L296.372 317.958z" stroke="none" fill="#DDDDDD" fill-rule="nonzero" /><path id="775" transform="matrix(1 0 0 -1 0 842)" d="M296.372 348.548L296.8735 348.548L296.8735 317.958L296.372 317.958z" stroke="none" fill="#DDDDDD" fill-rule="nonzero" /><path id="776" transform="matrix(1 0 0 -1 0 842)" d="M479.9121 348.548L480.4135 348.548L480.4135 317.958L479.9121 317.958z" stroke="none" fill="#DDDDDD" fill-rule="nonzero" /><path id="783" transform="matrix(1 0 0 -1 0 842)" d="M479.9121 348.548L552.626 348.548L552.626 348.0466L479.9121 348.0466z" stroke="none" fill="#DDDDDD" fill-rule="nonzero" /><path id="784" transform="matrix(1 0 0 -1 0 842)" d="M479.9121 318.4595L552.626 318.4595L552.626 317.958L479.9121 317.958z" stroke="none" fill="#DDDDDD" fill-rule="nonzero" /><path id="785" transform="matrix(1 0 0 -1 0 842)" d="M479.9121 348.548L480.4135 348.548L480.4135 317.958L479.9121 317.958z" stroke="none" fill="#DDDDDD" fill-rule="nonzero" /><path id="786" transform="matrix(1 0 0 -1 0 842)" d="M552.1245 348.548L552.626 348.548L552.626 317.958L552.1245 317.958z" stroke="none" fill="#DDDDDD" fill-rule="nonzero" /></g><g clip-path="url(#3)"><g clip-path="url(#4)"><g transform="matrix(0.75 0 0 0.75 37.5 523.5)"><g transform="matrix(1 0 0 1 0 0)"><image x="0" y="0" xlink:href="img_02.png" width="98" height="42" /></g></g></g></g><g clip-path="url(#5)"><path id="811" transform="matrix(1 0 0 -1 0 842)" d="M109.8231 318.4595L296.8735 318.4595L296.8735 287.8695L109.8231 287.8695z" stroke="none" fill="#F8F8F9" fill-rule="nonzero" /><path id="812" transform="matrix(1 0 0 -1 0 842)" d="M109.8231 318.4595L296.8735 318.4595L296.8735 317.958L109.8231 317.958z" stroke="none" fill="#DDDDDD" fill-rule="nonzero" /><path id="813" transform="matrix(1 0 0 -1 0 842)" d="M109.8231 288.371L296.8735 288.371L296.8735 287.8695L109.8231 287.8695z" stroke="none" fill="#DDDDDD" fill-rule="nonzero" /><path id="814" transform="matrix(1 0 0 -1 0 842)" d="M109.8231 318.4595L110.3246 318.4595L110.3246 287.8695L109.8231 287.8695z" stroke="none" fill="#DDDDDD" fill-rule="nonzero" /><path id="815" transform="matrix(1 0 0 -1 0 842)" d="M296.372 318.4595L296.8735 318.4595L296.8735 287.8695L296.372 287.8695z" stroke="none" fill="#DDDDDD" fill-rule="nonzero" /><path id="827" transform="matrix(1 0 0 -1 0 842)" d="M296.372 317.958L479.9121 317.958L479.9121 287.368L296.372 287.368z" stroke="none" fill="#F8F8F9" fill-rule="nonzero" /><path id="828" transform="matrix(1 0 0 -1 0 842)" d="M296.372 317.958L479.9121 317.958L479.9121 317.4565L296.372 317.4565z" stroke="none" fill="#DDDDDD" fill-rule="nonzero" /><path id="829" transform="matrix(1 0 0 -1 0 842)" d="M296.372 287.8695L479.9121 287.8695L479.9121 287.368L296.372 287.368z" stroke="none" fill="#DDDDDD" fill-rule="nonzero" /><path id="830" transform="matrix(1 0 0 -1 0 842)" d="M296.372 317.958L296.8735 317.958L296.8735 287.368L296.372 287.368z" stroke="none" fill="#DDDDDD" fill-rule="nonzero" /><path id="831" transform="matrix(1 0 0 -1 0 842)" d="M479.4106 317.958L479.9121 317.958L479.9121 287.368L479.4106 287.368z" stroke="none" fill="#DDDDDD" fill-rule="nonzero" /></g><g clip-path="url(#6)"><g clip-path="url(#7)"><g transform="matrix(0.75 0 0 0.75 479.25 523.5)"><g transform="matrix(1 0 0 1 0 0)"><image x="0" y="0" xlink:href="img_03.png" width="98" height="42" /></g></g></g></g><g clip-path="url(#8)"><g transform="matrix(0.120034 0 0 0.1201939 77.22723 557.6408)"><g transform="matrix(1 0 0 1 0 0)"><image x="0" y="0" xlink:href="img_04.png" width="752" height="751" /></g></g><path id="1093" transform="matrix(1 0 0 -1 0 842)" d="M296.372 255.7751L297.8765 255.7751L297.8765 120.3766L296.372 120.3766z" stroke="none" fill="#EEEEEE" fill-rule="nonzero" /><g transform="matrix(0.1121869 0 0 0.111811 416.2247 586.225)"><g transform="matrix(1 0 0 1 0 0)"><image x="0" y="0" xlink:href="img_05.png" width="894" height="749" /></g></g><g transform="matrix(0.1812562 0 0 0.1806162 476.9032 751.2104)"><g transform="matrix(1 0 0 1 0 0)"><image x="0" y="0" xlink:href="img_06.png" width="498" height="236" /></g></g><g transform="matrix(0.2022078 0 0 0.2010867 394.1598 6.103516E-05)"><g transform="matrix(1 0 0 1 0 0)"><image x="0" y="0" xlink:href="img_07.png" width="992" height="404" /></g></g><g transform="matrix(0.1199702 0 0 0.1201226 203.5991 6.103516E-05)"><g transform="matrix(1 0 0 1 0 0)"><image x="0" y="0" xlink:href="img_08.png" width="1463" height="693" /></g></g></g></g></g></svg>