<?xml version="1.0" encoding="UTF-8" standalone="no"?>
<!DOCTYPE svg PUBLIC "-//W3C//DTD SVG 1.1//EN"
"http://www.w3.org/Graphics/SVG/1.1/DTD/svg11.dtd">
<svg viewBox="0 0 886 1256" version="1.1" xmlns="http://www.w3.org/2000/svg" xmlns:xlink="http://www.w3.org/1999/xlink">
<defs>
<clipPath id="c0"><path d="M106.7,155.8c.7,0,1.3,-.1,1.8,-.3c.4,-.2,.6,-.5,.6,-.8c0,-.2,0,-.3,-.1,-.4c-.2,-.1,-.4,-.2,-.7,-.3c-.3,-.1,-1.1,-.1,-2.4,-.1c-.5,0,-.9,.1,-1.1,.1c-.3,.2,-.4,.4,-.4,.7c0,.3,.1,.6,.4,.8c.4,.2,1,.3,1.9,.3Zm71.4,-4.3c.3,0,.6,-.2,1,-.5v-2.5c-.7,.4,-1.2,.8,-1.5,1.2c-.2,.3,-.3,.6,-.3,.9c0,.3,.1,.5,.2,.7c.2,.1,.4,.2,.6,.2Zm54.6,0c.3,0,.6,-.2,1,-.5v-2.5c-.7,.4,-1.2,.8,-1.5,1.2c-.2,.3,-.3,.6,-.3,.9c0,.3,.1,.5,.3,.7c.1,.1,.3,.2,.5,.2Zm22.5,0c.2,0,.6,-.2,.9,-.5v-2.5c-.6,.4,-1.1,.8,-1.5,1.2c-.2,.3,-.3,.6,-.3,.9c0,.3,.1,.5,.3,.7c.1,.1,.3,.2,.6,.2Zm-13.1,.9c.3,0,.5,-.1,.7,-.2c.2,-.2,.4,-.5,.5,-1c.1,-.4,.2,-1.3,.2,-2.5c0,-1.2,-.1,-2,-.4,-2.4c-.3,-.3,-.5,-.5,-.9,-.5c-.5,0,-.9,.3,-1.4,.8V150c0,.7,.1,1.2,.1,1.3c0,.4,.2,.6,.4,.8c.2,.2,.5,.3,.8,.3Zm-127,-.4c.5,0,1,-.4,1.4,-1.1v-4.1c-.4,-.7,-.9,-1.1,-1.5,-1.1c-.2,0,-.4,0,-.5,.1c-.2,.2,-.4,.5,-.5,.9c-.1,.5,-.2,1.1,-.2,2c0,1,.1,1.7,.2,2.2c.2,.4,.4,.8,.6,1c.1,.1,.3,.1,.5,.1Zm81.3,0c.5,0,.9,-.4,1.3,-1.1v-4.1c-.4,-.7,-.9,-1.1,-1.4,-1.1c-.2,0,-.4,0,-.5,.1c-.2,.2,-.4,.5,-.5,.9c-.2,.5,-.2,1.1,-.2,2c0,1,0,1.7,.2,2.2c.1,.4,.3,.8,.6,1c.1,.1,.3,.1,.5,.1Zm-72.1,.4c.2,0,.4,0,.6,-.2c.2,-.2,.4,-.4,.4,-.7c.1,-.6,.2,-1.6,.2,-3.2c0,-.9,-.1,-1.6,-.2,-1.9c-.1,-.4,-.2,-.6,-.4,-.8c-.2,-.1,-.4,-.1,-.6,-.1c-.3,0,-.5,.1,-.7,.3c-.2,.2,-.3,.6,-.4,1.2c-.1,.6,-.1,1.5,-.1,2.6c0,.6,0,1.1,.1,1.6c.1,.4,.2,.7,.4,.9c.2,.2,.4,.3,.7,.3Zm26.6,0c.2,0,.4,0,.6,-.2c.2,-.2,.4,-.4,.4,-.7c.1,-.6,.2,-1.6,.2,-3.2c0,-.9,-.1,-1.6,-.2,-1.9c-.1,-.4,-.2,-.6,-.4,-.8c-.2,-.1,-.3,-.1,-.6,-.1c-.3,0,-.5,.1,-.7,.3c-.2,.2,-.3,.6,-.4,1.2c-.1,.6,-.1,1.5,-.1,2.6c0,.6,.1,1.1,.1,1.6c.1,.4,.2,.7,.4,.9c.2,.2,.4,.3,.7,.3ZM106.4,150c.3,0,.6,-.2,.8,-.5c.2,-.3,.3,-.9,.3,-1.7c0,-1,-.1,-1.7,-.3,-2c-.2,-.3,-.5,-.4,-.8,-.4c-.3,0,-.6,.1,-.8,.5c-.2,.3,-.3,.9,-.3,1.9c0,.9,.1,1.4,.3,1.7c.2,.3,.5,.5,.8,.5ZM216,149l-1.6,-3.8l-1.8,3.8ZM88.7,152.8v-.3c.3,0,.6,-.1,.7,-.3c.1,-.1,.2,-.5,.2,-1v-4.5c0,-.5,-.1,-.9,-.2,-1c-.1,-.2,-.4,-.3,-.7,-.3v-.3h3.2v6.1c0,.5,.1,.9,.2,1c.1,.2,.4,.3,.7,.3v.3ZM186,153c-.4,0,-.8,-.1,-1.1,-.4c-.4,-.3,-.6,-.6,-.7,-.9c-.1,-.4,-.2,-1,-.2,-1.9v-3c0,-.6,0,-1,-.1,-1.1c-.2,-.2,-.4,-.3,-.7,-.3v-.3h3.1v5.2c0,.6,0,.9,.1,1.1c0,.2,.1,.3,.2,.4c.1,0,.3,.1,.4,.1c.2,0,.4,-.1,.6,-.2c.2,-.1,.4,-.4,.7,-.8v-4.1c0,-.6,0,-1,-.1,-1.1c-.1,-.2,-.3,-.3,-.7,-.3v-.3h3.1v6c0,.6,.1,1,.2,1.1c.1,.1,.3,.2,.7,.3v.3h-3.2v-1.1c-.3,.5,-.7,.8,-1.1,1c-.3,.2,-.7,.3,-1.2,.3Zm15.7,-.2v-.3c.3,0,.6,-.1,.8,-.3c.1,-.1,.1,-.5,.1,-1v-4.5c0,-.5,0,-.9,-.2,-1c-.1,-.2,-.3,-.3,-.7,-.3v-.3h3.2v6.1c0,.5,.1,.9,.2,1c.1,.2,.4,.3,.7,.3v.3Zm45.3,0v-.3c.3,0,.6,-.1,.8,-.3c.1,-.1,.1,-.5,.1,-1v-4.5c0,-.5,0,-.9,-.2,-1c-.1,-.2,-.3,-.3,-.7,-.3v-.3h3.2v6.1c0,.5,.1,.9,.2,1c.1,.2,.4,.3,.7,.3v.3Zm-153.4,0v-.3c.3,-.1,.5,-.2,.7,-.3c.1,-.2,.1,-.5,.1,-1.1v-4.3c0,-.6,0,-1,-.2,-1.1c-.1,-.2,-.3,-.3,-.6,-.3v-.3h3.1v1c.4,-.4,.8,-.7,1.1,-.9c.4,-.2,.8,-.3,1.2,-.3c.5,0,.9,.1,1.2,.4c.4,.3,.6,.6,.7,1c.1,.3,.1,.9,.1,1.8v3c0,.6,.1,1,.2,1.1c.1,.1,.3,.2,.7,.3v.3H98v-.3c.3,-.1,.5,-.2,.6,-.4c.1,-.1,.1,-.5,.1,-1v-3.4c0,-.6,0,-1,0,-1.2c-.1,-.2,-.2,-.3,-.3,-.4c-.1,-.1,-.2,-.1,-.4,-.1c-.5,0,-.9,.3,-1.3,1v4.1c0,.6,.1,.9,.2,1.1c.1,.1,.3,.2,.6,.3v.3Zm12.9,3.6c-.7,0,-1.4,-.1,-1.9,-.2c-.6,-.1,-1,-.3,-1.2,-.6c-.3,-.2,-.4,-.4,-.4,-.7c0,-.3,.1,-.5,.3,-.7c.2,-.2,.5,-.4,1,-.5c-.7,-.3,-1,-.8,-1,-1.5c0,-.3,.1,-.7,.4,-1.1c.3,-.3,.7,-.6,1.4,-.9c-.8,-.3,-1.3,-.6,-1.6,-1c-.4,-.5,-.5,-1,-.5,-1.6c0,-.7,.3,-1.4,.9,-1.9c.6,-.6,1.4,-.8,2.4,-.8c.5,0,1,.1,1.5,.3h2.6v.9H109c.2,.3,.4,.5,.5,.7c.2,.3,.2,.6,.2,.9c0,.6,-.1,1.1,-.4,1.5c-.3,.4,-.8,.7,-1.3,.9c-.5,.2,-1,.4,-1.4,.4c0,0,-.3,-.1,-1,-.1c-.2,0,-.4,.1,-.6,.3c-.1,.1,-.2,.3,-.2,.5c0,.2,.1,.4,.2,.5c.2,.1,.4,.2,.7,.2h1.5c1.1,0,1.9,.1,2.3,.4c.6,.3,1,.9,1,1.6c0,.5,-.2,.9,-.5,1.3c-.3,.3,-.6,.6,-1.1,.8c-.7,.3,-1.5,.4,-2.4,.4ZM124.3,153c-1.1,0,-2,-.4,-2.7,-1.2c-.6,-.8,-.9,-1.8,-.9,-2.8c0,-1.1,.3,-2.1,1,-2.9c.6,-.8,1.5,-1.2,2.6,-1.2c.7,0,1.3,.1,1.8,.5c.6,.3,1.1,.8,1.4,1.5c.3,.6,.4,1.3,.4,2c0,1.1,-.3,2,-.8,2.8c-.7,.9,-1.6,1.3,-2.8,1.3Zm4.8,-.2v-.3c.3,-.1,.6,-.2,.7,-.3c.1,-.2,.2,-.5,.2,-1.1v-4.3c0,-.6,-.1,-1,-.2,-1.1c-.1,-.2,-.3,-.3,-.7,-.3v-.3h3.2v1c.4,-.5,.8,-.8,1.1,-1c.4,-.1,.8,-.2,1.2,-.2c.5,0,.9,.1,1.2,.3c.4,.2,.6,.6,.8,1.1c.4,-.5,.9,-.9,1.3,-1.1c.4,-.2,.8,-.3,1.2,-.3c.6,0,1,.1,1.3,.3c.3,.3,.5,.6,.7,1c.1,.3,.1,.9,.1,1.8v3.1c0,.6,.1,1,.2,1.1c.1,.1,.3,.2,.7,.3v.3h-4v-.3c.3,-.1,.5,-.2,.7,-.4c.1,-.1,.1,-.5,.1,-1v-3.3c0,-.7,0,-1.1,0,-1.3c-.1,-.2,-.2,-.3,-.3,-.4c-.1,-.1,-.3,-.2,-.4,-.2c-.2,0,-.5,.1,-.7,.3c-.3,.2,-.5,.4,-.8,.8v4.1c0,.6,.1,.9,.2,1c.1,.2,.3,.4,.7,.4v.3h-4v-.3c.2,0,.4,-.1,.5,-.2c.2,-.1,.2,-.2,.3,-.3c0,-.2,0,-.5,0,-.9v-3.3c0,-.7,0,-1.1,0,-1.3c-.1,-.2,-.2,-.3,-.3,-.4c-.1,-.1,-.3,-.2,-.4,-.2c-.2,0,-.4,.1,-.6,.2c-.3,.2,-.6,.5,-.8,.9v4.1c0,.5,0,.9,.1,1.1c.1,.1,.3,.2,.7,.3v.3Zm21.8,.2c-1.1,0,-2,-.4,-2.7,-1.2c-.6,-.8,-.9,-1.8,-.9,-2.8c0,-1.1,.3,-2.1,1,-2.9c.6,-.8,1.5,-1.2,2.6,-1.2c.7,0,1.3,.1,1.9,.5c.5,.3,1,.8,1.3,1.5c.3,.6,.4,1.3,.4,2c0,1.1,-.3,2,-.8,2.8c-.7,.9,-1.6,1.3,-2.8,1.3Zm25.6,-.1c-.4,0,-.8,-.2,-1.1,-.5c-.2,-.2,-.4,-.6,-.4,-1c0,-.6,.3,-1.1,.8,-1.6c.5,-.5,1.6,-1.1,3.3,-1.9v-.8c0,-.5,-.1,-.9,-.1,-1c-.1,-.2,-.2,-.3,-.4,-.4c-.2,-.2,-.4,-.2,-.6,-.2c-.3,0,-.6,.1,-.9,.2c-.1,.1,-.2,.2,-.2,.4c0,.1,.1,.2,.3,.4c.2,.2,.3,.5,.3,.7c0,.3,-.1,.5,-.3,.7c-.2,.2,-.5,.3,-.8,.3c-.4,0,-.6,-.2,-.9,-.4c-.2,-.2,-.3,-.4,-.3,-.7c0,-.4,.1,-.8,.4,-1.1c.4,-.4,.8,-.7,1.3,-.8c.6,-.2,1.2,-.3,1.8,-.3c.7,0,1.3,.1,1.7,.4c.4,.3,.7,.7,.8,1c.1,.3,.2,.8,.2,1.6v3c0,.4,0,.6,0,.7c0,.1,.1,.1,.1,.2q.1,0,.2,0c.1,0,.3,-.1,.4,-.3l.3,.2c-.3,.4,-.6,.7,-.9,.9c-.3,.2,-.6,.3,-1,.3c-.4,0,-.7,-.1,-1,-.3c-.2,-.2,-.4,-.5,-.4,-1c-1,.9,-1.8,1.3,-2.6,1.3Zm45.6,-.1v-.3c.3,-.1,.5,-.1,.6,-.3c.2,-.2,.2,-.6,.2,-1.2v-4.3c0,-.4,0,-.7,-.1,-.8c0,-.2,-.1,-.3,-.2,-.4c-.1,0,-.3,-.1,-.5,-.1v-.3h3.1v1.7c.5,-.8,.9,-1.3,1.3,-1.5c.4,-.3,.8,-.4,1.1,-.4c.3,0,.6,.1,.8,.3c.2,.1,.2,.4,.2,.8c0,.3,0,.6,-.2,.8c-.2,.2,-.4,.3,-.7,.3c-.3,0,-.5,-.1,-.7,-.3c-.2,-.2,-.4,-.3,-.4,-.3q-.1,0,-.2,0c-.1,0,-.3,0,-.4,.1c-.3,.2,-.4,.5,-.5,.8c-.2,.6,-.3,1.2,-.3,1.8v2.2c0,.3,0,.5,.1,.6c0,.2,.1,.3,.2,.3c.2,.1,.4,.2,.7,.2v.3Zm9.1,.1c-.5,0,-.8,-.2,-1.1,-.5c-.3,-.2,-.4,-.6,-.4,-1c0,-.6,.2,-1.1,.7,-1.6c.5,-.5,1.6,-1.1,3.3,-1.9v-.8c0,-.5,0,-.9,-.1,-1c-.1,-.2,-.2,-.3,-.4,-.4c-.1,-.2,-.3,-.2,-.5,-.2c-.4,0,-.7,.1,-.9,.2c-.2,.1,-.2,.2,-.2,.4c0,.1,0,.2,.2,.4c.2,.2,.3,.5,.3,.7c0,.3,-.1,.5,-.3,.7c-.2,.2,-.5,.3,-.8,.3c-.3,0,-.6,-.2,-.8,-.4c-.3,-.2,-.4,-.4,-.4,-.7c0,-.4,.2,-.8,.5,-1.1c.3,-.4,.7,-.7,1.3,-.8c.5,-.2,1.1,-.3,1.7,-.3c.7,0,1.3,.1,1.7,.4c.5,.3,.7,.7,.9,1c.1,.3,.1,.8,.1,1.6v3c0,.4,0,.6,0,.7q.1,.1,.2,.2c0,0,.1,0,.1,0c.2,0,.3,-.1,.5,-.3l.2,.2c-.3,.4,-.5,.7,-.8,.9c-.3,.2,-.7,.3,-1,.3c-.5,0,-.8,-.1,-1,-.3c-.3,-.2,-.4,-.5,-.5,-1c-.9,.9,-1.8,1.3,-2.5,1.3Zm22.4,0c-.4,0,-.8,-.2,-1.1,-.5c-.3,-.2,-.4,-.6,-.4,-1c0,-.6,.2,-1.1,.7,-1.6c.5,-.5,1.6,-1.1,3.3,-1.9v-.8c0,-.5,0,-.9,-.1,-1c0,-.2,-.2,-.3,-.3,-.4c-.2,-.2,-.4,-.2,-.6,-.2c-.4,0,-.7,.1,-.9,.2c-.1,.1,-.2,.2,-.2,.4c0,.1,.1,.2,.2,.4c.2,.2,.3,.5,.3,.7c0,.3,-.1,.5,-.3,.7c-.2,.2,-.4,.3,-.8,.3c-.3,0,-.6,-.2,-.8,-.4c-.2,-.2,-.4,-.4,-.4,-.7c0,-.4,.2,-.8,.5,-1.1c.3,-.4,.7,-.7,1.3,-.8c.6,-.2,1.1,-.3,1.7,-.3c.8,0,1.4,.1,1.8,.4c.4,.3,.7,.7,.8,1c.1,.3,.1,.8,.1,1.6v3c0,.4,0,.6,.1,.7q0,.1,.1,.2c0,0,.1,0,.2,0c.1,0,.3,-.1,.4,-.3l.2,.2c-.2,.4,-.5,.7,-.8,.9c-.3,.2,-.6,.3,-1,.3c-.4,0,-.8,-.1,-1,-.3c-.3,-.2,-.4,-.5,-.5,-1c-.9,.9,-1.8,1.3,-2.5,1.3Zm-178,-.1v-.3H76c.3,0,.6,-.1,.8,-.2c.1,-.1,.2,-.2,.3,-.4c.1,-.1,.1,-.5,.1,-1v-7.4c0,-.5,0,-.9,-.1,-1c0,-.2,-.2,-.3,-.4,-.4c-.1,-.1,-.4,-.2,-.7,-.2h-.4v-.3h5.6v.3c-.4,0,-.7,.1,-.9,.2c-.1,.1,-.2,.2,-.3,.4c-.1,.1,-.1,.5,-.1,1V147L84,143.7c.6,-.5,.9,-.9,.9,-1.1c0,-.3,-.1,-.4,-.4,-.5c-.1,-.1,-.4,-.1,-.9,-.2v-.3H88v.3c-.4,.1,-.7,.1,-1,.3c-.2,.1,-.7,.4,-1.5,1.1l-3.2,2.6l3.9,4.9c.5,.7,1,1.2,1.4,1.4c.3,.2,.6,.3,.9,.3v.3H82.7v-.3c.4,-.1,.6,-.1,.7,-.2c.1,-.1,.2,-.2,.2,-.3c0,-.2,-.3,-.7,-.8,-1.3l-2.5,-3.2l-.4,.3v3.1c0,.5,0,.9,.1,1c0,.2,.2,.3,.4,.4c.1,.1,.4,.2,.9,.2v.3Zm38.8,.2c-1,0,-1.7,-.4,-2.3,-1.3c-.5,-.7,-.7,-1.6,-.7,-2.6c0,-.9,.1,-1.6,.4,-2.3c.3,-.6,.7,-1.1,1.2,-1.4c.5,-.4,1,-.5,1.6,-.5c.4,0,.7,0,1,.2c.3,.1,.6,.4,.9,.7v-2.3c0,-.6,0,-.9,-.1,-1c-.1,-.2,-.2,-.3,-.3,-.4c-.1,-.1,-.4,-.1,-.7,-.1v-.4h3.4v8.9c0,.6,0,.9,0,1c.1,.2,.2,.3,.3,.4c.1,.1,.3,.2,.6,.2v.3l-3.2,.6v-1.2c-.4,.5,-.7,.8,-1.1,.9c-.3,.2,-.6,.3,-1,.3Zm81.3,0c-1,0,-1.8,-.4,-2.3,-1.3c-.5,-.7,-.7,-1.6,-.7,-2.6c0,-.9,.1,-1.6,.4,-2.3c.3,-.6,.7,-1.1,1.2,-1.4c.5,-.4,1,-.5,1.6,-.5c.3,0,.6,0,.9,.2c.3,.1,.6,.4,.9,.7v-2.3c0,-.6,0,-.9,0,-1c-.1,-.2,-.2,-.3,-.3,-.4c-.2,-.1,-.4,-.1,-.8,-.1v-.4H200v8.9c0,.6,.1,.9,.1,1c0,.2,.1,.3,.2,.4c.2,.1,.4,.2,.7,.2v.3l-3.3,.6v-1.2c-.3,.5,-.7,.8,-1,.9c-.3,.2,-.6,.3,-1,.3Zm46.5,0c-.4,0,-.8,-.1,-1.1,-.2c-.4,-.1,-.7,-.3,-1,-.6l-1.3,.8h-.2v-9.8c0,-.4,-.1,-.7,-.1,-.8c0,-.1,-.1,-.3,-.2,-.3c-.2,-.1,-.4,-.1,-.6,-.2v-.3h3.1v4.3c.7,-.7,1.4,-1,2.2,-1c.5,0,1,.1,1.4,.4c.5,.3,.9,.8,1.1,1.3c.3,.6,.4,1.3,.4,2c0,.9,-.1,1.6,-.5,2.3c-.3,.7,-.8,1.2,-1.3,1.6c-.6,.3,-1.2,.5,-1.9,.5Zm-32.8,-.2v-.3c.4,-.1,.8,-.3,1,-.5c.3,-.3,.6,-.9,1,-1.7l3.9,-8.9h.2l4,9.1c.4,.9,.7,1.4,1,1.7c.1,.1,.4,.2,.7,.3v.3h-5.3v-.3h.2c.4,0,.7,-.1,.9,-.2c.1,-.1,.2,-.2,.2,-.4c0,-.1,0,-.2,-.1,-.3c0,0,-.1,-.2,-.2,-.6l-.6,-1.4h-3.9l-.5,1.1c-.2,.3,-.2,.6,-.2,.9c0,.3,.1,.5,.3,.7c.2,.1,.6,.1,1.1,.2v.3Zm-53.7,0v-.3c.3,0,.5,-.1,.7,-.1c.1,-.1,.2,-.2,.3,-.4c0,-.1,.1,-.4,.1,-.8v-5.3h-1.1v-.8h1.1v-1c0,-.7,.2,-1.4,.8,-1.9c.6,-.6,1.4,-.8,2.4,-.8c.6,0,1.1,.1,1.5,.4c.3,.2,.5,.5,.5,.8c0,.2,-.1,.5,-.3,.6c-.3,.2,-.5,.3,-.9,.3c-.2,0,-.5,-.1,-.6,-.2c-.2,-.2,-.3,-.3,-.3,-.5c0,0,0,-.2,.1,-.3c0,-.1,0,-.2,0,-.3c0,-.1,0,-.2,-.1,-.2c-.1,-.1,-.2,-.1,-.3,-.1c-.2,0,-.3,0,-.4,.2c-.1,.1,-.2,.3,-.2,.6v2.4h1.2v.8H159v5.3c0,.5,.1,.9,.2,1c.2,.2,.5,.3,.9,.3h.1v.3Zm14,.2c-.3,0,-.6,0,-1,-.1c-.3,0,-.7,-.2,-1.1,-.4c-.3,-.1,-.5,-.1,-.7,-.1c-.1,0,-.3,0,-.4,.1c-.2,.1,-.3,.3,-.4,.5h-.3v-4.2h.3c.2,1.2,.7,2.1,1.4,2.7c.7,.6,1.4,1,2.2,1c.6,0,1.1,-.2,1.5,-.5c.3,-.4,.5,-.8,.5,-1.2c0,-.3,-.1,-.5,-.2,-.8c-.1,-.2,-.4,-.5,-.6,-.7c-.3,-.2,-.8,-.5,-1.6,-.8c-1,-.5,-1.7,-1,-2.1,-1.3c-.5,-.4,-.8,-.8,-1.1,-1.2c-.2,-.4,-.3,-.9,-.3,-1.4c0,-.9,.3,-1.7,1,-2.3c.6,-.6,1.4,-.9,2.4,-.9c.4,0,.7,0,1.1,.1c.2,.1,.5,.2,.9,.4c.4,.2,.6,.3,.8,.3c.1,0,.2,-.1,.3,-.2c.1,-.1,.2,-.3,.3,-.6h.2l.1,3.7h-.3c-.2,-.9,-.6,-1.7,-1.2,-2.2c-.6,-.6,-1.3,-.9,-2,-.9c-.6,0,-1,.2,-1.4,.5c-.3,.2,-.4,.6,-.4,1c0,.2,0,.4,.1,.6c.2,.3,.4,.5,.8,.8c.3,.2,.8,.5,1.8,1c1.3,.6,2.2,1.2,2.6,1.8c.5,.5,.7,1.2,.7,1.9c0,1,-.4,1.8,-1.1,2.4c-.7,.7,-1.7,1,-2.8,1Zm-79,-9.1c-.3,0,-.6,-.1,-.8,-.4c-.3,-.2,-.4,-.5,-.4,-.8c0,-.4,.1,-.7,.4,-.9c.2,-.3,.5,-.4,.8,-.4c.4,0,.7,.1,.9,.4c.3,.2,.4,.5,.4,.9c0,.3,-.1,.6,-.4,.8c-.2,.3,-.5,.4,-.9,.4Zm113.1,0c-.4,0,-.7,-.1,-.9,-.4c-.3,-.2,-.4,-.5,-.4,-.8c0,-.4,.1,-.7,.4,-.9c.2,-.3,.5,-.4,.9,-.4c.3,0,.6,.1,.9,.4c.2,.2,.3,.5,.3,.9c0,.3,-.1,.6,-.3,.8c-.3,.3,-.6,.4,-.9,.4Zm45.3,0c-.4,0,-.7,-.1,-.9,-.4c-.3,-.2,-.4,-.5,-.4,-.8c0,-.4,.1,-.7,.4,-.9c.2,-.3,.5,-.4,.9,-.4c.3,0,.6,.1,.9,.4c.2,.2,.3,.5,.3,.9c0,.3,-.1,.6,-.3,.8c-.3,.3,-.6,.4,-.9,.4Z"/></clipPath>
<clipPath id="c1"><path d="M210.2,172.4c.3,0,.6,-.1,1,-.4v-2.6c-.7,.4,-1.2,.8,-1.5,1.2c-.2,.3,-.3,.6,-.3,.9c0,.3,.1,.5,.2,.7c.2,.1,.4,.2,.6,.2Zm-38.4,.9c.3,0,.5,0,.6,-.2c.2,-.1,.4,-.4,.5,-.7c.1,-.6,.1,-1.6,.1,-3.2c0,-.9,0,-1.6,-.1,-1.9c-.1,-.4,-.3,-.6,-.5,-.8c-.1,-.1,-.3,-.1,-.6,-.1c-.2,0,-.5,.1,-.7,.3c-.2,.2,-.3,.6,-.4,1.2c0,.6,-.1,1.5,-.1,2.6c0,.6,.1,1.1,.2,1.7c0,.3,.1,.6,.3,.8c.2,.2,.5,.3,.7,.3ZM204,169c0,-.9,-.1,-1.5,-.2,-1.8c-.1,-.3,-.2,-.6,-.4,-.7c-.2,-.1,-.3,-.2,-.5,-.2c-.3,0,-.5,.2,-.7,.4c-.3,.5,-.5,1.2,-.5,2v.3Zm-86.9,4.7v-.3c.3,0,.6,-.1,.7,-.3c.2,-.1,.2,-.5,.2,-1v-4.5c0,-.5,-.1,-.9,-.2,-1c-.1,-.2,-.4,-.3,-.7,-.3V166h3.2v6.1c0,.5,.1,.9,.2,1c.1,.2,.4,.3,.7,.3v.3Zm14,0v-.3c.3,0,.6,-.1,.7,-.3c.2,-.1,.2,-.5,.2,-1v-4.5c0,-.5,-.1,-.9,-.2,-1c-.1,-.2,-.3,-.3,-.7,-.3V166h3.2v6.1c0,.5,.1,.9,.2,1c.1,.2,.4,.3,.7,.3v.3Zm25.9,3.6c-.4,0,-.8,-.1,-1.1,-.4c-.3,-.2,-.4,-.6,-.4,-.9c0,-.3,.1,-.6,.3,-.8c.2,-.2,.4,-.3,.7,-.3c.3,0,.5,.1,.7,.2c.1,.2,.2,.5,.2,.9c0,.2,.1,.3,.1,.4c0,0,.1,0,.2,0c.1,0,.3,0,.4,-.2c.2,-.2,.5,-.7,.8,-1.6l.2,-.6l-2.5,-5.7c-.3,-.9,-.6,-1.4,-.8,-1.6c-.2,-.2,-.4,-.3,-.6,-.4V166h4v.3c-.2,0,-.4,.1,-.5,.2c-.1,.1,-.2,.2,-.2,.3c0,.2,.2,.6,.4,1.2l1.3,3l.9,-2.3c.4,-.8,.5,-1.4,.5,-1.7c0,-.2,0,-.4,-.2,-.5c-.1,-.1,-.4,-.2,-.7,-.2V166h2.6v.3c-.3,0,-.5,.1,-.6,.3c-.2,.2,-.5,.7,-.8,1.7l-2.2,5.7c-.6,1.4,-1,2.3,-1.3,2.6c-.3,.5,-.8,.7,-1.4,.7Zm-35,-3.6v-.3c.3,0,.5,-.1,.7,-.3c.1,-.1,.1,-.5,.1,-1.1v-4.3c0,-.6,0,-1,-.1,-1.1c-.2,-.1,-.4,-.2,-.7,-.3V166h3.1v1c.4,-.4,.8,-.7,1.1,-.9c.4,-.2,.8,-.3,1.2,-.3c.5,0,.9,.1,1.2,.4c.4,.3,.6,.6,.7,1c.1,.3,.1,.9,.1,1.8v3c0,.6,.1,1,.2,1.1c.1,.2,.3,.2,.7,.3v.3h-3.9v-.3c.3,-.1,.5,-.2,.6,-.4c.1,-.1,.1,-.4,.1,-1v-3.4c0,-.6,0,-1,0,-1.2c-.1,-.2,-.2,-.3,-.3,-.4c-.1,-.1,-.2,-.1,-.4,-.1c-.4,0,-.9,.3,-1.3,1V172c0,.6,.1,.9,.2,1.1c.1,.2,.3,.2,.6,.3v.3Zm16.9,.2c-.4,0,-.9,-.1,-1.5,-.3c-.2,-.1,-.3,-.1,-.3,-.1c-.2,0,-.4,.1,-.5,.4h-.3l-.1,-2.8h.3c.2,.8,.6,1.3,1,1.7c.4,.3,.8,.5,1.2,.5c.3,0,.5,-.1,.7,-.2c.1,-.2,.2,-.4,.2,-.6c0,-.3,-.1,-.5,-.2,-.7c-.2,-.2,-.6,-.5,-1.1,-.9c-.9,-.6,-1.4,-1,-1.7,-1.3c-.3,-.5,-.5,-1,-.5,-1.5c0,-.6,.2,-1.1,.6,-1.6c.4,-.5,1,-.7,1.8,-.7c.4,0,.8,.1,1.2,.3c.1,.1,.3,.1,.3,.1c.1,0,.2,0,.3,-.1c0,0,.1,-.1,.3,-.3h.2l.2,2.6h-.3c-.3,-.8,-.7,-1.3,-1,-1.6c-.4,-.3,-.8,-.4,-1.1,-.4c-.2,0,-.4,.1,-.6,.2c-.2,.2,-.2,.3,-.2,.5c0,.2,0,.3,.1,.5c.2,.2,.7,.6,1.5,1.1c.8,.6,1.3,1,1.6,1.4c.2,.4,.4,.8,.4,1.3c0,.4,-.1,.8,-.3,1.2c-.3,.5,-.6,.8,-.9,1c-.4,.2,-.9,.3,-1.3,.3Zm9.3,-.2v-.3c.3,0,.5,-.1,.7,-.3c.1,-.1,.1,-.6,.1,-1.2v-4.3c0,-.4,0,-.7,0,-.8c-.1,-.2,-.2,-.3,-.3,-.3c-.1,-.1,-.3,-.2,-.5,-.2V166h3.1v1.7c.5,-.7,1,-1.3,1.3,-1.5c.4,-.3,.8,-.4,1.2,-.4c.3,0,.5,.1,.7,.3c.2,.2,.3,.4,.3,.8c0,.3,-.1,.6,-.3,.8c-.2,.2,-.4,.3,-.6,.3c-.3,0,-.6,-.1,-.8,-.3c-.2,-.1,-.3,-.2,-.4,-.3c0,0,-.1,0,-.2,0c-.1,0,-.3,0,-.4,.2c-.2,.1,-.4,.4,-.5,.8c-.2,.5,-.3,1.1,-.3,1.7v2.2c0,.3,0,.5,.1,.6c0,.2,.1,.3,.3,.4c.1,0,.3,.1,.6,.1v.3Zm23.6,.2c-1.1,0,-2,-.4,-2.6,-1.2c-.7,-.8,-1,-1.7,-1,-2.8c0,-1.1,.4,-2.1,1,-2.9c.6,-.8,1.5,-1.2,2.6,-1.2c.7,0,1.3,.2,1.9,.5c.6,.3,1,.8,1.3,1.5c.3,.6,.4,1.3,.4,2.1c0,1,-.2,2,-.8,2.7c-.7,.9,-1.6,1.3,-2.8,1.3Zm31,0c-1.1,0,-2,-.4,-2.5,-1.3c-.5,-.7,-.7,-1.6,-.7,-2.6c0,-1.3,.3,-2.3,1,-3.1c.7,-.7,1.5,-1.1,2.4,-1.1c.8,0,1.5,.3,2,.9c.6,.7,.9,1.6,1,2.9h-4.2c0,1,.3,1.8,.8,2.4c.4,.4,.8,.7,1.3,.7c.4,0,.7,-.1,.9,-.3c.3,-.2,.6,-.5,.9,-1l.3,.2c-.4,.8,-.9,1.4,-1.4,1.8c-.5,.3,-1.1,.5,-1.8,.5Zm5.8,-.1c-.4,0,-.8,-.2,-1,-.4c-.3,-.3,-.5,-.7,-.5,-1.1c0,-.6,.3,-1.1,.8,-1.6c.5,-.5,1.6,-1.1,3.3,-1.9v-.7c0,-.6,-.1,-1,-.1,-1.1c-.1,-.2,-.2,-.3,-.4,-.4c-.2,-.1,-.4,-.2,-.6,-.2c-.3,0,-.6,.1,-.9,.2c-.1,.1,-.2,.3,-.2,.4c0,.1,.1,.2,.3,.4c.2,.2,.3,.5,.3,.7c0,.3,-.1,.5,-.3,.7c-.2,.2,-.5,.3,-.8,.3c-.4,0,-.6,-.1,-.9,-.3c-.2,-.3,-.3,-.5,-.3,-.8c0,-.4,.1,-.7,.4,-1.1c.4,-.4,.8,-.6,1.3,-.8c.6,-.2,1.2,-.3,1.8,-.3c.7,0,1.3,.1,1.7,.4c.4,.4,.7,.7,.8,1c.1,.3,.2,.8,.2,1.6v3c0,.4,0,.6,0,.7c0,.1,.1,.1,.1,.2q.1,0,.2,0c.1,0,.3,-.1,.4,-.3l.3,.2c-.3,.4,-.6,.7,-.9,.9c-.3,.2,-.6,.3,-1,.3c-.4,0,-.7,-.1,-1,-.3c-.2,-.2,-.4,-.5,-.4,-.9c-1,.8,-1.8,1.2,-2.6,1.2Zm-63.4,0c-.4,0,-.9,-.1,-1.2,-.4c-.3,-.3,-.5,-.6,-.6,-.9c-.1,-.2,-.1,-.7,-.1,-1.5v-4.2h-1v-.3c.7,-.5,1.3,-1,1.7,-1.5c.5,-.5,.9,-1.1,1.3,-1.8h.3V166h1.8v.8h-1.8v4.8c0,.4,0,.7,0,.8c.1,.1,.2,.2,.3,.3c.1,.1,.2,.1,.2,.1c.4,0,.7,-.2,1.1,-.8l.2,.2c-.4,1.1,-1.2,1.6,-2.2,1.6Zm77.5,0c-.5,0,-.9,-.1,-1.2,-.4c-.4,-.3,-.6,-.6,-.7,-.9c0,-.2,0,-.7,0,-1.5v-4.2h-1.1v-.3c.7,-.5,1.3,-1,1.8,-1.5c.5,-.5,.9,-1.1,1.3,-1.8h.2V166h1.9v.8H223v4.8c0,.4,.1,.7,.1,.8c.1,.1,.1,.2,.2,.3c.1,.1,.2,.1,.3,.1c.4,0,.7,-.2,1,-.8l.3,.2c-.5,1.1,-1.2,1.6,-2.2,1.6Zm-121.5,-.1v-.3h.1c0,0,.1,0,.1,0c.2,0,.4,-.1,.6,-.1c.2,-.1,.4,-.2,.5,-.4c.1,-.1,.2,-.3,.3,-.6c0,0,0,-.3,0,-.8v-7.1c0,-.5,-.1,-.9,-.1,-1c-.1,-.2,-.2,-.3,-.4,-.4c-.2,-.1,-.4,-.1,-.7,-.1h-.4v-.3h4.6l3.1,7.3l3,-7.3h4.5v.3h-.3c-.3,0,-.6,0,-.8,.1c-.1,.1,-.3,.2,-.3,.4c-.1,.1,-.1,.5,-.1,1v7.4c0,.5,0,.9,.1,1c0,.2,.1,.3,.3,.4c.2,.1,.5,.2,.8,.2h.3v.3h-5.8v-.3h.4c.3,0,.6,-.1,.8,-.2c.1,-.1,.2,-.2,.3,-.4c.1,-.1,.1,-.5,.1,-1v-8.3l-4.3,10.2h-.2l-4.3,-10.1v7.8c0,.6,0,.9,0,1.1c.1,.2,.3,.4,.5,.6c.2,.2,.6,.3,1.1,.3v.3Zm85,0v-.3h.4c.3,0,.5,-.1,.7,-.2c.2,-.1,.3,-.2,.4,-.4c0,-.1,.1,-.5,.1,-1v-7.3c0,-.6,-.1,-1,-.1,-1.1c-.1,-.2,-.2,-.3,-.4,-.4c-.2,-.1,-.4,-.1,-.7,-.1h-.4v-.3H192v.3h-.4c-.3,0,-.5,0,-.7,.1c-.2,.1,-.3,.2,-.4,.4c0,.2,-.1,.5,-.1,1.1v3.1h4v-3.1c0,-.6,-.1,-1,-.1,-1.1c-.1,-.2,-.2,-.3,-.4,-.4c-.2,-.1,-.4,-.1,-.7,-.1h-.4v-.3h5.8v.3h-.4c-.3,0,-.5,0,-.7,.1c-.2,.1,-.3,.2,-.4,.4c0,.2,-.1,.5,-.1,1.1v7.3c0,.5,.1,.9,.1,1c.1,.2,.2,.3,.4,.4c.2,.1,.4,.2,.7,.2h.4v.3h-5.8v-.3h.4c.3,0,.5,-.1,.7,-.2c.2,-.1,.3,-.2,.4,-.4c0,-.1,.1,-.5,.1,-1v-3.5h-4v3.5c0,.5,.1,.9,.1,1c.1,.2,.2,.3,.4,.4c.2,.1,.4,.2,.7,.2h.4v.3Zm28.9,0v-.3c.4,0,.6,-.1,.8,-.3c.1,-.1,.1,-.5,.1,-1v-8c0,-.5,0,-.8,-.1,-1c-.2,-.1,-.4,-.2,-.8,-.2v-.3h3.2v9.5c0,.5,.1,.9,.2,1c.2,.2,.4,.3,.8,.3v.3Zm10.5,0v-.3c.3,0,.6,-.1,.7,-.3c.1,-.1,.1,-.5,.1,-1.1v-7.8c0,-.6,0,-.9,-.1,-1.1c-.1,-.1,-.3,-.2,-.7,-.2v-.3h3.1V167c.5,-.4,.8,-.8,1.2,-.9c.3,-.2,.7,-.3,1.1,-.3c.5,0,.9,.1,1.2,.4c.4,.3,.6,.6,.7,1c.1,.3,.2,.9,.2,1.8v3c0,.6,0,1,.1,1.1c.1,.2,.4,.2,.7,.3v.3H230v-.3c.3,-.1,.5,-.2,.6,-.3c.1,-.2,.2,-.5,.2,-1.1v-3.4c0,-.6,0,-1,-.1,-1.2c0,-.2,-.1,-.3,-.2,-.4c-.2,-.1,-.3,-.1,-.4,-.1c-.3,0,-.5,.1,-.7,.2c-.2,.2,-.4,.4,-.7,.8V172c0,.6,.1,.9,.2,1c.1,.2,.3,.3,.6,.4v.3Zm-49,0v-.3c.3,0,.6,-.1,.7,-.1c.2,-.1,.3,-.2,.3,-.3c.1,-.2,.1,-.4,.1,-.9v-5.3h-1.1V166h1.1v-.9c0,-.8,.3,-1.5,.8,-2c.6,-.5,1.4,-.8,2.4,-.8c.7,0,1.2,.1,1.5,.4c.3,.2,.5,.5,.5,.8c0,.3,-.1,.5,-.3,.7c-.2,.1,-.5,.2,-.8,.2c-.3,0,-.5,0,-.7,-.2c-.2,-.1,-.3,-.3,-.3,-.5c0,0,.1,-.1,.1,-.3c0,-.1,0,-.2,0,-.3c0,-.1,0,-.2,-.1,-.2c-.1,-.1,-.2,-.1,-.3,-.1c-.2,0,-.3,0,-.4,.2c-.1,.1,-.2,.3,-.2,.6l.1,1.4v1h1.1v.8H180v5.3c0,.6,0,.9,.1,1c.2,.2,.5,.3,.9,.3c0,0,.1,0,.1,0v.3Zm-57.4,-8.9c-.4,0,-.7,-.1,-.9,-.3c-.3,-.3,-.4,-.6,-.4,-.9c0,-.4,.1,-.7,.4,-.9c.2,-.3,.5,-.4,.9,-.4c.3,0,.6,.1,.9,.4c.2,.2,.3,.5,.3,.9c0,.3,-.1,.6,-.3,.9c-.3,.2,-.6,.3,-.9,.3Zm14,0c-.4,0,-.7,-.1,-.9,-.3c-.3,-.3,-.4,-.6,-.4,-.9c0,-.4,.1,-.7,.4,-.9c.2,-.3,.5,-.4,.9,-.4c.3,0,.6,.1,.9,.4c.2,.2,.3,.5,.3,.9c0,.3,-.1,.6,-.3,.9c-.3,.2,-.6,.3,-.9,.3Z"/></clipPath>
<clipPath id="c2"><path d="M111.8,199.5c.8,0,1.4,-.1,1.8,-.3c.5,-.2,.7,-.5,.7,-.8c0,-.2,-.1,-.3,-.1,-.4c-.2,-.1,-.4,-.3,-.7,-.3c-.3,-.1,-1.1,-.1,-2.4,-.1c-.5,0,-.9,0,-1.1,.1c-.3,.2,-.5,.4,-.5,.7c0,.3,.2,.5,.5,.8c.3,.2,.9,.3,1.8,.3Zm22.4,-4.3c.3,0,.6,-.2,1,-.5v-2.5c-.7,.3,-1.2,.8,-1.5,1.2c-.2,.3,-.3,.6,-.3,.9c0,.2,.1,.5,.3,.7c.1,.1,.3,.2,.5,.2Zm76.1,0c.3,0,.6,-.2,1,-.5v-2.5c-.7,.3,-1.2,.8,-1.5,1.2c-.2,.3,-.3,.6,-.3,.9c0,.2,.1,.5,.3,.7c.1,.1,.3,.2,.5,.2Zm-57.8,.5c.5,0,.9,-.4,1.4,-1.1v-4.1c-.4,-.7,-.9,-1.1,-1.5,-1.1c-.2,0,-.4,0,-.5,.1c-.2,.2,-.4,.5,-.5,.9c-.1,.4,-.2,1.1,-.2,2c0,1,.1,1.7,.2,2.1c.1,.5,.3,.8,.6,1c.1,.1,.3,.2,.5,.2Zm36.9,0c.5,0,.9,-.4,1.3,-1.1v-4.1c-.4,-.7,-.9,-1.1,-1.4,-1.1c-.2,0,-.4,0,-.5,.1c-.2,.2,-.4,.5,-.5,.9c-.2,.4,-.2,1.1,-.2,2c0,1,0,1.7,.2,2.1c.1,.5,.3,.8,.6,1c.1,.1,.3,.2,.5,.2Zm-6.8,-3.9c0,-.9,0,-1.5,-.1,-1.8c-.1,-.3,-.3,-.6,-.5,-.8c-.1,-.1,-.2,-.1,-.4,-.1c-.3,0,-.6,.1,-.7,.4c-.4,.5,-.5,1.2,-.5,2v.3Zm-71,1.9c.3,0,.6,-.2,.8,-.5c.2,-.3,.3,-.9,.3,-1.7c0,-1,-.1,-1.7,-.4,-2c-.1,-.3,-.4,-.4,-.7,-.4c-.3,0,-.6,.1,-.8,.4c-.2,.4,-.3,1,-.3,2c0,.8,.1,1.4,.3,1.7c.2,.3,.5,.5,.8,.5Zm-17.8,2.8v-.3c.4,-.1,.6,-.1,.8,-.3c.1,-.2,.2,-.5,.2,-1v-4.5c0,-.6,-.1,-.9,-.2,-1.1c-.1,-.1,-.4,-.2,-.8,-.2v-.3h3.3v6.1c0,.5,0,.9,.2,1c.1,.2,.3,.2,.7,.3v.3Zm100.9,0v-.3c.4,-.1,.6,-.1,.8,-.3c.1,-.2,.1,-.5,.1,-1v-4.5c0,-.6,0,-.9,-.2,-1.1c-.1,-.1,-.3,-.2,-.7,-.2v-.3h3.2v6.1c0,.5,.1,.9,.2,1c.1,.2,.4,.2,.8,.3v.3Zm-96,0v-.3c.4,-.1,.6,-.2,.7,-.4c.1,-.1,.2,-.4,.2,-1v-4.4c0,-.5,-.1,-.9,-.2,-1c-.1,-.2,-.3,-.3,-.7,-.3v-.3h3.2v1c.4,-.5,.7,-.8,1.1,-1c.4,-.2,.8,-.2,1.2,-.2c.5,0,.9,.1,1.2,.4c.3,.2,.6,.6,.7,1c.1,.3,.1,.9,.1,1.8v3c0,.6,.1,.9,.2,1.1c.1,.1,.3,.2,.6,.3v.3h-3.9v-.3c.3,-.1,.5,-.2,.7,-.4c.1,-.1,.1,-.5,.1,-1v-3.4c0,-.7,0,-1.1,-.1,-1.2c0,-.2,-.1,-.3,-.2,-.4c-.1,-.1,-.3,-.1,-.4,-.1c-.5,0,-.9,.3,-1.3,1v4.1c0,.6,0,.9,.1,1.1c.1,.1,.3,.2,.6,.3v.3Zm12.9,3.6c-.7,0,-1.3,-.1,-1.9,-.2c-.5,-.2,-.9,-.3,-1.2,-.6c-.2,-.2,-.3,-.5,-.3,-.7c0,-.3,.1,-.5,.2,-.7c.2,-.2,.6,-.4,1.1,-.5c-.7,-.4,-1.1,-.8,-1.1,-1.5c0,-.3,.2,-.7,.5,-1.1c.3,-.3,.7,-.6,1.3,-.9c-.7,-.3,-1.2,-.6,-1.6,-1.1c-.3,-.4,-.4,-.9,-.4,-1.5c0,-.7,.3,-1.4,.9,-1.9c.6,-.6,1.4,-.8,2.3,-.8c.5,0,1.1,.1,1.6,.3h2.6v.9h-1.5c.3,.2,.5,.5,.6,.7c.1,.3,.2,.6,.2,.9c0,.6,-.2,1.1,-.5,1.5c-.3,.4,-.7,.7,-1.2,.9c-.5,.2,-1,.3,-1.4,.3c0,0,-.4,0,-1,0c-.2,0,-.4,.1,-.6,.2c-.2,.2,-.3,.4,-.3,.6c0,.2,.1,.4,.3,.5c.1,.1,.4,.2,.7,.2h1.4c1.2,0,2,.1,2.4,.4c.6,.3,.9,.8,.9,1.6c0,.4,-.1,.9,-.4,1.2c-.3,.4,-.7,.7,-1.1,.9c-.7,.2,-1.5,.4,-2.5,.4Zm21.1,-3.5c-.5,0,-.8,-.2,-1.1,-.5c-.3,-.3,-.4,-.6,-.4,-1c0,-.6,.2,-1.2,.7,-1.6c.5,-.5,1.6,-1.1,3.3,-1.9v-.8c0,-.5,0,-.9,-.1,-1.1c-.1,-.1,-.2,-.2,-.4,-.4c-.1,-.1,-.3,-.1,-.5,-.1c-.4,0,-.7,.1,-.9,.2c-.2,.1,-.2,.2,-.2,.4c0,.1,0,.2,.2,.4c.2,.2,.3,.4,.3,.7c0,.2,-.1,.5,-.3,.7c-.2,.1,-.5,.2,-.8,.2c-.3,0,-.6,-.1,-.8,-.3c-.3,-.2,-.4,-.4,-.4,-.7c0,-.4,.2,-.8,.5,-1.1c.3,-.4,.7,-.7,1.3,-.9c.5,-.2,1.1,-.2,1.7,-.2c.7,0,1.3,.1,1.7,.4c.5,.3,.7,.7,.9,1c0,.3,.1,.8,.1,1.6v3c0,.3,0,.6,0,.6c.1,.1,.1,.2,.2,.2c0,.1,.1,.1,.1,.1c.2,0,.3,-.1,.5,-.3l.2,.2c-.3,.4,-.5,.7,-.8,.9c-.3,.2,-.7,.3,-1,.3c-.5,0,-.8,-.1,-1.1,-.3c-.2,-.3,-.3,-.6,-.4,-1c-.9,.8,-1.8,1.3,-2.5,1.3Zm48.8,.1c-1.1,0,-2,-.5,-2.6,-1.3c-.5,-.7,-.7,-1.6,-.7,-2.7c0,-1.2,.4,-2.3,1,-3c.7,-.8,1.6,-1.1,2.5,-1.1c.8,0,1.4,.3,2,.9c.6,.6,.9,1.6,.9,2.8h-4.2c.1,1.1,.3,1.9,.8,2.5c.4,.4,.9,.6,1.4,.6c.3,0,.6,-.1,.9,-.2c.3,-.2,.5,-.6,.9,-1l.2,.2c-.4,.8,-.8,1.4,-1.3,1.8c-.6,.3,-1.1,.5,-1.8,.5Zm21.6,0c-1.1,0,-1.9,-.4,-2.5,-1.2c-.6,-.7,-.9,-1.7,-.9,-2.8c0,-1,.3,-1.9,.8,-2.7c.7,-1,1.6,-1.4,2.8,-1.4c.8,0,1.4,.2,1.9,.6c.5,.4,.7,.8,.7,1.3c0,.3,-.1,.5,-.3,.7c-.2,.2,-.4,.3,-.7,.3c-.4,0,-.6,-.1,-.8,-.3c-.2,-.2,-.4,-.6,-.4,-1.1c-.1,-.4,-.1,-.6,-.3,-.8c-.1,-.1,-.2,-.2,-.4,-.2c-.3,0,-.5,.2,-.7,.4c-.3,.5,-.4,1.1,-.4,2c0,.7,.1,1.4,.3,2.1c.3,.6,.6,1.1,1,1.4c.3,.3,.6,.4,1.1,.4c.2,0,.5,-.1,.7,-.2c.3,-.1,.5,-.4,.9,-.7l.2,.2c-.3,.7,-.8,1.2,-1.3,1.5c-.6,.3,-1.1,.5,-1.7,.5Zm5.7,-.1c-.5,0,-.8,-.2,-1.1,-.5c-.3,-.3,-.4,-.6,-.4,-1c0,-.6,.2,-1.2,.7,-1.6c.5,-.5,1.6,-1.1,3.3,-1.9v-.8c0,-.5,0,-.9,-.1,-1.1c-.1,-.1,-.2,-.2,-.4,-.4c-.1,-.1,-.3,-.1,-.5,-.1c-.4,0,-.7,.1,-.9,.2c-.2,.1,-.2,.2,-.2,.4c0,.1,0,.2,.2,.4c.2,.2,.3,.4,.3,.7c0,.2,-.1,.5,-.3,.7c-.2,.1,-.5,.2,-.8,.2c-.3,0,-.6,-.1,-.8,-.3c-.3,-.2,-.4,-.4,-.4,-.7c0,-.4,.2,-.8,.5,-1.1c.3,-.4,.7,-.7,1.3,-.9c.5,-.2,1.1,-.2,1.7,-.2c.7,0,1.3,.1,1.7,.4c.5,.3,.7,.7,.9,1c.1,.3,.1,.8,.1,1.6v3c0,.3,0,.6,0,.6c.1,.1,.1,.2,.2,.2c0,.1,.1,.1,.1,.1c.2,0,.3,-.1,.5,-.3l.2,.2c-.2,.4,-.5,.7,-.8,.9c-.3,.2,-.7,.3,-1,.3c-.5,0,-.8,-.1,-1,-.3c-.3,-.3,-.4,-.6,-.5,-1c-.9,.8,-1.8,1.3,-2.5,1.3Zm-128,-.1v-.3h.4c.3,0,.6,-.1,.8,-.2c.1,-.1,.2,-.2,.3,-.4c0,-.1,.1,-.5,.1,-1v-7.4c0,-.5,-.1,-.9,-.1,-1c-.1,-.2,-.2,-.3,-.4,-.4c-.2,-.1,-.4,-.2,-.7,-.2h-.4v-.3h5.5v.3c-.3,0,-.6,.1,-.8,.2c-.2,.1,-.3,.2,-.4,.4c0,.1,-.1,.5,-.1,1v3.5l4.2,-3.3c.6,-.5,.8,-.9,.8,-1.2c0,-.2,-.1,-.3,-.3,-.5c-.1,0,-.4,-.1,-.9,-.1v-.3h4.3v.3c-.4,.1,-.7,.1,-.9,.2c-.2,.2,-.7,.5,-1.5,1.2l-3.3,2.6l3.9,4.9c.6,.7,1.1,1.1,1.5,1.4c.3,.2,.6,.3,.9,.3v.3H87.9v-.3c.4,-.1,.6,-.1,.7,-.2c.1,-.1,.2,-.2,.2,-.3c0,-.3,-.3,-.7,-.8,-1.3l-2.5,-3.2l-.5,.3v3.1c0,.5,.1,.9,.1,1c.1,.2,.2,.3,.4,.4c.2,.1,.5,.2,.9,.2v.3Zm39.7,0v-.3h.4c.3,0,.6,-.1,.8,-.2c.1,-.1,.2,-.2,.3,-.4c0,-.1,.1,-.5,.1,-1v-7.4c0,-.5,-.1,-.9,-.1,-1c-.1,-.2,-.2,-.3,-.4,-.4c-.2,-.1,-.4,-.2,-.7,-.2h-.4v-.3h9.4v3.2h-.3c-.1,-.7,-.3,-1.3,-.6,-1.6c-.3,-.4,-.8,-.7,-1.4,-.8c-.3,-.1,-.9,-.1,-1.8,-.1h-1.1v4.5h.4c.5,0,.9,0,1.2,-.2c.3,-.1,.5,-.4,.8,-.7c.2,-.4,.3,-.9,.4,-1.5h.3v5.6h-.3c-.1,-1,-.4,-1.7,-.9,-2c-.4,-.4,-.9,-.6,-1.5,-.6h-.4v3.5c0,.5,.1,.9,.1,1c.1,.2,.2,.3,.4,.4c.2,.1,.4,.2,.8,.2h.3v.3Zm18.9,0v-.3c.3,-.1,.5,-.2,.7,-.4c.1,-.1,.1,-.4,.1,-1V187c0,-.6,0,-.9,-.2,-1.1c-.1,-.1,-.3,-.2,-.6,-.3v-.3h3.1v4.5c.4,-.5,.8,-.8,1.2,-1c.3,-.2,.7,-.2,1.1,-.2c.4,0,.8,.1,1.2,.4c.3,.2,.6,.6,.7,.9c.1,.4,.1,1,.1,1.9v3c0,.6,.1,.9,.2,1.1c.1,.1,.3,.2,.7,.3v.3h-3.9v-.3c.2,-.1,.5,-.2,.6,-.4c.1,-.1,.1,-.5,.1,-1v-3.4c0,-.7,0,-1.1,0,-1.2c-.1,-.2,-.2,-.3,-.3,-.4c-.1,-.1,-.2,-.1,-.4,-.1c-.2,0,-.4,0,-.6,.2c-.2,.1,-.5,.4,-.7,.8v4.1c0,.5,0,.9,.1,1c.1,.2,.3,.3,.7,.4v.3Zm12.4,.2c-1,0,-1.8,-.5,-2.3,-1.3c-.5,-.7,-.7,-1.6,-.7,-2.6c0,-.9,.1,-1.6,.4,-2.3c.3,-.6,.7,-1.1,1.2,-1.4c.5,-.4,1,-.5,1.6,-.5c.3,0,.7,0,1,.2c.2,.1,.5,.4,.9,.7v-2.3c0,-.6,-.1,-.9,-.1,-1.1c-.1,-.1,-.2,-.2,-.3,-.3c-.1,-.1,-.4,-.1,-.7,-.1v-.4h3.4v8.9c0,.6,0,.9,0,1c.1,.2,.1,.3,.3,.4c.1,.1,.3,.2,.6,.2v.3l-3.2,.6v-1.2c-.4,.4,-.8,.8,-1.1,.9c-.3,.2,-.6,.3,-1,.3Zm10.2,-.2v-.3h.2c.2,0,.4,-.1,.6,-.2c.3,-.1,.4,-.2,.5,-.3c.1,-.2,.2,-.3,.3,-.6c0,-.1,0,-.3,0,-.8v-7.1c0,-.5,0,-.9,-.1,-1c-.1,-.2,-.2,-.3,-.4,-.4c-.1,-.1,-.4,-.2,-.7,-.2H162v-.3h4.6l3.1,7.4l3,-7.4h4.6v.3h-.4c-.3,0,-.6,.1,-.8,.2c-.1,.1,-.2,.2,-.3,.4c-.1,.1,-.1,.5,-.1,1v7.4c0,.5,0,.9,.1,1c0,.2,.2,.3,.4,.4c.1,.1,.4,.2,.7,.2h.4v.3h-5.8v-.3h.3c.3,0,.6,-.1,.8,-.2c.1,-.1,.2,-.2,.3,-.4c.1,-.1,.1,-.5,.1,-1v-8.3l-4.2,10.2h-.2l-4.4,-10.1v7.8c0,.6,0,.9,.1,1c0,.3,.2,.5,.4,.7c.3,.2,.6,.3,1.1,.3v.3Zm26.7,.2c-1,0,-1.8,-.5,-2.3,-1.3c-.5,-.7,-.7,-1.6,-.7,-2.6c0,-.9,.1,-1.6,.4,-2.3c.3,-.6,.7,-1.1,1.2,-1.4c.5,-.4,1,-.5,1.6,-.5c.3,0,.7,0,.9,.2c.3,.1,.6,.4,.9,.7v-2.3c0,-.6,0,-.9,0,-1.1c-.1,-.1,-.2,-.2,-.3,-.3c-.2,-.1,-.4,-.1,-.8,-.1v-.4H193v8.9c0,.6,.1,.9,.1,1c0,.2,.1,.3,.2,.4c.2,.1,.4,.2,.7,.2v.3l-3.3,.6v-1.2c-.3,.4,-.7,.8,-1,.9c-.3,.2,-.6,.3,-1,.3Zm26.6,-.2v-.3c.3,-.1,.5,-.1,.7,-.3c.1,-.2,.2,-.5,.2,-1v-8c0,-.5,-.1,-.9,-.2,-1c-.1,-.2,-.4,-.2,-.7,-.3v-.3h3.2v9.6c0,.5,0,.9,.2,1c.1,.2,.3,.2,.7,.3v.3ZM95.9,187.6c-.3,0,-.6,-.1,-.9,-.4c-.2,-.2,-.3,-.5,-.3,-.9c0,-.3,.1,-.6,.3,-.9c.3,-.2,.6,-.3,.9,-.3c.4,0,.7,.1,.9,.3c.3,.3,.4,.6,.4,.9c0,.4,-.1,.7,-.4,.9c-.2,.3,-.5,.4,-.9,.4Zm100.9,0c-.4,0,-.7,-.1,-.9,-.4c-.3,-.2,-.4,-.5,-.4,-.9c0,-.3,.1,-.6,.4,-.9c.2,-.2,.5,-.3,.9,-.3c.3,0,.6,.1,.9,.3c.2,.3,.4,.6,.4,.9c0,.4,-.2,.7,-.4,.9c-.3,.3,-.6,.4,-.9,.4Z"/></clipPath>
<clipPath id="c3"><path d="M359.8,169.3l-1.6,-.9l.5,-8.3l.4,-8l-.4,-.4c-4.8,2.5,-4.2,6,-4.2,6c-1.9,-2.6,1.1,-6.5,1.1,-6.5c-3,.8,-4.6,2.1,-5.5,3.2c-.8,1,-1,1.8,-1,1.8c-.2,-1,0,-2,.5,-2.9c1.3,-2.3,4.3,-4,4.3,-4c-2.2,.4,-3.8,1,-5,1.7c-2.9,1.6,-3.3,3.5,-3.3,3.5c-.2,-2.4,1.2,-4.2,2.8,-5.5c2.1,-1.6,4.7,-2.4,4.7,-2.4c-.3,0,-.7,-.1,-1,-.1c-3.9,0,-5.9,2.5,-5.9,2.5c2.1,-4.4,7.1,-4.9,9.5,-4.9c.8,0,1.2,0,1.2,0c-.5,-.4,-1.6,-.5,-2.7,-.5c-1.3,0,-2.5,.2,-2.5,.2c1.3,-.9,2.7,-1.1,4,-1.1c1.8,0,3.3,.5,3.3,.5c.1,-1.1,.8,-2.2,.8,-2.2c0,0,0,.1,.1,.1c.2,.3,.6,1.2,.7,2.1c0,0,1.5,-.5,3.3,-.5c1.3,0,2.7,.2,4,1.1c0,0,-1.2,-.2,-2.5,-.2c-1.1,0,-2.1,.1,-2.7,.5c0,0,.5,0,1.2,0c2.4,0,7.4,.5,9.5,4.9c0,0,-2,-2.5,-5.9,-2.5c-.3,0,-.6,.1,-1,.1c0,0,2.6,.8,4.7,2.4c1.7,1.3,3,3.1,2.8,5.5c0,0,-.4,-1.9,-3.2,-3.5c-1.2,-.7,-2.8,-1.3,-5.1,-1.7c0,0,3.1,1.8,4.4,4.2c.4,.8,.6,1.7,.4,2.7c0,0,-.2,-.7,-.9,-1.7c-.9,-1.1,-2.5,-2.4,-5.6,-3.3c0,0,3,3.9,1.1,6.5c0,0,.6,-3.5,-4.2,-6l-.4,.4l.4,8l.5,8.3l-1.5,.9h-.1Z"/></clipPath>
<clipPath id="c4"><path d="M359.9,172.9v0c0,-.1,.1,-.1,.1,-.2c0,.1,-.1,.1,-.1,.2Zm.9,-.5v0q.1,0,.1,0h-.1Zm3.6,3c-1.4,-.8,-2.7,-1.5,-4,-2.2c-.2,-.1,-.4,-.2,-.6,-.3c-3.7,-2,-6.6,-3.4,-9.1,-4.3c.3,-.2,1.4,-.2,1.6,-.4c.6,.3,1.3,.5,2,.8c.7,.3,1.4,.6,2.2,.9c.7,.4,1.5,.7,2.3,1.1c.8,.4,1.6,.8,2.4,1.2c-.1,0,0,0,-.1,-.1c-.8,-.5,-.2,-.4,-1.3,-1c.8,.4,1.6,.9,2.3,1.3c.3,.2,.5,.3,.8,.5c.6,.3,1.1,.7,1.7,1c.3,.2,.6,.4,.9,.5v.1c-.1,.1,-.1,.2,-.2,.3c-.2,.1,-.4,.3,-.5,.5c-.1,0,-.1,.1,-.1,.1Z"/></clipPath>
<clipPath id="c5"><path d="M361.2,172.3v-.1h-.1v-.1h-.2V172h.2v.1h.2v.2Zm-.5,-.3v0h-.2v-.1h.2v.1h.2Zm-.4,-.1v-.1h-.1v-.1h.1v.1h.2v.1Zm-.3,-.2v-.1h.2v.1Zm-.2,-.1v-.1h.2v.1Zm-.1,-.1v0h-.2v-.1h-.2v-.1h.2v.1h.2v.1h.1Zm-.5,-.2v-.1H359v-.1h.2v.1h.1v.1Zm-.4,-.2V171h.2v.1Zm-.1,-.1v-.1h.1v.1Zm-.2,-.1v0h-.2v-.1h.3v.1h.1Zm-.4,-.1v-.1H358v-.1h.1v.1h.2v.1Zm-.3,-.2v-.1h-.2v-.1h-.2h.4v.1h.2v.1Zm-.6,-.2v-.1h.2v.1Zm-.2,-.1v-.1h.2v.1Zm-.1,-.1v-.1h-.3V170h.3v.1h.1v.1Zm-.4,-.2v-.2v.1h.1v.1Z"/></clipPath>
<clipPath id="c6"><path d="M360.2,171.6v0c-.1,0,-.2,-.1,-.3,-.1c-.4,-.2,-.8,-.4,-1.2,-.6c.5,.2,1,.5,1.5,.7Zm-8,-3.4c-.1,-.1,0,-.1,.1,-.1c.1,0,.2,0,.3,0c.1,0,.2,0,.3,0q.1,0,.1,0h-.1c-.1,0,-.2,0,-.3,0c-.1,0,-.2,0,-.3,0c-.1,0,-.2,0,-.1,.1Zm-12.5,-.9v0Zm5.6,0c.2,-.1,.7,-.2,.7,-.3c0,0,-.2,.1,-.4,.1c-.1,.1,-.2,.1,-.3,.2Zm-5.3,-.1v0c1.4,-.2,2.8,-.3,4.2,-.3c.3,0,.6,0,.9,0c-.3,0,-.6,0,-1,0c-.4,0,-.8,0,-1.2,0c-.9,.1,-1.9,.2,-2.9,.3Zm21.2,5v0c-.8,-.4,-1.7,-.8,-2.4,-1.2c-.8,-.4,-1.6,-.8,-2.3,-1.1c-.8,-.3,-1.5,-.6,-2.2,-.9c-.7,-.3,-1.4,-.5,-2,-.8c-.2,.2,-1.3,.2,-1.6,.4c0,0,-.1,0,-.1,0c-2,-.7,-3.7,-1.1,-5.4,-1.3c-.9,-.1,-1.7,-.1,-2.6,-.1h-.1c-.9,0,-1.7,0,-2.7,.1h-.1c1.2,-.3,2.3,-.4,3.3,-.5c-.5,0,-1.1,.1,-1.6,.2c-.6,0,-1.1,.1,-1.7,.3c.6,-.2,1.2,-.3,1.7,-.4c.6,-.1,1.1,-.2,1.7,-.3c.6,0,1.2,-.1,1.8,-.1c.5,0,1.1,.1,1.6,.1c.5,0,1.1,.1,1.6,.2c.1,0,.2,0,.3,0c.5,.1,.9,.2,1.3,.3c.2,0,.5,.1,.7,.1c0,0,.1,.1,.1,.1c.8,.2,1.6,.4,2.4,.7c.3,.1,.6,.2,.9,.3c.2,.1,.5,.2,.7,.3c.2,0,.5,.1,.7,.2c.4,.2,.9,.4,1.3,.6c.6,.3,1.1,.5,1.7,.8c.3,.2,.5,.3,.8,.5c.3,.1,.5,.2,.8,.4c1.1,.6,.5,.5,1.3,1c.1,.1,0,.1,.1,.1Z"/></clipPath>
<clipPath id="c7"><path d="M355,175.4c-.3,-.3,-.6,-.6,-.9,-.9c.1,-.1,.2,-.2,.3,-.2c.1,-.1,.2,-.1,.2,-.1c.9,-.6,1.9,-1.2,2.9,-1.8c.8,-.4,1.5,-.9,2.3,-1.3c-1,.6,-.4,.5,-1.3,1c-.1,.1,0,.1,0,.1c.8,-.4,1.6,-.8,2.4,-1.2c.8,-.4,1.5,-.7,2.3,-1.1c.7,-.3,1.4,-.6,2.1,-.9c.7,-.3,1.4,-.5,2.1,-.8c.2,.2,1.3,.2,1.5,.4c-2.5,.9,-5.4,2.3,-9.1,4.3c-1.4,.7,-2.8,1.5,-4.4,2.4c-.1,0,-.2,.1,-.2,.1Z"/></clipPath>
<clipPath id="c8"><path d="M358.4,172.3v-.2h.2v.1h-.1v.1Zm.2,-.2V172h.2v.1Zm.2,-.1v0h.1Zm.1,0v-.1h.2v.1Zm.2,-.1v-.1h.2v.1Zm.2,-.1v-.1h.2v.1Zm.2,-.1v-.1h.1v.1Zm.1,-.1v-.1h.2v.1Zm.2,-.1v0h.2Zm.2,0v-.1h.1v.1Zm.1,-.1v-.1h.2v.1Zm.2,-.1v-.1h.2v.1Zm.2,-.1v-.1h.1v.1Zm.1,-.1V171h.2v.1Zm.2,-.1v-.1h.2v.1Zm.2,-.1v0h.1Zm.1,0v-.1h.2v.1Zm.2,-.1v-.1h.2v.1Zm.2,-.1v-.1h.2v.1Zm.2,-.1v-.1h.2v.1Zm.2,-.1v-.1h.2v.1Zm.2,-.1v0h.1Zm.1,0v-.1h.2v.1Zm.2,-.1v-.1h.2v.1Zm.2,-.1v-.1h.2v.1Zm.2,-.1V170h.2v.1Zm.2,-.1v-.1h.1v-.1h.2v.1h-.1v.1Z"/></clipPath>
<clipPath id="c9"><path d="M358.5,172.1c.1,0,.2,-.1,.4,-.2c-.2,.1,-.3,.2,-.4,.2Zm4.8,-2.4v0c0,0,-.1,0,-.1,0q-.1,0,-.1,0c.1,0,.2,0,.2,0Zm1.6,-.8q.1,0,.2,0q.1,0,.2,0q-.1,0,-.2,0q-.1,0,-.2,0c-.1,0,-.2,0,-.2,-.1c0,.1,.1,.1,.2,.1Zm.5,0c.7,-.2,1.4,-.5,2.1,-.7c-.4,.1,-.7,.2,-1.1,.3c-.3,.2,-.7,.3,-1,.4Zm2.1,-.7c0,-.1,-.1,-.1,-.1,-.1c-.1,0,-.3,0,-.4,0q-.1,0,-.2,0q-.2,0,-.1,-.1q-.1,.1,.1,.1c.1,0,.2,0,.3,0c.1,0,.2,0,.3,0c0,0,.1,0,.1,.1Zm6.9,-.9c-.1,-.1,-.3,-.1,-.4,-.2c-.2,0,-.3,-.1,-.4,-.1c.1,.1,.6,.2,.8,.3ZM378,167v0c-.4,0,-.9,0,-1.3,-.1c-.4,0,-.8,0,-1.2,0c-.6,0,-1.3,0,-1.9,.1c.6,-.1,1.3,-.1,1.9,-.1c.8,0,1.7,.1,2.5,.1Zm-4.6,-.2c-.1,0,-.2,0,-.3,-.1c.1,.1,.2,.1,.3,.1Zm-14.9,5.4c0,0,-.1,0,0,-.1c.9,-.5,.3,-.4,1.3,-1c.3,-.2,.6,-.3,.8,-.4c.3,-.2,.6,-.3,.9,-.5c.5,-.3,1.1,-.5,1.7,-.8c.5,-.3,1.1,-.5,1.7,-.8c.3,-.1,.7,-.2,1,-.3c.3,-.1,.6,-.2,.9,-.3c1,-.4,2.1,-.7,3.1,-.9c1.1,-.3,2.2,-.4,3.3,-.5c.5,0,1,-.1,1.5,-.1c.6,0,1.2,.1,1.8,.1c.6,.1,1.2,.2,1.7,.3c.5,.1,1.1,.2,1.6,.3c-.1,0,-.2,0,-.2,0c0,0,.1,0,.2,0c0,0,0,.1,.1,.1c-.8,-.1,-1.6,-.1,-2.4,-.1c-.1,0,-.3,0,-.4,0c-.9,0,-1.8,0,-2.7,.1c-1.7,.2,-3.5,.6,-5.5,1.3c-.2,-.2,-1.3,-.2,-1.5,-.4c-.7,.3,-1.4,.5,-2.1,.8c-.6,.3,-1.3,.5,-2,.9c0,0,-.1,0,-.1,0c-.8,.3,-1.5,.7,-2.3,1.1c-.8,.4,-1.6,.8,-2.4,1.2Z"/></clipPath>
<clipPath id="ca"><path d="M366.7,190.5c-.4,0,-.7,-.1,-1,-.1c-1,-.3,-1.8,-.9,-2.2,-1.6c-.3,-.4,-.4,-.9,-.4,-1.4c0,-.3,.1,-.6,.2,-.9c.2,-.7,.8,-1.3,1.5,-1.7c.5,-.3,1.2,-.5,1.9,-.5c.3,0,.6,.1,.9,.1c.8,.2,1.5,.7,2,1.3c.1,.1,.2,.2,.3,.4c.2,.4,.3,.8,.3,1.3c0,.3,0,.6,-.1,.8c-.2,.8,-.8,1.4,-1.5,1.8c-.2,.1,-.3,.2,-.4,.2c-.5,.2,-1,.3,-1.5,.3Z"/></clipPath>
<clipPath id="cb"><path d="M356.3,190.8c-.4,0,-.8,-.1,-1.2,-.1c-1.1,-.3,-1.9,-1,-2.4,-1.8c-.3,-.5,-.4,-1,-.4,-1.5c0,-.4,0,-.7,.1,-1c.3,-.8,.9,-1.5,1.7,-1.9c.7,-.4,1.4,-.6,2.2,-.6c.3,0,.7,.1,1,.2c.9,.2,1.7,.7,2.2,1.4c.1,.1,.2,.2,.3,.4c.3,.4,.4,.9,.4,1.5c0,.3,0,.6,-.1,.9c-.3,.8,-.9,1.5,-1.7,2c-.2,.1,-.3,.1,-.5,.2c-.5,.2,-1.1,.3,-1.6,.3Z"/></clipPath>
<clipPath id="cc"><path d="M345.3,188.1c-.4,0,-.8,0,-1.2,-.1c-1.2,-.4,-2.2,-1.1,-2.7,-2c-.3,-.5,-.4,-.9,-.4,-1.5v-.4c0,-.3,0,-.6,.1,-.8c.3,-1,1,-1.7,1.9,-2.2c.7,-.3,1.5,-.6,2.3,-.6c.4,0,.8,.1,1.2,.2c1,.2,1.9,.7,2.5,1.5c.1,.2,.2,.3,.3,.5c.3,.5,.4,1,.4,1.6c0,.4,0,.7,-.1,1c-.4,1,-1.1,1.7,-1.9,2.2c-.2,.1,-.4,.2,-.6,.3c-.5,.2,-1.2,.3,-1.8,.3Z"/></clipPath>
<clipPath id="cd"><path d="M336.7,182c-.5,0,-.9,0,-1.3,-.1c-1.3,-.4,-2.3,-1.1,-2.8,-2.1c-.3,-.5,-.5,-1.1,-.5,-1.7c0,-.4,.1,-.7,.2,-1.1c.3,-.9,1.1,-1.7,2,-2.2c.7,-.4,1.5,-.6,2.4,-.6c.4,0,.8,0,1.2,.1c1,.3,1.9,.8,2.5,1.6c.1,.2,.3,.3,.3,.5c.3,.5,.5,1.1,.5,1.7c0,.4,0,.7,-.2,1.1c-.3,.9,-1,1.7,-1.9,2.2c-.2,.1,-.4,.2,-.6,.3c-.6,.2,-1.2,.3,-1.8,.3Z"/></clipPath>
<clipPath id="ce"><path d="M331.2,173.4c-.4,0,-.8,0,-1.2,-.1c-1.2,-.3,-2.1,-1,-2.6,-1.9c-.3,-.5,-.4,-1.1,-.4,-1.7c0,-.3,0,-.6,.1,-1c.3,-.9,1,-1.6,1.8,-2.1c.6,-.2,1.2,-.4,1.8,-.5h1c.2,0,.4,.1,.6,.1c1,.2,1.9,.7,2.4,1.5c.1,.1,.2,.3,.3,.4c.3,.5,.5,1.1,.5,1.6c0,.4,-.1,.7,-.2,1c-.3,.9,-1,1.7,-1.8,2.2c-.2,0,-.4,.1,-.5,.2c-.6,.2,-1.2,.3,-1.8,.3Z"/></clipPath>
<clipPath id="cf"><path d="M328.8,164.4c-.2,0,-.4,0,-.6,-.1c-1.1,-.3,-1.9,-.9,-2.3,-1.7c-.3,-.5,-.4,-1,-.4,-1.5c0,-.3,0,-.6,.1,-.9c.3,-.8,.9,-1.5,1.7,-1.9c.6,-.3,1.3,-.5,2,-.5c.3,0,.7,.1,1,.1c.9,.2,1.7,.7,2.2,1.4c.1,.1,.2,.2,.3,.4c.2,.4,.3,.9,.3,1.4c0,.3,0,.6,-.1,.9c-.3,.8,-.9,1.5,-1.7,1.9c-.1,.1,-.3,.2,-.4,.2c-.4,.2,-.7,.3,-1.1,.3Z"/></clipPath>
<clipPath id="cg"><path d="M330.6,156.3c-.3,0,-.6,0,-.9,-.1c-1,-.2,-1.7,-.8,-2.1,-1.5c-.2,-.4,-.3,-.8,-.3,-1.3c0,-.2,0,-.5,.1,-.8c.2,-.7,.7,-1.2,1.4,-1.6c.5,-.3,1.1,-.4,1.8,-.4c.3,0,.6,0,.9,.1c.7,.1,1.4,.5,1.9,1.1c0,.1,.1,.3,.2,.4c.2,.4,.3,.8,.3,1.2c0,.3,0,.6,-.1,.8c-.2,.7,-.8,1.3,-1.4,1.7c-.2,0,-.3,.1,-.4,.2c-.5,.1,-1,.2,-1.4,.2Z"/></clipPath>
<clipPath id="ch"><path d="M333.7,149.5c-.3,0,-.5,0,-.8,-.1c-.7,-.2,-1.3,-.6,-1.7,-1.2c-.1,-.3,-.2,-.6,-.2,-1c0,-.2,0,-.4,.1,-.6c.2,-.6,.6,-1,1.1,-1.3c.4,-.2,.7,-.3,1.1,-.4h.8c.1,.1,.2,.1,.3,.1c.6,.2,1.2,.5,1.6,.9c0,.1,.1,.2,.2,.3c.1,.3,.2,.7,.2,1c0,.2,0,.4,-.1,.6c-.2,.6,-.6,1,-1.1,1.3c-.2,.1,-.3,.1,-.4,.2c-.3,.1,-.7,.2,-1.1,.2Z"/></clipPath>
<clipPath id="ci"><path d="M337.5,144.5c-.2,0,-.3,0,-.5,-.1c-.6,-.1,-1,-.5,-1.3,-.9c-.1,-.2,-.2,-.5,-.2,-.7c0,-.2,0,-.3,.1,-.5c.1,-.4,.4,-.7,.9,-.9c.1,-.1,.3,-.2,.6,-.3h.9c0,0,.1,0,.1,.1c.4,.1,.8,.3,1.1,.6c.1,.1,.1,.2,.2,.2c.1,.3,.2,.5,.2,.8c0,.1,0,.3,-.1,.4c-.1,.5,-.5,.8,-.9,1q-.1,.1,-.2,.1c-.3,.1,-.6,.2,-.9,.2Z"/></clipPath>
<clipPath id="cj"><path d="M341.2,141.1c-.2,0,-.3,0,-.5,0c-.4,-.1,-.8,-.4,-.9,-.7c-.1,-.2,-.2,-.4,-.2,-.6c0,-.1,0,-.2,.1,-.4c.1,-.3,.3,-.5,.6,-.7c.3,-.1,.6,-.2,.9,-.2c.1,0,.3,0,.4,0c.3,.1,.7,.3,.9,.6c0,0,.1,.1,.1,.1q0,.1,.1,.2v.9c-.2,.2,-.4,.5,-.7,.6c0,.1,-.1,.1,-.2,.1c-.2,.1,-.4,.1,-.6,.1Z"/></clipPath>
<clipPath id="ck"><path d="M344.8,138.7c-.2,0,-.3,-.1,-.4,-.1c-.4,-.1,-.6,-.3,-.8,-.5c0,-.1,-.1,-.2,-.1,-.3v-.5c.1,-.3,.3,-.5,.6,-.6c.2,-.1,.4,-.2,.7,-.2c.1,0,.2,0,.3,0c.3,.1,.6,.3,.7,.5c.1,0,.1,.1,.1,.1c.1,.1,.1,.2,.1,.3v.5c-.1,.2,-.3,.5,-.5,.6c-.1,0,-.1,.1,-.2,.1c-.2,0,-.3,.1,-.5,.1Z"/></clipPath>
<clipPath id="cl"><path d="M347.7,137.2c-.1,0,-.2,0,-.3,0c-.3,-.1,-.5,-.3,-.6,-.5c-.1,-.1,-.1,-.2,-.1,-.4c0,0,0,-.1,0,-.2c.1,-.2,.2,-.4,.4,-.5c.2,-.1,.4,-.1,.6,-.1c.1,0,.2,0,.3,0c.2,0,.4,.2,.6,.3l.1,.2c0,.1,.1,.2,.1,.3c0,.1,0,.2,-.1,.3c0,.2,-.2,.4,-.4,.5q-.1,0,-.1,0c-.2,.1,-.3,.1,-.5,.1Z"/></clipPath>
<clipPath id="cm"><path d="M350.4,136q-.1,0,-.2,0c-.2,-.1,-.4,-.2,-.5,-.4c-.1,0,-.1,-.2,-.1,-.3c0,0,0,-.1,0,-.1c.1,-.2,.2,-.3,.4,-.4c.1,-.1,.3,-.1,.4,-.1c.1,0,.2,0,.2,0c.2,0,.4,.1,.5,.3v.7c0,.1,-.1,.2,-.3,.2l-.1,.1c-.1,0,-.2,0,-.3,0Z"/></clipPath>
<clipPath id="cn"><path d="M352.6,135.2c-.2,0,-.3,-.1,-.4,-.3c0,0,0,-.1,0,-.2q0,-.1,0,-.2c.1,-.1,.2,-.2,.3,-.3c.1,0,.2,-.1,.4,-.1c0,0,.1,0,.1,0c.2,.1,.3,.2,.4,.3h.1c0,.1,.1,.2,.1,.3c0,0,-.1,.1,-.1,.1c0,.2,-.1,.3,-.3,.4Z"/></clipPath>
<clipPath id="co"><path d="M354.8,134.8q-.1,0,-.2,0c-.1,-.1,-.3,-.2,-.3,-.3c-.1,0,-.1,-.1,-.1,-.2c0,0,0,-.1,0,-.1c.1,-.1,.2,-.2,.3,-.3c.1,0,.2,0,.3,0c0,0,.1,0,.1,0c.1,0,.2,.1,.3,.2h.1q0,.1,0,.2q0,.1,0,.1c0,.2,-.1,.2,-.2,.3H355c-.1,.1,-.2,.1,-.2,.1Z"/></clipPath>
<clipPath id="cp"><path d="M356.4,134.4q-.1,0,-.1,0c-.2,0,-.3,-.1,-.3,-.2c-.1,0,-.1,-.1,-.1,-.1q0,-.1,0,-.1c.1,-.1,.2,-.2,.2,-.3c.1,0,.2,0,.3,0c0,0,.1,0,.1,0c.1,0,.2,.1,.3,.2c0,0,0,.1,0,.2v.1c0,.1,-.1,.1,-.2,.2q-.1,0,-.2,0Z"/></clipPath>
<clipPath id="cq"><path d="M357.7,134.4c-.1,-.1,-.2,-.1,-.2,-.2v-.3c0,0,.1,-.1,.1,-.1c.1,-.1,.2,-.1,.2,-.1q.1,0,.1,0c.1,.1,.2,.1,.3,.2q0,.1,0,.2v.1c0,0,-.1,.1,-.2,.1v.1Z"/></clipPath>
<clipPath id="cr"><path d="M359,134.4q-.1,0,-.1,-.1c-.1,0,-.2,0,-.2,-.1c0,0,0,-.1,0,-.1c0,0,0,-.1,0,-.1q0,-.1,.1,-.1q.1,-.1,.2,-.1h.1c0,0,.1,.1,.1,.1l.1,.1c0,0,0,.1,0,.1v.1c0,0,-.1,.1,-.2,.1c0,0,-.1,.1,-.1,.1Z"/></clipPath>
<clipPath id="cs"><path d="M375.2,187.6c-.3,0,-.5,-.1,-.8,-.1c-.8,-.2,-1.4,-.7,-1.7,-1.3c-.2,-.3,-.3,-.7,-.3,-1.1c0,-.2,0,-.4,.1,-.6c.2,-.6,.6,-1.1,1.2,-1.4c.4,-.3,1,-.4,1.5,-.4c.2,0,.5,0,.8,.1c.6,.2,1.1,.5,1.5,1c.1,.1,.2,.2,.2,.3c.2,.3,.3,.7,.3,1c0,.2,0,.5,-.1,.7c-.2,.6,-.6,1.1,-1.2,1.4c-.1,0,-.2,.1,-.3,.1c-.4,.2,-.8,.3,-1.2,.3Z"/></clipPath>
<clipPath id="ct"><path d="M381.4,183.8c-.2,0,-.4,-.1,-.6,-.1c-.7,-.2,-1.1,-.6,-1.4,-1c-.2,-.3,-.2,-.6,-.2,-.9c0,-.2,0,-.3,.1,-.5c.1,-.5,.5,-.9,.9,-1.1c.4,-.2,.8,-.3,1.2,-.3c.2,0,.4,0,.6,0c.5,.2,1,.4,1.3,.8c0,.1,.1,.2,.1,.3c.2,.2,.3,.5,.3,.8c0,.2,-.1,.4,-.1,.5c-.2,.5,-.5,.9,-1,1.2c-.1,0,-.2,0,-.3,.1c-.3,.1,-.6,.2,-.9,.2Z"/></clipPath>
<clipPath id="cu"><path d="M385.9,179.8c-.2,0,-.3,0,-.5,-.1c-.5,-.1,-.9,-.4,-1.1,-.7c-.1,-.2,-.2,-.5,-.2,-.7c0,-.2,.1,-.3,.1,-.4c.1,-.4,.4,-.7,.8,-.9c.2,-.2,.6,-.2,.9,-.2c.2,0,.3,0,.5,0c.4,.1,.7,.3,1,.6c0,.1,.1,.2,.1,.2c.1,.2,.2,.5,.2,.7c0,.1,-.1,.3,-.1,.4c-.1,.4,-.4,.7,-.8,.9c0,0,-.1,0,-.2,.1c-.2,.1,-.5,.1,-.7,.1Z"/></clipPath>
<clipPath id="cv"><path d="M388.7,175.8c-.1,0,-.2,0,-.3,0c-.4,-.1,-.7,-.3,-.9,-.6c0,-.2,-.1,-.3,-.1,-.5c0,-.1,0,-.2,.1,-.3c.1,-.3,.3,-.6,.5,-.7c.2,-.1,.5,-.2,.7,-.2c.2,0,.3,0,.4,.1c.3,0,.6,.2,.8,.4q0,.1,0,.2c.1,.1,.2,.3,.2,.5c0,.1,0,.2,-.1,.3c-.1,.3,-.3,.5,-.5,.7q-.1,0,-.2,0c-.2,.1,-.4,.1,-.6,.1Z"/></clipPath>
<clipPath id="cw"><path d="M390.6,172.4q-.1,0,-.2,-.1c-.3,0,-.5,-.2,-.6,-.4c-.1,-.1,-.1,-.2,-.1,-.4c0,0,0,-.1,0,-.2c.1,-.2,.2,-.4,.4,-.5c.2,-.1,.3,-.1,.5,-.1c.1,0,.2,0,.3,0c.2,.1,.4,.2,.5,.4l.1,.1c.1,.1,.1,.2,.1,.3c0,.1,0,.2,0,.3c-.1,.2,-.3,.3,-.4,.4q-.1,.1,-.2,.1c-.1,0,-.2,.1,-.4,.1Z"/></clipPath>
<clipPath id="cx"><path d="M391.6,169.9c-.2,-.1,-.4,-.2,-.4,-.3c-.1,-.1,-.1,-.2,-.1,-.3q0,-.1,0,-.2c.1,-.2,.2,-.3,.3,-.4c.1,0,.2,0,.3,-.1h.4c.1,.1,.3,.2,.4,.3l.1,.1c0,.1,0,.2,0,.3c0,0,0,.1,0,.2c-.1,.1,-.2,.3,-.3,.4h-.2Z"/></clipPath>
<clipPath id="cy"><path d="M392.5,167.9c0,0,-.1,0,-.1,0c-.2,-.1,-.4,-.2,-.4,-.3c-.1,-.1,-.1,-.2,-.1,-.2q0,-.1,0,-.2c.1,-.1,.2,-.2,.3,-.3c.1,0,.2,-.1,.3,-.1q.1,0,.2,0c.1,.1,.3,.1,.3,.3h.1c0,.1,0,.2,0,.2v.1c0,0,0,.1,0,.1c0,.1,-.1,.2,-.2,.3h-.1c-.1,.1,-.2,.1,-.3,.1Z"/></clipPath>
<clipPath id="cz"><path d="M392.4,166.1c0,0,0,-.1,0,-.1q-.1,-.1,-.1,-.2c0,0,0,-.1,0,-.1c.1,-.1,.1,-.2,.2,-.2c.1,-.1,.2,-.1,.3,-.1c0,0,.1,0,.1,0c.1,.1,.2,.1,.3,.2c.1,.1,.1,.2,.1,.2q0,.1,0,.1c-.1,.1,-.1,.2,-.2,.2Z"/></clipPath>
<clipPath id="c10"><path d="M393.1,164.8c0,0,-.1,0,-.1,0c-.1,0,-.2,-.1,-.2,-.1c0,-.1,-.1,-.1,-.1,-.2l.1,-.1c0,0,0,-.1,.1,-.1q.1,-.1,.2,-.1c0,0,.1,0,.1,0c.1,0,.1,.1,.2,.1v.3c0,.1,-.1,.1,-.1,.2h-.1c0,0,-.1,0,-.1,0Z"/></clipPath>
<clipPath id="c11"><path d="M393.3,163.7h-.1c-.1,0,-.1,-.1,-.1,-.1q-.1,-.1,-.1,-.2q.1,-.1,.2,-.2h.1c0,0,.1,0,.1,0c0,0,.1,.1,.1,.1h.1q0,.1,0,.1q0,.1,0,.1c0,.1,-.1,.1,-.2,.1v.1c0,0,-.1,0,-.1,0Z"/></clipPath>
<clipPath id="c12"><path d="M393.4,162.7c0,0,-.1,0,-.1,0c0,0,-.1,-.1,-.1,-.1c0,0,0,-.1,0,-.1q0,-.1,.1,-.2h.1c.1,0,.1,.1,.2,.1q0,.1,0,.1v.1c0,0,0,.1,-.1,.1c0,0,-.1,0,-.1,0Z"/></clipPath>
<clipPath id="c13"><path d="M393.4,161.8h-.1c0,0,-.1,-.1,-.1,-.1v-.1l.1,-.1c0,0,.1,0,.1,0q.1,0,.1,0v.1l.1,.1q-.1,0,-.1,.1q-.1,0,-.1,0Z"/></clipPath>
<style type="text/css"><![CDATA[
.g0{
fill: #FFF;
}
.g1{
fill: none;
stroke: #000;
stroke-width: 1.527;
stroke-miterlimit: 10;
}
.g2{
fill: #236349;
}
.g3{
fill: #FFD400;
}
.g4{
fill: #231F20;
}
.g5{
fill: #007;
}
]]></style>
</defs>
<image preserveAspectRatio="none" x="682" y="1004" width="131" height="133" xlink:href="img/1.jpg"/>
<image clip-path="url(#c0)" preserveAspectRatio="none" x="10" y="109" width="887" height="1256" xlink:href="img/2.jpg"/>
<image clip-path="url(#c1)" preserveAspectRatio="none" x="10" y="109" width="887" height="1256" xlink:href="img/3.jpg"/>
<image clip-path="url(#c2)" preserveAspectRatio="none" x="10" y="109" width="887" height="1256" xlink:href="img/4.jpg"/>
<path d="M795.2,632.5H720.4V597.3h74.8v35.2Z" class="g0"/>
<path d="M788.9,199.1H749.8v-22h39.1v22Z" class="g0"/>
<path d="M861.8,547.2H25.2V114.9H861.8V547.2ZM25.2,215.6H861.8M575.2,114.9V215.6M307.9,114.9V215.6M25.2,282.7H861.8m0,61.6H25.2M307.9,282.7v61.6M575.2,282.7v61.6m286.6,57.2H25.2M307.9,344.3v57.2m553.9,80.3H25.2M307.9,401.5v80.3M575.2,401.5V547.3M307.9,481.8v65.5m553.9,593.9H25.2V547.3H861.8v593.9ZM25.2,677.6H861.8m0,244.2H25.2m0,33H861.8m0,44.5H25.2" class="g1"/>
<g clip-path="url(#c3)">
<image preserveAspectRatio="none" x="346" y="141" width="28" height="28" xlink:href="img/5.jpg"/>
</g>
<path d="M366.8,175c0,0,3,1.4,3.7,2.9c.8,1.6,-.1,2.2,-.3,2.1c-.2,-.2,.1,-1.3,-1,-2c-.9,-.6,-3.4,-1.9,-3.4,-1.9l1,-1.1Z" class="g2"/>
<g clip-path="url(#c4)">
<image preserveAspectRatio="none" x="340" y="166" width="26" height="10" xlink:href="img/6.jpg"/>
</g>
<g clip-path="url(#c5)">
<image preserveAspectRatio="none" x="340" y="166" width="26" height="10" xlink:href="img/7.jpg"/>
</g>
<g clip-path="url(#c6)">
<image preserveAspectRatio="none" x="340" y="166" width="26" height="10" xlink:href="img/8.jpg"/>
</g>
<path d="M369,173.4c0,0,-.8,-.5,-3.2,1.9c-2.4,2.5,-3.5,1.6,-3.5,1.6c0,0,.6,.3,3,-2.1c2.4,-2.4,3.7,-1.4,3.7,-1.4Z" class="g2"/>
<path d="M352.8,175c0,0,-2.9,1.4,-3.7,2.9c-.8,1.6,.1,2.2,.3,2.1c.2,-.2,-.1,-1.3,1.1,-2c.9,-.6,3.4,-1.9,3.4,-1.9L352.8,175Z" class="g2"/>
<g clip-path="url(#c7)">
<image preserveAspectRatio="none" x="354" y="166" width="26" height="10" xlink:href="img/9.jpg"/>
</g>
<g clip-path="url(#c8)">
<image preserveAspectRatio="none" x="354" y="166" width="26" height="10" xlink:href="img/10.jpg"/>
</g>
<g clip-path="url(#c9)">
<image preserveAspectRatio="none" x="354" y="166" width="26" height="10" xlink:href="img/11.jpg"/>
</g>
<path d="M350.6,173.4c0,0,.8,-.5,3.2,1.9c2.4,2.5,3.5,1.6,3.5,1.6c0,0,-.6,.3,-3,-2.1c-2.4,-2.4,-3.7,-1.4,-3.7,-1.4Z" class="g2"/>
<g clip-path="url(#ca)">
<image preserveAspectRatio="none" x="363" y="184" width="7" height="7" xlink:href="img/12.jpg"/>
</g>
<path d="M362.5,186.9c0,0,-.3,4.3,4.8,4c-4.6,1.2,-5.5,-1.9,-4.8,-4Z" class="g3"/>
<g clip-path="url(#cb)">
<image preserveAspectRatio="none" x="352" y="184" width="8" height="7" xlink:href="img/13.jpg"/>
</g>
<path d="M351.6,186.8c0,0,-.4,4.7,5.3,4.5c-5.1,1.3,-6.1,-2.2,-5.3,-4.5Z" class="g3"/>
<g clip-path="url(#cc)">
<image preserveAspectRatio="none" x="341" y="180" width="9" height="8" xlink:href="img/14.jpg"/>
</g>
<path d="M340.2,183.7c0,0,-.4,5.2,5.8,5c-5.6,1.4,-6.7,-2.5,-5.8,-5Z" class="g3"/>
<g clip-path="url(#cd)">
<image preserveAspectRatio="none" x="332" y="174" width="9" height="8" xlink:href="img/15.jpg"/>
</g>
<path d="M331.3,177.5c0,0,-.3,5.4,6.1,5.1c-5.8,1.5,-7,-2.5,-6.1,-5.1Z" class="g3"/>
<g clip-path="url(#ce)">
<image preserveAspectRatio="none" x="327" y="166" width="9" height="8" xlink:href="img/16.jpg"/>
</g>
<path d="M326.2,169.2c0,0,-.4,5,5.7,4.8c-5.5,1.4,-6.5,-2.4,-5.7,-4.8Z" class="g3"/>
<g clip-path="url(#cf)">
<image preserveAspectRatio="none" x="325" y="158" width="8" height="7" xlink:href="img/17.jpg"/>
</g>
<path d="M324.8,160.6c0,0,-.3,4.6,5.1,4.3c-4.9,1.3,-5.9,-2.1,-5.1,-4.3Z" class="g3"/>
<g clip-path="url(#cg)">
<image preserveAspectRatio="none" x="327" y="150" width="7" height="6" xlink:href="img/18.jpg"/>
</g>
<path d="M326.6,153c0,0,-.2,4,4.5,3.7c-4.3,1.2,-5.1,-1.8,-4.5,-3.7Z" class="g3"/>
<g clip-path="url(#ch)">
<image preserveAspectRatio="none" x="331" y="145" width="6" height="5" xlink:href="img/19.jpg"/>
</g>
<path d="M330.5,146.9c0,0,-.3,3.1,3.6,2.9c-3.5,.9,-4.2,-1.4,-3.6,-2.9Z" class="g3"/>
<g clip-path="url(#ci)">
<image preserveAspectRatio="none" x="335" y="141" width="5" height="4" xlink:href="img/20.jpg"/>
</g>
<path d="M335.1,142.5c0,0,-.1,2.4,2.8,2.2c-2.7,.7,-3.2,-1.1,-2.8,-2.2Z" class="g3"/>
<g clip-path="url(#cj)">
<image preserveAspectRatio="none" x="339" y="138" width="4" height="3" xlink:href="img/21.jpg"/>
</g>
<path d="M339.3,139.6c0,0,-.1,1.8,2.1,1.7c-2,.5,-2.4,-.8,-2.1,-1.7Z" class="g3"/>
<g clip-path="url(#ck)">
<image preserveAspectRatio="none" x="343" y="136" width="3" height="3" xlink:href="img/22.jpg"/>
</g>
<path d="M343.2,137.4c0,0,-.1,1.5,1.8,1.4c-1.7,.4,-2,-.7,-1.8,-1.4Z" class="g3"/>
<g clip-path="url(#cl)">
<image preserveAspectRatio="none" x="347" y="135" width="2" height="2" xlink:href="img/23.jpg"/>
</g>
<path d="M346.5,136.2c0,0,-.1,1.2,1.4,1.2c-1.4,.3,-1.6,-.6,-1.4,-1.2Z" class="g3"/>
<g clip-path="url(#cm)">
<image preserveAspectRatio="none" x="349" y="135" width="2" height="1" xlink:href="img/24.jpg"/>
</g>
<path d="M349.4,135.2c0,0,0,1,1.1,.9c-1,.3,-1.2,-.4,-1.1,-.9Z" class="g3"/>
<g clip-path="url(#cn)">
<image preserveAspectRatio="none" x="352" y="134" width="2" height="1" xlink:href="img/25.jpg"/>
</g>
<path d="M352.1,134.6c0,0,-.1,.8,.9,.7c-.9,.3,-1.1,-.3,-.9,-.7Z" class="g3"/>
<g clip-path="url(#co)">
<image preserveAspectRatio="none" x="354" y="134" width="1" height="1" xlink:href="img/26.jpg"/>
</g>
<path d="M354.1,134.2c0,0,0,.7,.8,.6c-.8,.2,-.9,-.3,-.8,-.6Z" class="g3"/>
<g clip-path="url(#cp)">
<image preserveAspectRatio="none" x="356" y="134" width="1" height="1" xlink:href="img/27.jpg"/>
</g>
<path d="M355.8,134c0,0,0,.5,.7,.5c-.6,.2,-.7,-.2,-.7,-.5Z" class="g3"/>
<g clip-path="url(#cq)">
<image preserveAspectRatio="none" x="357" y="134" width="1" height="1" xlink:href="img/28.jpg"/>
</g>
<path d="M357.4,134c0,0,-.1,.5,.5,.4c-.5,.2,-.6,-.2,-.5,-.4Z" class="g3"/>
<g clip-path="url(#cr)">
<image preserveAspectRatio="none" x="358" y="134" width="1" height="1" xlink:href="img/29.jpg"/>
</g>
<path d="M358.6,134c0,0,0,.4,.4,.4c-.4,.1,-.5,-.2,-.4,-.4Z" class="g3"/>
<g clip-path="url(#cs)">
<image preserveAspectRatio="none" x="372" y="183" width="6" height="5" xlink:href="img/30.jpg"/>
</g>
<path d="M371.9,184.8c0,0,-.2,3.3,3.8,3.1c-3.7,1,-4.4,-1.5,-3.8,-3.1Z" class="g3"/>
<g clip-path="url(#ct)">
<image preserveAspectRatio="none" x="379" y="180" width="5" height="4" xlink:href="img/31.jpg"/>
</g>
<path d="M378.8,181.5c0,0,-.2,2.7,3,2.5c-2.9,.8,-3.5,-1.2,-3,-2.5Z" class="g3"/>
<g clip-path="url(#cu)">
<image preserveAspectRatio="none" x="384" y="177" width="4" height="3" xlink:href="img/32.jpg"/>
</g>
<path d="M383.8,178c0,0,-.1,2.1,2.4,2c-2.3,.6,-2.7,-.9,-2.4,-2Z" class="g3"/>
<g clip-path="url(#cv)">
<image preserveAspectRatio="none" x="387" y="173" width="3" height="3" xlink:href="img/33.jpg"/>
</g>
<path d="M387.2,174.5c0,0,-.1,1.6,1.8,1.5c-1.8,.5,-2.1,-.7,-1.8,-1.5Z" class="g3"/>
<g clip-path="url(#cw)">
<image preserveAspectRatio="none" x="389" y="171" width="3" height="2" xlink:href="img/34.jpg"/>
</g>
<path d="M389.5,171.4c0,0,-.1,1.2,1.3,1.1c-1.3,.3,-1.5,-.5,-1.3,-1.1Z" class="g3"/>
<g clip-path="url(#cx)">
<image preserveAspectRatio="none" x="391" y="168" width="2" height="2" xlink:href="img/35.jpg"/>
</g>
<path d="M390.9,169.2c0,0,0,.9,1.1,.9c-1,.2,-1.2,-.5,-1.1,-.9Z" class="g3"/>
<g clip-path="url(#cy)">
<image preserveAspectRatio="none" x="392" y="167" width="1" height="1" xlink:href="img/36.jpg"/>
</g>
<path d="M391.8,167.3c0,0,-.1,.7,.8,.7c-.8,.2,-.9,-.4,-.8,-.7Z" class="g3"/>
<g clip-path="url(#cz)">
<image preserveAspectRatio="none" x="392" y="165" width="1" height="1" xlink:href="img/37.jpg"/>
</g>
<path d="M392.2,165.8c0,0,0,.5,.7,.5c-.6,.2,-.8,-.3,-.7,-.5Z" class="g3"/>
<g clip-path="url(#c10)">
<image preserveAspectRatio="none" x="393" y="164" width="1" height="1" xlink:href="img/38.jpg"/>
</g>
<path d="M392.7,164.5c0,0,0,.4,.4,.4c-.4,.1,-.5,-.2,-.4,-.4Z" class="g3"/>
<g clip-path="url(#c11)">
<image preserveAspectRatio="none" x="393" y="163" width="1" height="1" xlink:href="img/39.jpg"/>
</g>
<path d="M393,163.4c0,0,0,.3,.3,.3c-.3,.1,-.4,-.1,-.3,-.3Z" class="g3"/>
<g clip-path="url(#c12)">
<image preserveAspectRatio="none" x="393" y="162" width="1" height="1" xlink:href="img/40.jpg"/>
</g>
<path d="M393.1,162.5c0,0,0,.2,.3,.2c-.3,.1,-.3,-.1,-.3,-.2Z" class="g3"/>
<g clip-path="url(#c13)">
<image preserveAspectRatio="none" x="393" y="161" width="1" height="1" xlink:href="img/41.jpg"/>
</g>
<path d="M393.2,161.6c0,0,0,.2,.2,.2c-.2,.1,-.3,-.1,-.2,-.2Z" class="g3"/>
<path d="M410.4,153.2h-1.7c-.8,0,-1.3,-.2,-1.6,-.6c-.3,-.3,-.5,-1,-.8,-1.9c-.5,.4,-.8,.6,-1,.8c-.2,.2,-.5,.2,-.9,.2c-.6,0,-1.1,0,-1.5,-.2c-.4,-.1,-.5,-.3,-.5,-.5c0,-.5,.3,-1.1,.9,-1.7c.7,-.6,1.5,-1.2,2.4,-1.7c0,-.5,0,-.8,.2,-1.1c.1,-.2,.2,-.4,.3,-.7l.6,3.7c.2,.9,.4,1.5,.6,1.8c.3,.3,.5,.5,.8,.5h2.2v1.4m-7.6,-9.5l.8,-1.2l1.3,.8l.8,-1.1l1.3,.8l-.8,1.2l-1.3,-.7l-.8,1Zm3.1,4.7c-.7,.2,-1.1,.3,-1.2,.5c-.2,.1,-.5,.5,-1,1.1c.3,0,.6,.1,.8,.1c.2,.1,.4,.1,.6,.1c.4,0,.7,-.1,1.1,-.2Z" class="g4"/>
<path d="M408.1,151.8h2.3c.2,0,.4,0,.6,-.1c.2,0,.5,-.1,.8,-.2c.2,-.1,.5,-.3,.7,-.5c.2,-.2,.4,-.4,.7,-.8l.2,.1c.1,.7,.3,1.1,.6,1.2c.2,.2,.5,.3,.8,.3h2.1v1.4h-2.2c-.4,0,-.8,-.1,-1.2,-.4c-.4,-.3,-.6,-.6,-.8,-.9c-.2,.2,-.5,.5,-1,.8c-.5,.4,-.9,.5,-1.3,.5h-2.3v-1.4m2.3,4.2l.8,-1.2l1.2,.9l.9,-1.1l1.3,.8l-.9,1.2l-1.3,-.8l-.7,1.1Z" class="g4"/>
<path d="M414.7,151.8h2.4c.2,0,.4,0,.6,-.1c.2,0,.4,-.1,.7,-.2c.3,-.1,.5,-.3,.7,-.5c.2,-.2,.5,-.4,.7,-.8l.2,.1c.2,.7,.4,1.1,.6,1.2c.2,.2,.4,.3,.7,.3h2.2v1.4h-2.2c-.4,0,-.8,-.1,-1.2,-.4c-.3,-.3,-.6,-.6,-.8,-.9c-.1,.2,-.5,.5,-.9,.8c-.5,.4,-1,.5,-1.3,.5h-2.4v-1.4m3.6,4.1l.9,-1.2l1.3,.8l-1,1.2Z" class="g4"/>
<path d="M421.1,151.8h2.7c.7,0,1.2,-.2,1.4,-.5c.3,-.4,.4,-1.2,.4,-2.5c0,-1.1,-.1,-2.2,-.3,-3.3c-.2,-1.2,-.4,-2.3,-.6,-3.4c0,-.3,0,-.5,.1,-.7c.1,-.2,.3,-.4,.5,-.7l1,1.3c-.3,.5,-.5,.8,-.6,1c0,.1,-.1,.2,-.1,.5c0,.3,.1,1.1,.3,2.2c.2,1.1,.3,1.9,.3,2.4c0,.8,-.1,1.6,-.3,2.6c.8,-.7,1.7,-1.4,2.6,-2.1c1,-.8,1.9,-1.1,2.9,-1.1c.5,0,1,.2,1.3,.5c.3,.4,.5,.8,.5,1.3c0,.8,-.3,1.3,-.7,1.7c-.5,.3,-1.1,.6,-1.9,.9c.5,0,1.3,0,2.6,0c1.3,-.1,2.1,-.1,2.2,-.1v1.4H424.8c-.2,.3,-.3,.6,-.3,.8c-.1,.1,-.2,.4,-.3,.9l-.3,-.5c.1,-.2,.1,-.5,.2,-.7c0,-.1,.1,-.3,.2,-.5h-3.2v-1.4m9.1,-2.6c-1,0,-1.9,.2,-2.6,.8c-.7,.5,-1.4,1.1,-2,1.8c1.3,0,2.7,-.2,4.2,-.6c1.6,-.3,2.4,-.7,2.4,-1.2c0,-.1,-.2,-.3,-.6,-.5c-.4,-.2,-.9,-.3,-1.4,-.3Z" class="g4"/>
<path d="M433.3,151.8h2.3c.2,0,.4,-.1,.7,-.1c.8,-.2,1.3,-.4,1.4,-.7c.1,-.2,.1,-.5,.1,-.6c0,-.2,0,-.4,-.1,-.5l-.9,-4.8c0,-.3,-.1,-.8,-.1,-1.3c-.1,-.4,-.1,-.9,-.1,-1.4c0,-.2,.1,-.5,.2,-.7c.2,-.2,.3,-.4,.5,-.6l1,1.5c-.3,.2,-.5,.5,-.6,.6c-.1,.2,-.2,.4,-.2,.8l.1,.8c.2,.9,.4,1.8,.6,2.8c.2,.9,.3,1.5,.3,1.6c0,1.4,-.2,2.5,-.5,3.1c-.3,.6,-1.1,.9,-2.4,.9h-2.3v-1.4Z" class="g4"/>
<path d="M441.3,153.1c0,-.2,.1,-.4,.1,-.7c.1,-.3,.1,-.4,.1,-.5c0,-.3,0,-.6,-.1,-.9c0,-.4,0,-.7,-.1,-1l-.7,-5.8l-.1,-.7c0,-.3,.1,-.5,.2,-.9c.2,-.3,.4,-.7,.6,-1.2c0,1,.1,2,.2,2.9l.6,4.4c0,.3,.1,.6,.1,1c0,.3,0,.6,0,.9c0,.4,0,.7,-.1,1c-.1,.4,-.3,.9,-.5,1.6l-.3,-.1Z" class="g4"/>
<path d="M461.1,153.2h-2c-.8,0,-1.4,-.2,-1.7,-.6c-.3,-.4,-.6,-1.1,-.9,-1.9c-.5,.7,-1.1,1.3,-1.6,1.7c-.5,.4,-1.3,.6,-2.6,.6c-.5,0,-1,-.1,-1.3,-.3c-.4,-.1,-.6,-.3,-.6,-.7c0,-.2,0,-.5,.1,-.8c.2,-.4,.3,-.6,.4,-.8h.2c.1,.4,.2,.6,.4,.8c.3,.2,.8,.3,1.6,.3c1.2,0,2,-.1,2.4,-.4c.5,-.3,.7,-.9,.7,-1.8c0,-.3,-.1,-.9,-.4,-1.8c-.2,-.9,-.3,-1.4,-.3,-1.7c0,-.2,0,-.4,.1,-.5c0,-.1,.2,-.4,.6,-1c.2,1.5,.4,2.9,.6,4.4c.4,1.9,1.2,2.9,2.3,3.1h2v1.4Z" class="g4"/>
<path d="M458.7,151.8h2.1c.7,0,1.3,0,1.5,-.1c.3,-.1,.6,-.1,.9,-.2c.4,-.8,1,-1.7,1.6,-2.7c.7,-1,1.3,-1.5,1.8,-1.5c.2,0,.4,.1,.5,.4c.1,.3,.1,.6,.1,1c0,.7,-.1,1.3,-.4,1.7c-.3,.4,-.9,.9,-1.8,1.5l3.7,-.1h2.2v1.4h-1.5l-3.3,-.1c.3,.4,.7,.8,1.1,1.2c.1,.2,.2,.6,.2,1.1c0,.5,-.2,1,-.7,1.5c-.4,.4,-.8,.6,-1.2,.6c-.8,0,-1.4,-.4,-1.7,-1.3c-.3,-.9,-.6,-1.9,-.7,-3h-4.4v-1.4m8.2,3.8c0,-.6,-.3,-1,-.9,-1.4c-.6,-.3,-1.3,-.5,-2.3,-.8c.2,.9,.5,1.6,.8,2c.4,.4,.8,.6,1.2,.6c.4,0,.7,0,.9,-.1c.2,0,.3,-.2,.3,-.3m-1,-6.7c-.4,0,-.7,.2,-1.1,.6c-.3,.4,-.7,1.1,-1,1.9c.7,-.2,1.3,-.4,1.9,-.8c.6,-.3,.8,-.6,.8,-.8c0,-.3,0,-.5,-.2,-.7c-.1,-.1,-.3,-.2,-.4,-.2Z" class="g4"/>
<path d="M468.7,151.8h1.8c.3,0,.7,0,.9,0c.3,-.1,.9,-.2,2,-.4c1,-.3,1.5,-.6,1.5,-1c0,-.1,0,-.2,-.1,-.3c-.1,-.1,-.2,-.2,-.4,-.5c-.2,.3,-.4,.5,-.7,.7c-.2,.1,-.6,.2,-.9,.2c-.4,0,-.7,-.1,-1,-.2c-.3,-.2,-.4,-.4,-.4,-.8c0,-.8,.2,-1.5,.6,-2.1c.4,-.7,.8,-1,1.2,-1c.3,0,.7,.3,1.3,1.1c.6,.7,.9,1.6,.9,2.5c0,1.1,-.5,2,-1.5,2.5c-.9,.4,-1.9,.7,-2.9,.7h-2.3v-1.4m2.8,-8.2l.8,-1.3l1.3,.8l-.8,1.3Zm1.2,4.4c-.2,0,-.3,0,-.5,.1c-.1,.1,-.2,.3,-.2,.4c0,.2,.1,.4,.2,.6c.2,.2,.3,.2,.5,.2c.3,0,.5,-.1,.7,-.3c.3,-.2,.4,-.3,.4,-.5c0,-.1,-.1,-.3,-.4,-.4c-.2,-.1,-.4,-.1,-.7,-.1Z" class="g4"/>
<path d="M500.8,153.2h-2c-.9,0,-1.4,-.2,-1.7,-.7c-.3,-.5,-.5,-1.1,-.7,-1.9c-.5,1.2,-1.3,2.1,-2.5,2.9c-1.2,.8,-3.3,1.2,-6.4,1.2c-1.6,0,-2.8,-.2,-3.7,-.6c-1,-.4,-1.4,-1,-1.4,-1.9c0,-.6,0,-1.1,.1,-1.5c.1,-.4,.3,-.8,.5,-1.3h.2c-.1,.3,-.1,.6,-.1,.7c-.1,.2,-.1,.3,-.1,.5c0,.8,.4,1.5,1.2,1.9c.8,.4,1.9,.6,3.4,.6c3,0,5.2,-.3,6.5,-1c1.4,-.6,2,-1.7,2,-3.1c0,-.8,0,-1.9,-.2,-3.5c-.1,-1.5,-.2,-2.7,-.2,-3.5c0,-.3,.1,-.6,.3,-.8c.4,.4,.7,1.9,.9,4.5c.1,2.7,.2,4.2,.3,4.7c.1,.4,.2,.8,.5,1c.2,.2,.6,.3,1,.4h2.1v1.4M489,147.6c0,-.1,-.3,-.2,-.9,-.3c-.6,-.1,-.9,-.3,-.9,-.6c0,-.5,.2,-1.1,.7,-1.7c.6,-.6,1.1,-1,1.6,-1.3v1.1c-.3,.1,-.6,.2,-.8,.3c-.3,.2,-.4,.3,-.4,.6c0,.1,.3,.2,1,.4c.7,.1,1,.4,1,.8c0,.4,-.2,.8,-.7,1.3c-.4,.5,-.9,.7,-1.5,.7c-.3,0,-.6,0,-.9,-.1c-.3,-.2,-.6,-.3,-1,-.5c.6,-.1,1.2,-.1,1.8,-.2c.7,-.1,1,-.3,1,-.5Z" class="g4"/>
<path d="M498.4,151.8h2.1c.6,0,1.1,-.1,1.5,-.4c.4,-.2,.6,-.9,.6,-1.9l-.4,-7c0,-.9,.1,-1.4,.4,-1.4c.1,0,.3,.9,.4,2.6c.2,1.7,.3,3.5,.5,5.4c.2,1.2,.4,1.9,.7,2.2c.3,.3,.6,.5,1,.5h2.1v1.4h-2.1c-.7,0,-1.2,-.2,-1.4,-.5c-.2,-.2,-.5,-.9,-1,-1.8c-.2,.7,-.5,1.2,-.8,1.6c-.3,.5,-.8,.7,-1.3,.7h-2.3v-1.4Z" class="g4"/>
<path d="M505.1,151.8h2.2c.3,0,.7,-.1,1.1,-.2c.5,-.2,.9,-.3,1.3,-.5c-.3,-.6,-.6,-2.1,-1,-4.7c-.4,-2.5,-.6,-4,-.6,-4.5c0,-.2,.1,-.5,.2,-.7c.1,-.3,.3,-.5,.5,-.8l1.1,1.5c-.5,.4,-.7,.9,-.7,1.5c0,1.6,.1,3.1,.5,4.4c.3,1.3,.7,2.1,1,2.5c.3,.4,.8,.7,1.3,1c.5,.3,.7,.6,.7,1c0,.1,0,.3,-.2,.6c-.1,.2,-.2,.4,-.3,.6c-.4,-.4,-.8,-.7,-1.1,-.9c-.2,-.2,-.6,-.2,-1.1,-.2c-.3,0,-.8,.1,-1.4,.4c-.6,.2,-1.1,.4,-1.3,.4h-2.2v-1.4Z" class="g4"/>
<path d="M515.2,153.1c.1,-.2,.1,-.4,.1,-.7c.1,-.3,.1,-.4,.1,-.5c0,-.3,0,-.6,-.1,-.9c0,-.4,0,-.7,-.1,-1l-.7,-5.8l-.1,-.7c0,-.3,.1,-.5,.3,-.9c.1,-.3,.3,-.7,.5,-1.2c0,1,.1,2,.2,2.9l.6,4.4c0,.3,.1,.6,.1,1c0,.3,0,.6,0,.9c0,.4,0,.7,-.1,1c-.1,.4,-.2,.9,-.5,1.6l-.3,-.1Z" class="g4"/>
<path d="M531.1,153.2h-1.7c-.8,0,-1.3,-.2,-1.6,-.6c-.2,-.3,-.5,-1,-.8,-1.9c-.5,.4,-.8,.6,-1,.8c-.2,.2,-.5,.2,-.9,.2c-.6,0,-1.1,0,-1.5,-.2c-.3,-.1,-.5,-.3,-.5,-.5c0,-.5,.3,-1.1,1,-1.7c.6,-.6,1.4,-1.2,2.3,-1.7c0,-.5,.1,-.8,.2,-1.1c.1,-.2,.2,-.4,.3,-.7l.7,3.7c.1,.9,.3,1.5,.6,1.8c.2,.3,.4,.5,.7,.5h2.2v1.4m-7.6,-9.5l.8,-1.2l1.3,.8l.9,-1.1l1.3,.8l-.8,1.2l-1.4,-.7l-.8,1Zm3.1,4.7c-.7,.2,-1.1,.3,-1.2,.5c-.2,.1,-.5,.5,-1,1.1c.3,0,.6,.1,.8,.1c.3,.1,.5,.1,.6,.1c.4,0,.7,-.1,1.1,-.2Z" class="g4"/>
<path d="M528.8,151.8h2.3c.2,0,.4,0,.6,-.1c.3,0,.5,-.1,.8,-.2c.3,-.2,.5,-.3,.7,-.5c.2,-.2,.4,-.5,.7,-.8l.2,.1c.1,.7,.3,1.1,.5,1.2c.2,.2,.5,.3,.8,.3h2.2v1.4h-2.2c-.5,0,-.9,-.1,-1.2,-.4c-.4,-.3,-.6,-.6,-.8,-.9c-.2,.2,-.5,.5,-1,.8c-.5,.3,-.9,.5,-1.3,.5h-2.3v-1.4m3.4,-4.2l.8,-1.2l1.3,.8l-.8,1.2Z" class="g4"/>
<path d="M535.3,151.8h2.6c.6,0,1.2,-.1,1.7,-.2c.6,-.1,.9,-.3,.9,-.6c0,-.1,-.1,-.2,-.2,-.4l-.5,-.9c0,-.1,-.1,-.2,-.2,-.3c0,-.2,.1,-.4,.3,-.7l.6,-.9c.2,.4,.3,.8,.4,1.2c.1,.3,.2,.7,.2,1.1c0,1.2,-.3,1.9,-.9,2.4c-.6,.5,-1.3,.7,-2.3,.7h-2.6v-1.4m2.3,3.8l.8,-1.2l1.2,.9l.9,-1.2l1.3,.8l-.8,1.2l-1.4,-.7l-.7,1Z" class="g4"/>
<path d="M555.7,153.2h-2c-.9,0,-1.4,-.2,-1.7,-.6c-.3,-.4,-.6,-1.1,-1,-1.9c-.5,.7,-1,1.3,-1.5,1.7c-.5,.4,-1.4,.6,-2.6,.6c-.5,0,-1,-.1,-1.4,-.3c-.4,-.1,-.6,-.3,-.6,-.7c0,-.2,.1,-.5,.2,-.8c.2,-.4,.3,-.6,.4,-.8h.2c0,.4,.2,.6,.4,.8c.3,.2,.8,.3,1.6,.3c1.2,0,2,-.1,2.4,-.4c.4,-.3,.6,-.9,.6,-1.8c0,-.3,-.1,-.9,-.3,-1.8c-.2,-.9,-.3,-1.4,-.3,-1.7c0,-.2,0,-.4,.1,-.5c0,-.1,.2,-.4,.6,-1c.2,1.5,.4,2.9,.6,4.4c.4,1.9,1.2,2.9,2.3,3.1h2v1.4Z" class="g4"/>
<path d="M553.3,151.8h2.1c.3,0,.5,-.1,.7,-.1c.1,0,.3,-.2,.6,-.3l.3,-.3c.2,-.2,.6,-.8,1.3,-1.8c.7,-1,1.3,-1.5,1.9,-1.5c.4,0,.7,.4,1.1,1c.3,.7,.4,1.2,.4,1.8c0,.3,-.1,.6,-.3,1c-.3,.3,-.6,.5,-.8,.5c-.2,0,-.3,0,-.5,-.1c-.2,-.1,-.3,-.2,-.4,-.2l-1.7,-.7l-1.2,1.3c-.2,.2,-.4,.4,-.7,.5c-.2,.2,-.4,.3,-.6,.3h-2.2v-1.4m6.2,-2.5c-.2,0,-.3,.1,-.5,.2c-.2,.2,-.2,.3,-.2,.5c0,.3,.2,.5,.5,.6c.4,.1,.9,.1,1.4,.1c0,-.3,-.1,-.6,-.3,-.9c-.1,-.3,-.4,-.5,-.9,-.5Z" class="g4"/>
<path d="M405,164.7c0,.4,0,.7,.3,.7c.3,0,.7,-.3,1.2,-.9l1.6,-1.8c.2,-.2,.7,-.7,.9,-1c.3,-.3,.3,-.5,.1,-.5l-.5,-.1c-.1,-.2,-.1,-.4,0,-.5c.7,0,1.2,0,1.8,0c.7,0,1.2,0,1.8,0c.2,0,.2,.4,0,.5c-1.5,.2,-1.9,.5,-3,1.6c-.7,.7,-1.3,1.4,-1.9,2c-.2,.2,-.3,.3,-.1,.5c1.3,1.7,2.8,3.6,3.9,4.9c.4,.4,.7,.6,1.2,.6l.4,.1c.1,.1,.1,.4,0,.4c-.6,0,-1.2,0,-2.1,0c-.7,0,-1.5,0,-2.2,0c-.2,0,-.2,-.3,0,-.4l.4,-.1c.3,0,.3,-.2,.1,-.4c-.6,-.9,-2.5,-3.4,-3.1,-4.1c-.1,-.1,-.3,-.2,-.4,-.2c-.4,0,-.4,.4,-.4,.9v2c0,1.7,.2,1.7,.9,1.8l.4,.1c.1,.1,.1,.4,0,.4c-.8,0,-1.5,0,-2.2,0c-.7,0,-1.4,0,-2,0c-.2,0,-.2,-.3,-.1,-.4l.3,-.1c.7,-.1,.9,-.1,.9,-1.8v-6c0,-1.7,-.2,-1.7,-.9,-1.8H402c-.1,-.2,-.1,-.4,0,-.5c.7,0,1.4,0,2.1,0c.7,0,1.4,0,2.1,0c.1,.1,.1,.4,0,.5h-.3c-.7,.1,-.9,.1,-.9,1.8v1.8Z" class="g4"/>
<path d="M415.3,169.3c0,1.2,0,1.3,.6,1.4l.3,.1c.1,.1,.1,.4,-.1,.4c-.5,0,-1.1,0,-1.7,0c-.5,0,-1.1,0,-1.7,0c-.1,0,-.1,-.3,0,-.4l.3,-.1c.5,-.1,.6,-.2,.6,-1.4v-2.4c0,-.7,0,-.9,-.4,-1.1l-.2,-.1c0,-.1,0,-.3,0,-.4c.9,-.2,1.7,-.6,2.1,-.9c.1,.1,.2,.1,.2,.2c0,.5,0,1.3,0,1.9v2.8m-1.9,-7.8c0,-.5,.4,-1,1,-1c.6,0,1.1,.5,1.1,1c0,.6,-.5,1.1,-1.1,1.1c-.6,0,-1,-.5,-1,-1.1Z" class="g4"/>
<path d="M419.6,169.3c0,1.2,0,1.3,.6,1.4l.2,.1c.1,.1,.1,.4,0,.4c-.6,0,-1.1,0,-1.7,0c-.5,0,-1.1,0,-1.7,0c-.2,0,-.2,-.3,-.1,-.4l.4,-.1c.5,-.1,.6,-.2,.6,-1.4v-2.4c0,-.7,0,-.9,-.4,-1.1l-.2,-.1c0,-.1,0,-.3,0,-.4c.7,-.2,1.6,-.6,2.1,-.9c.1,0,.2,.1,.2,.2c0,.3,0,.6,0,.7q0,.1,.1,.2c.8,-.5,1.2,-.8,2.2,-.8c1.3,0,1.9,.9,1.9,2.1v2.5c0,1.2,.1,1.3,.6,1.4l.4,.1c.1,.1,.1,.4,-.1,.4c-.6,0,-1.2,0,-1.8,0c-.5,0,-1,0,-1.6,0c-.1,0,-.1,-.3,0,-.4l.2,-.1c.6,-.1,.6,-.2,.6,-1.4v-2.2c0,-.8,-.3,-1.5,-1.3,-1.5c-.4,0,-.8,.3,-1,.5c-.2,.3,-.2,.5,-.2,1v2.2Z" class="g4"/>
<path d="M431.2,166.1c.1,.1,.1,.3,.1,.7c0,1.3,-.9,2.6,-2.9,2.6c-.2,0,-.4,0,-.6,-.1c-.3,.2,-.5,.4,-.5,.7c0,.3,.2,.6,.8,.6c.5,0,1.1,-.1,1.8,-.1c1.1,0,2.6,.2,2.6,2c0,.8,-.6,1.6,-1,1.9c-.7,.6,-1.7,1.1,-3.1,1.1c-2.3,0,-3,-1.1,-3,-1.9c0,-.2,0,-.4,.2,-.7c.2,-.1,.8,-.5,1,-.7c.1,-.1,.3,-.3,.1,-.4c-.5,-.1,-1,-.7,-1,-1.3c0,-.1,0,-.3,.2,-.4c.3,-.1,1,-.6,1,-.8c0,-.1,0,-.2,0,-.2c-.6,-.2,-1.2,-.9,-1.2,-1.9c0,-1.4,1.2,-2.5,2.9,-2.5c.7,0,1.2,.1,1.6,.3c.4,.2,.5,.2,.7,.2h1.6c.1,.1,.1,.2,.1,.3c0,.3,-.1,.5,-.2,.6h-1.2m-2.7,5.9c-.5,0,-.9,0,-1.1,.2c-.2,.2,-.4,.5,-.4,.9c0,.9,.8,1.6,2,1.6c1.4,0,2.2,-.6,2.2,-1.5c0,-.8,-.8,-1.2,-1.8,-1.2Zm.1,-3.2c.7,0,1.1,-.5,1.1,-1.7c0,-1,-.5,-1.8,-1.2,-1.8c-.5,0,-1,.5,-1,1.6c0,1.2,.5,1.9,1.1,1.9Z" class="g4"/>
<path d="M442.3,160.6c1.1,0,2,0,2.3,0c0,.3,0,1.5,0,2.3c0,.1,-.3,.1,-.5,.1c-.2,-1,-.4,-1.4,-1,-1.6c-.4,-.1,-.8,-.1,-1.4,-.1h-.8q-.6,0,-.6,.9v2.9q0,.4,.3,.4h1c1.4,0,1.6,0,1.8,-.7l.1,-.6c.1,-.1,.4,-.1,.5,.1c0,.4,-.1,1,-.1,1.6c0,.6,.1,1.1,.1,1.6c-.1,.2,-.4,.2,-.5,0l-.1,-.6c-.2,-.7,-.4,-.7,-1.8,-.7h-1q-.3,0,-.3,.4v2.3c0,1.7,.1,1.7,.9,1.8l.6,.1c.1,.1,.1,.4,0,.4c-1,0,-1.8,0,-2.5,0c-.7,0,-1.4,0,-2.1,0c-.1,0,-.2,-.3,0,-.4l.3,-.1c.8,-.1,.9,-.1,.9,-1.8v-6c0,-1.7,-.1,-1.7,-.9,-1.8h-.2c-.1,-.2,-.1,-.4,0,-.5c.6,0,1.3,0,2,0h3Z" class="g4"/>
<path d="M450.5,169.2c0,.9,.2,1.4,.8,1.4c.2,0,.5,-.2,.5,-.2c.1,0,.2,.2,.2,.3c-.4,.5,-1.1,.7,-1.6,.7c-.4,0,-.9,-.1,-1.2,-.4c-.1,-.2,-.2,-.2,-.2,-.2c-.1,0,-.2,0,-.5,.2c-.3,.2,-.8,.4,-1.3,.4c-1.1,0,-1.7,-.7,-1.7,-1.5c0,-.6,.3,-1.1,1.4,-1.5c.5,-.2,1.1,-.4,1.7,-.7c.3,-.1,.4,-.2,.4,-.4v-.4c0,-.8,-.2,-1.5,-1,-1.5c-.4,0,-.8,.2,-.8,.7c-.1,.3,-.2,.5,-.3,.6c-.2,.1,-.7,.2,-1.1,.2c-.2,0,-.3,-.1,-.3,-.2c0,-.2,.1,-.5,.7,-1c.5,-.5,1.6,-1,2.4,-1c1.3,0,2.1,.6,2,2l-.1,2.5m-1.6,-.6c0,-.2,0,-.3,-.1,-.3c-.1,0,-.4,.1,-.7,.2c-.4,.2,-.9,.4,-.9,1.1c0,.4,.3,.9,.9,.9c.6,0,.8,-.4,.8,-.7Z" class="g4"/>
<path d="M454.6,165.2c0,.2,.1,.2,.2,.2c.5,-.4,1.2,-.7,2,-.7c1.4,0,2.1,.8,2.1,2.2v2.4c0,1.2,0,1.3,.6,1.4l.4,.1c.1,.1,.1,.4,-.1,.4c-.6,0,-1.2,0,-1.8,0c-.5,0,-1.1,0,-1.6,0c-.1,0,-.2,-.3,0,-.4l.2,-.1c.5,-.1,.6,-.2,.6,-1.4V167c0,-.7,-.3,-1.4,-1.3,-1.4c-.5,0,-.9,.3,-1.1,.5c-.1,.2,-.2,.4,-.2,1v2.2c0,1.2,.1,1.3,.7,1.4l.2,.1c.1,.1,.1,.4,0,.4c-.6,0,-1.1,0,-1.7,0c-.5,0,-1.1,0,-1.8,0c-.1,0,-.1,-.3,0,-.4l.4,-.1c.5,-.1,.6,-.2,.6,-1.4v-6.9c0,-1,0,-1.2,-.4,-1.4l-.2,-.1c-.1,-.1,-.1,-.3,0,-.4c.6,-.2,1.4,-.5,2.1,-.7c.1,-.1,.2,0,.2,.1c0,.6,-.1,1.6,-.1,2.3v3Z" class="g4"/>
<path d="M465.6,169.2c-.1,.9,.2,1.4,.7,1.4c.3,0,.5,-.2,.6,-.2c.1,0,.2,.2,.1,.3c-.3,.5,-1.1,.7,-1.6,.7c-.4,0,-.8,-.1,-1.1,-.4c-.1,-.2,-.2,-.2,-.3,-.2c-.1,0,-.2,0,-.4,.2c-.3,.2,-.8,.4,-1.4,.4c-1.1,0,-1.6,-.7,-1.6,-1.5c0,-.6,.2,-1.1,1.3,-1.5c.6,-.2,1.2,-.4,1.8,-.7c.3,-.1,.3,-.2,.3,-.4l.1,-.4c0,-.8,-.2,-1.5,-1,-1.5c-.5,0,-.8,.2,-.9,.7c0,.3,-.1,.5,-.3,.6c-.2,.1,-.6,.2,-1,.2c-.2,0,-.3,-.1,-.3,-.2c0,-.2,.1,-.5,.6,-1c.5,-.5,1.7,-1,2.5,-1c1.3,0,2,.6,2,2l-.1,2.5m-1.6,-.6c0,-.2,-.1,-.3,-.1,-.3c-.2,0,-.4,.1,-.7,.2c-.5,.2,-.9,.4,-.9,1.1c0,.4,.3,.9,.9,.9c.6,0,.7,-.4,.8,-.7Z" class="g4"/>
<path d="M473.8,168.6c0,1.4,.1,1.9,.4,1.9c.2,0,.4,0,.7,-.1c.1,.1,.1,.5,0,.6c-.8,0,-2,.3,-2.6,.6c0,0,-.1,-.1,-.2,-.2l.1,-.2c0,-.3,0,-.4,0,-.5h-.1c-.5,.3,-1.1,.7,-1.9,.7c-1.8,0,-2.9,-1.5,-2.9,-3.1c0,-2.3,1.8,-3.6,3.8,-3.6c.4,0,.7,0,1,.1c0,0,0,-.1,0,-.3v-2.1c0,-1,0,-1.2,-.3,-1.4l-.2,-.1c-.1,-.1,-.2,-.3,0,-.4c.6,-.2,1.4,-.5,2.1,-.7c0,-.1,.1,0,.2,.1c-.1,.6,-.1,1.6,-.1,2.3v6.4m-1.7,-2c0,-.3,0,-.5,-.2,-.8c-.2,-.3,-.5,-.5,-1,-.5c-1.1,0,-1.8,1.1,-1.8,2.4c0,1.7,.9,2.8,2,2.8c.4,0,.8,-.3,.9,-.4c.1,-.1,.1,-.2,.1,-.4Z" class="g4"/>
<path d="M493.1,170.8c.1,0,.1,.4,-.1,.4c-.6,0,-1.3,0,-1.9,0c-.8,0,-1.4,0,-2.1,0c-.2,0,-.2,-.3,-.1,-.4l.5,-.1c.6,-.1,.6,-.2,.6,-1.3v-6.6c-.4,.9,-.6,1.4,-1,2l-1.3,2.9c-.6,1.1,-1.4,2.8,-1.7,3.6c0,.1,-.3,.1,-.4,0c-.2,-.9,-.9,-2.4,-1.3,-3.2L482.9,165c-.3,-.7,-.8,-1.7,-.9,-2.2h-.1c0,.8,0,2.1,-.1,2.7c0,1,0,2.4,0,3.8c0,1,0,1.3,.7,1.4l.5,.1c.1,.1,.1,.4,0,.4c-.6,0,-1.1,0,-1.7,0c-.5,0,-1.1,0,-1.7,0c-.2,0,-.2,-.3,-.1,-.4l.3,-.1c.8,-.1,.9,-.3,1,-1.3c.1,-1,.2,-2,.2,-3.7c.1,-1.1,.2,-2.4,.2,-3.4c0,-.7,-.2,-1.1,-.9,-1.2h-.5c-.1,-.2,-.1,-.5,.1,-.5c.4,0,.9,0,1.5,0c.5,0,1.1,0,1.7,0c0,.9,.4,1.8,.8,2.6l1.8,3.7c.1,.3,.6,1.1,.8,1.5c.2,-.5,.4,-.9,.8,-1.7l1.5,-3.1c.5,-1,1,-2,1.3,-3c.4,0,.9,0,1.3,0c.7,0,1.2,0,1.7,0c.2,.1,.2,.4,0,.5h-.5c-.7,.1,-.9,.4,-.9,1.2c0,2.4,.1,4.8,.2,7.1c0,1.1,.2,1.2,.7,1.3l.5,.1Z" class="g4"/>
<path d="M496.1,167.4q-.3,0,-.3,.2c0,1.4,1,2.6,2.4,2.6c.6,0,1.2,-.2,1.5,-.8c.2,-.1,.4,.1,.4,.3c-.6,1.2,-1.7,1.7,-2.7,1.7c-1.9,0,-3.1,-1.4,-3.1,-3.2c0,-1.8,1.2,-3.5,3.4,-3.5c1.1,0,2.4,.7,2.4,2.1c0,.2,-.1,.3,-.1,.4c-.1,.1,-.5,.2,-1.1,.2h-2.8m1.5,-.6c.4,0,.7,-.1,.8,-.2c.1,0,.1,-.1,.1,-.3c0,-.6,-.3,-1,-1,-1c-1.1,0,-1.6,1,-1.6,1.3c0,.1,0,.2,.2,.2Z" class="g4"/>
<path d="M507.4,168.6c0,1.4,.1,1.9,.4,1.9c.1,0,.4,0,.6,-.1c.2,.1,.2,.5,0,.6c-.8,0,-1.9,.3,-2.5,.6c-.1,0,-.2,-.1,-.2,-.2v-.2c0,-.3,0,-.4,0,-.5h-.1c-.5,.3,-1,.7,-1.8,.7c-1.8,0,-3,-1.5,-3,-3.1c0,-2.3,1.9,-3.6,3.9,-3.6c.4,0,.7,0,.9,.1c.1,0,.1,-.1,.1,-.3v-2.1c0,-1,0,-1.2,-.4,-1.4l-.2,-.1c-.1,-.1,-.1,-.3,0,-.4c.6,-.2,1.5,-.5,2.1,-.7c.1,-.1,.2,0,.2,.1c0,.6,0,1.6,0,2.3v6.4m-1.7,-2c0,-.3,-.1,-.5,-.2,-.8c-.2,-.3,-.6,-.5,-1.1,-.5c-1.1,0,-1.8,1.1,-1.8,2.4c0,1.7,.9,2.8,2,2.8c.4,0,.9,-.3,1,-.4c.1,-.1,.1,-.2,.1,-.4Z" class="g4"/>
<path d="M511.6,169.3c0,1.2,.1,1.3,.6,1.4l.3,.1c.1,.1,.1,.4,0,.4c-.6,0,-1.1,0,-1.7,0c-.6,0,-1.1,0,-1.7,0c-.1,0,-.2,-.3,-.1,-.4l.3,-.1c.6,-.1,.6,-.2,.6,-1.4v-2.4c0,-.7,0,-.9,-.4,-1.1l-.1,-.1c-.1,-.1,-.1,-.3,0,-.4c.8,-.2,1.6,-.6,2,-.9c.1,.1,.2,.1,.3,.2c-.1,.5,-.1,1.3,-.1,1.9v2.8m-1.8,-7.8c0,-.5,.4,-1,1,-1c.6,0,1,.5,1,1c0,.6,-.4,1.1,-1,1.1c-.6,0,-1,-.5,-1,-1.1Z" class="g4"/>
<path d="M518.6,164.9c.2,.2,.3,.4,.3,.8c0,.5,-.2,.8,-.4,.8c-.1,0,-.1,-.1,-.3,-.2c-.3,-.5,-.8,-1,-1.4,-1c-.9,0,-1.9,.9,-1.9,2.4c0,1.3,.9,2.5,2.3,2.5c1.1,0,1.4,-.4,1.7,-.8c.2,0,.4,.1,.4,.3c-.6,1.3,-1.8,1.7,-2.8,1.7c-.9,0,-1.7,-.3,-2.3,-.9c-.5,-.5,-.9,-1.3,-.9,-2.3c0,-1.8,1.4,-3.5,4,-3.5c.4,0,.9,0,1.3,.2Z" class="g4"/>
<path d="M524.7,169.2c0,.9,.2,1.4,.8,1.4c.2,0,.5,-.2,.5,-.2c.1,0,.2,.2,.2,.3c-.4,.5,-1.1,.7,-1.6,.7c-.4,0,-.9,-.1,-1.2,-.4c-.1,-.2,-.2,-.2,-.3,-.2c0,0,-.1,0,-.4,.2c-.3,.2,-.8,.4,-1.3,.4c-1.1,0,-1.7,-.7,-1.7,-1.5c0,-.6,.3,-1.1,1.4,-1.5c.5,-.2,1.1,-.4,1.7,-.7c.3,-.1,.4,-.2,.4,-.4v-.4c0,-.8,-.2,-1.5,-1,-1.5c-.4,0,-.8,.2,-.8,.7c-.1,.3,-.2,.5,-.3,.6c-.3,.1,-.7,.2,-1.1,.2c-.2,0,-.3,-.1,-.3,-.2c0,-.2,.1,-.5,.7,-1c.5,-.5,1.6,-1,2.4,-1c1.3,0,2.1,.6,2,2l-.1,2.5m-1.6,-.6c0,-.2,0,-.3,-.1,-.3c-.1,0,-.4,.1,-.7,.2c-.4,.2,-.9,.4,-.9,1.1c0,.4,.3,.9,.9,.9c.6,0,.8,-.4,.8,-.7Z" class="g4"/>
<path d="M527.2,162.4c0,-1,0,-1.2,-.4,-1.4l-.2,-.1c-.1,-.1,-.1,-.3,0,-.4c.6,-.2,1.4,-.5,2.1,-.7c.1,-.1,.2,0,.2,.1c0,.6,0,1.6,0,2.3v7.1c0,1.2,0,1.3,.6,1.4l.3,.1c.1,.1,.1,.4,0,.4c-.7,0,-1.2,0,-1.8,0c-.5,0,-1.1,0,-1.7,0c-.2,0,-.2,-.3,-.1,-.4l.4,-.1c.5,-.1,.6,-.2,.6,-1.4v-6.9Z" class="g4"/>
<path d="M544.7,163.3c-.1,.1,-.4,.2,-.5,.1c-.3,-1.1,-1,-2.4,-3.1,-2.4c-2.1,0,-4.1,1.5,-4.1,4.7c0,3.4,2.1,5.1,4.2,5.1c2,0,2.9,-1.3,3.3,-2.4c.2,-.1,.4,-.1,.5,.1c-.1,1.1,-.6,2.1,-.8,2.4c-.2,0,-.4,.1,-.5,.2c-.4,.1,-1.5,.3,-2.5,.3c-1.6,0,-3,-.3,-4.1,-1c-1.3,-.9,-2.3,-2.3,-2.3,-4.4c0,-1.9,.8,-3.3,2,-4.3c1.2,-.9,2.8,-1.3,4.4,-1.3c.9,0,2,.1,2.8,.3c.2,.1,.3,.1,.4,.1c.1,.4,.1,1.3,.3,2.5Z" class="g4"/>
<path d="M548.3,169.3c0,1.2,.1,1.3,.6,1.4l.3,.1c.1,.1,.1,.4,0,.4c-.6,0,-1.2,0,-1.7,0c-.6,0,-1.1,0,-1.7,0c-.2,0,-.2,-.3,-.1,-.4l.3,-.1c.6,-.1,.6,-.2,.6,-1.4v-2.4c0,-.7,0,-.9,-.4,-1.1l-.2,-.1c0,-.1,0,-.3,.1,-.4c.8,-.2,1.6,-.6,2,-.9c.1,.1,.2,.1,.3,.2c-.1,.5,-.1,1.3,-.1,1.9v2.8m-1.9,-7.8c0,-.5,.5,-1,1.1,-1c.6,0,1,.5,1,1c0,.6,-.4,1.1,-1,1.1c-.6,0,-1.1,-.5,-1.1,-1.1Z" class="g4"/>
<path d="M552.8,165.6c-.2,0,-.3,0,-.3,.5v2.5c0,1,.2,1.9,1.2,1.9c.3,0,.5,-.1,.8,-.3c.1,0,.2,.2,.2,.3c-.3,.5,-1.1,.9,-2.1,.9c-1.5,0,-1.7,-.9,-1.7,-2v-3.2c0,-.6,-.1,-.6,-.3,-.6H550c-.2,-.1,-.2,-.3,0,-.4c.5,-.2,.9,-.5,1.2,-.7c.3,-.2,.7,-.6,.9,-1c.1,-.1,.4,0,.5,.1v.9q0,.3,.3,.3h1.5c.1,.1,.2,.2,.2,.4c-.1,.2,-.1,.3,-.2,.4h-1.6Z" class="g4"/>
<path d="M554.9,174.3c0,-.5,.4,-.7,.8,-.7h.4c.2,0,.5,-.1,.7,-.3c.3,-.5,.7,-1.4,.7,-2c0,-.3,0,-.6,-.2,-1.2L556,166.7c-.4,-1,-.5,-1.2,-1.1,-1.3l-.4,-.1c-.1,-.1,-.1,-.4,.1,-.5c.5,.1,1.2,.1,1.8,.1c.5,0,1.1,0,1.7,-.1c.1,.1,.1,.4,0,.5l-.5,.1c-.3,.1,-.4,.1,-.1,.8l.7,1.9c.3,.8,.5,1.2,.6,1.2c0,0,.3,-.5,.5,-1l.4,-1.1c.4,-.8,.6,-1.4,.6,-1.5q0,-.2,-.3,-.3l-.5,-.1c-.1,-.1,-.1,-.4,0,-.5c.6,.1,1.2,.1,1.5,.1c.4,0,.9,0,1.3,-.1c.2,.1,.2,.4,.1,.5c-.2,.1,-.8,.1,-1,.4c-.1,.1,-.4,.6,-.9,1.6l-.9,1.6c-.5,1.1,-1.9,3.9,-2.6,5.4c-.3,.6,-.7,.9,-1.2,.9c-.6,0,-.9,-.4,-.9,-.9Z" class="g4"/>
<path d="M631.9,773.2H769.6v-37H631.9v37Zm139.8,1.4H629.8V734.8H771.7v39.8Z" class="g5"/>
<path d="M767.1,799.6c4.7,-12.5,9.6,-25.4,18,-35.9c2.3,-2.9,4.9,-5.6,7.7,-8H792c1.1,.9,.6,2.6,.3,3.8c-.5,1.7,-.9,3.3,-1.4,5c-1,3.3,-2,6.6,-3,9.9c-2.1,6.5,-4.4,13,-6.7,19.4c-1.3,3.7,-2.7,7.3,-4,11h1.1c-2.2,-13.6,-3.7,-27.4,-4.5,-41.2c-.4,.1,-.8,.2,-1.2,.2c3.1,13,4.2,26.3,4.9,39.6c.2,3.8,.3,7.6,.5,11.5c0,.6,1,.8,1.2,.1c1.2,-6.4,2.6,-12.9,4.2,-19.2c.8,-3.2,1.6,-6.3,2.5,-9.5c.4,-1.4,.7,-2.9,1.2,-4.3c.4,-1.3,1,-2.6,2.2,-3.2c-.3,-.1,-.6,-.2,-.8,-.2c2.1,3.1,3.9,6.5,5,10.1c.9,3,.9,6.9,3.4,9.1c2.6,2.2,5.5,.7,7.7,-1.2c2.9,-2.6,5.5,-5.6,7.9,-8.7c.5,-.6,-.3,-1.5,-.8,-.8c-2.1,2.7,-4.5,5.3,-7,7.7c-1.1,1.1,-2.4,2.4,-4,2.8c-1.6,.5,-3.1,-.5,-3.9,-1.9c-.9,-1.4,-1.1,-3.1,-1.5,-4.6c-.3,-1.6,-.8,-3.2,-1.3,-4.7c-1.2,-3,-2.7,-5.8,-4.5,-8.4c-.2,-.3,-.5,-.4,-.8,-.3c-2.4,1.3,-2.9,4.3,-3.5,6.6c-1,3.3,-1.9,6.7,-2.7,10c-1.7,6.8,-3.2,13.6,-4.5,20.4c.4,.1,.8,.1,1.2,.2C778.6,801.4,778.1,788,776,774.7c-.6,-3.8,-1.4,-7.5,-2.2,-11.2c-.2,-.7,-1.2,-.5,-1.2,.1c.8,13.9,2.3,27.8,4.6,41.5c.1,.7,1,.5,1.1,0c5,-13.6,10.1,-27.2,14,-41.2c.5,-1.8,1.2,-3.7,1.5,-5.6c.2,-1.2,.1,-2.6,-1,-3.5c-.2,-.2,-.6,-.2,-.8,0c-10.4,8.8,-16.8,21.2,-21.8,33.6c-1.5,3.6,-2.9,7.3,-4.2,10.9c-.3,.8,.9,1.1,1.1,.3Z" class="g5"/>
</svg>