<?xml version="1.0" encoding="UTF-8"?>
<svg xmlns="http://www.w3.org/2000/svg" version="1.1" width="250" height="250" viewBox="0 0 250 250"><rect x="0" y="0" width="250" height="250" fill="#ffffff"/><g transform="scale(8.621)"><g transform="translate(0,0)"><path fill-rule="evenodd" d="M9 0L9 1L11 1L11 2L9 2L9 3L8 3L8 5L9 5L9 6L8 6L8 7L9 7L9 9L8 9L8 8L5 8L5 9L3 9L3 10L2 10L2 11L4 11L4 12L1 12L1 14L0 14L0 15L1 15L1 14L2 14L2 17L4 17L4 19L3 19L3 20L2 20L2 21L3 21L3 20L5 20L5 21L7 21L7 20L10 20L10 21L12 21L12 22L13 22L13 23L12 23L12 24L11 24L11 25L10 25L10 24L9 24L9 23L11 23L11 22L9 22L9 21L8 21L8 24L9 24L9 26L10 26L10 27L8 27L8 29L10 29L10 27L11 27L11 29L12 29L12 27L13 27L13 26L11 26L11 25L14 25L14 23L15 23L15 24L16 24L16 25L15 25L15 27L16 27L16 28L15 28L15 29L18 29L18 28L17 28L17 27L16 27L16 26L17 26L17 23L18 23L18 24L19 24L19 25L18 25L18 26L21 26L21 29L25 29L25 28L26 28L26 29L27 29L27 27L28 27L28 28L29 28L29 27L28 27L28 26L29 26L29 24L28 24L28 23L27 23L27 22L26 22L26 21L29 21L29 20L26 20L26 21L25 21L25 20L24 20L24 19L26 19L26 18L28 18L28 19L29 19L29 17L27 17L27 14L29 14L29 12L28 12L28 13L27 13L27 14L25 14L25 13L23 13L23 12L22 12L22 11L21 11L21 10L20 10L20 9L21 9L21 8L20 8L20 7L21 7L21 6L20 6L20 7L19 7L19 5L21 5L21 1L20 1L20 4L18 4L18 3L19 3L19 2L18 2L18 0L17 0L17 2L16 2L16 0L13 0L13 1L12 1L12 0ZM13 1L13 2L12 2L12 4L11 4L11 7L10 7L10 6L9 6L9 7L10 7L10 8L11 8L11 10L10 10L10 9L9 9L9 10L7 10L7 9L5 9L5 12L4 12L4 13L5 13L5 14L3 14L3 16L4 16L4 15L5 15L5 17L6 17L6 18L5 18L5 20L7 20L7 19L6 19L6 18L7 18L7 17L6 17L6 16L8 16L8 17L9 17L9 16L10 16L10 15L11 15L11 18L10 18L10 20L11 20L11 19L12 19L12 21L14 21L14 22L15 22L15 20L14 20L14 19L12 19L12 18L15 18L15 17L14 17L14 16L13 16L13 17L12 17L12 15L13 15L13 14L12 14L12 13L13 13L13 12L14 12L14 11L17 11L17 13L16 13L16 12L15 12L15 14L16 14L16 15L15 15L15 16L20 16L20 17L21 17L21 18L20 18L20 19L21 19L21 18L22 18L22 17L23 17L23 18L24 18L24 17L25 17L25 18L26 18L26 17L25 17L25 16L26 16L26 15L24 15L24 16L22 16L22 15L20 15L20 14L22 14L22 12L21 12L21 13L20 13L20 12L19 12L19 11L20 11L20 10L18 10L18 9L20 9L20 8L19 8L19 7L18 7L18 5L17 5L17 3L18 3L18 2L17 2L17 3L16 3L16 2L15 2L15 1ZM14 2L14 4L12 4L12 5L13 5L13 6L12 6L12 9L13 9L13 8L14 8L14 10L15 10L15 9L16 9L16 8L14 8L14 7L15 7L15 5L16 5L16 7L17 7L17 5L16 5L16 3L15 3L15 2ZM9 3L9 5L10 5L10 3ZM13 6L13 7L14 7L14 6ZM0 8L0 11L1 11L1 9L2 9L2 8ZM17 8L17 9L18 9L18 8ZM24 8L24 9L23 9L23 11L24 11L24 12L26 12L26 11L24 11L24 10L25 10L25 9L26 9L26 10L28 10L28 9L26 9L26 8ZM6 10L6 11L7 11L7 12L5 12L5 13L8 13L8 14L5 14L5 15L8 15L8 16L9 16L9 13L10 13L10 14L11 14L11 12L12 12L12 11L13 11L13 10L11 10L11 11L10 11L10 10L9 10L9 11L10 11L10 12L9 12L9 13L8 13L8 11L7 11L7 10ZM19 13L19 14L20 14L20 13ZM17 14L17 15L18 15L18 14ZM28 15L28 16L29 16L29 15ZM0 16L0 21L1 21L1 19L2 19L2 18L1 18L1 16ZM18 18L18 19L16 19L16 20L18 20L18 21L16 21L16 22L20 22L20 21L19 21L19 18ZM22 19L22 20L23 20L23 19ZM21 21L21 24L24 24L24 21ZM22 22L22 23L23 23L23 22ZM25 23L25 24L26 24L26 25L27 25L27 26L28 26L28 25L27 25L27 23ZM21 25L21 26L25 26L25 25ZM22 27L22 28L23 28L23 27ZM19 28L19 29L20 29L20 28ZM0 0L0 7L7 7L7 0ZM1 1L1 6L6 6L6 1ZM2 2L2 5L5 5L5 2ZM22 0L22 7L29 7L29 0ZM23 1L23 6L28 6L28 1ZM24 2L24 5L27 5L27 2ZM0 22L0 29L7 29L7 22ZM1 23L1 28L6 28L6 23ZM2 24L2 27L5 27L5 24Z" fill="#000000"/></g></g></svg>