<?xml version="1.0" encoding="UTF-8"?>
<svg xmlns="http://www.w3.org/2000/svg" version="1.1" width="250" height="250" viewBox="0 0 250 250"><rect x="0" y="0" width="250" height="250" fill="#ffffff"/><g transform="scale(10)"><g transform="translate(0,0)"><path fill-rule="evenodd" d="M8 0L8 1L10 1L10 2L11 2L11 3L10 3L10 4L9 4L9 2L8 2L8 5L9 5L9 6L8 6L8 7L9 7L9 6L10 6L10 7L11 7L11 6L10 6L10 4L11 4L11 3L12 3L12 7L13 7L13 6L14 6L14 7L15 7L15 9L18 9L18 8L17 8L17 4L16 4L16 3L17 3L17 0L16 0L16 2L14 2L14 0L13 0L13 1L12 1L12 0L11 0L11 1L10 1L10 0ZM12 2L12 3L13 3L13 2ZM15 5L15 7L16 7L16 5ZM0 8L0 9L1 9L1 10L0 10L0 12L3 12L3 11L4 11L4 12L5 12L5 11L9 11L9 10L10 10L10 11L12 11L12 12L11 12L11 13L15 13L15 14L16 14L16 15L15 15L15 17L16 17L16 19L15 19L15 18L14 18L14 16L12 16L12 15L13 15L13 14L12 14L12 15L10 15L10 14L9 14L9 13L10 13L10 12L6 12L6 13L4 13L4 15L3 15L3 14L2 14L2 13L1 13L1 15L0 15L0 16L1 16L1 15L2 15L2 17L3 17L3 16L6 16L6 17L8 17L8 18L9 18L9 20L10 20L10 21L8 21L8 25L9 25L9 24L11 24L11 25L15 25L15 24L14 24L14 22L15 22L15 23L16 23L16 22L15 22L15 20L16 20L16 21L17 21L17 22L18 22L18 23L19 23L19 21L20 21L20 24L19 24L19 25L25 25L25 24L23 24L23 23L24 23L24 22L23 22L23 21L22 21L22 20L21 20L21 17L22 17L22 19L23 19L23 20L24 20L24 19L25 19L25 15L24 15L24 14L25 14L25 12L23 12L23 11L21 11L21 10L20 10L20 9L23 9L23 10L24 10L24 9L25 9L25 8L24 8L24 9L23 9L23 8L20 8L20 9L19 9L19 10L18 10L18 11L21 11L21 12L20 12L20 13L19 13L19 12L18 12L18 13L16 13L16 12L17 12L17 10L16 10L16 12L15 12L15 11L14 11L14 9L13 9L13 8L12 8L12 9L11 9L11 10L10 10L10 8L8 8L8 9L7 9L7 8L6 8L6 9L4 9L4 8ZM2 9L2 10L4 10L4 9ZM6 9L6 10L7 10L7 9ZM12 9L12 10L13 10L13 9ZM21 12L21 16L24 16L24 15L22 15L22 14L24 14L24 13L22 13L22 12ZM6 13L6 14L5 14L5 15L6 15L6 16L7 16L7 15L6 15L6 14L7 14L7 13ZM8 14L8 16L9 16L9 17L10 17L10 18L11 18L11 19L10 19L10 20L11 20L11 21L10 21L10 22L9 22L9 23L11 23L11 24L13 24L13 23L11 23L11 21L12 21L12 22L14 22L14 20L15 20L15 19L14 19L14 18L11 18L11 16L9 16L9 14ZM19 14L19 15L20 15L20 14ZM16 15L16 16L17 16L17 15ZM17 17L17 20L20 20L20 17ZM23 17L23 18L24 18L24 17ZM18 18L18 19L19 19L19 18ZM11 19L11 20L13 20L13 19ZM21 22L21 24L22 24L22 22ZM17 24L17 25L18 25L18 24ZM0 0L0 7L7 7L7 0ZM1 1L1 6L6 6L6 1ZM2 2L2 5L5 5L5 2ZM18 0L18 7L25 7L25 0ZM19 1L19 6L24 6L24 1ZM20 2L20 5L23 5L23 2ZM0 18L0 25L7 25L7 18ZM1 19L1 24L6 24L6 19ZM2 20L2 23L5 23L5 20Z" fill="#000000"/></g></g></svg>