<?xml version="1.0" encoding="UTF-8"?>
<svg xmlns="http://www.w3.org/2000/svg" version="1.1" width="250" height="250" viewBox="0 0 250 250"><rect x="0" y="0" width="250" height="250" fill="#ffffff"/><g transform="scale(10)"><g transform="translate(0,0)"><path fill-rule="evenodd" d="M8 0L8 1L10 1L10 2L9 2L9 3L10 3L10 4L11 4L11 3L12 3L12 2L13 2L13 5L14 5L14 7L13 7L13 6L12 6L12 5L11 5L11 6L10 6L10 5L9 5L9 6L8 6L8 8L9 8L9 9L7 9L7 8L6 8L6 9L7 9L7 10L6 10L6 11L7 11L7 12L5 12L5 13L4 13L4 9L5 9L5 8L3 8L3 10L2 10L2 11L1 11L1 9L2 9L2 8L0 8L0 11L1 11L1 12L2 12L2 11L3 11L3 13L4 13L4 16L3 16L3 14L1 14L1 13L0 13L0 17L1 17L1 15L2 15L2 16L3 16L3 17L4 17L4 16L5 16L5 13L7 13L7 14L6 14L6 15L7 15L7 16L6 16L6 17L7 17L7 16L9 16L9 17L8 17L8 18L9 18L9 19L10 19L10 20L8 20L8 22L9 22L9 23L8 23L8 25L9 25L9 24L10 24L10 23L12 23L12 25L13 25L13 23L14 23L14 24L15 24L15 22L19 22L19 21L21 21L21 16L22 16L22 18L24 18L24 19L25 19L25 18L24 18L24 16L25 16L25 14L24 14L24 13L25 13L25 10L24 10L24 9L25 9L25 8L24 8L24 9L19 9L19 8L18 8L18 9L19 9L19 11L17 11L17 1L16 1L16 7L15 7L15 4L14 4L14 3L15 3L15 2L13 2L13 1L12 1L12 2L11 2L11 0ZM14 0L14 1L15 1L15 0ZM10 2L10 3L11 3L11 2ZM9 6L9 7L10 7L10 9L9 9L9 10L10 10L10 11L8 11L8 10L7 10L7 11L8 11L8 12L7 12L7 13L9 13L9 16L11 16L11 18L10 18L10 17L9 17L9 18L10 18L10 19L11 19L11 20L10 20L10 21L9 21L9 22L11 22L11 20L13 20L13 22L12 22L12 23L13 23L13 22L14 22L14 20L15 20L15 19L16 19L16 15L15 15L15 12L16 12L16 11L15 11L15 10L14 10L14 11L13 11L13 9L16 9L16 8L15 8L15 7L14 7L14 8L13 8L13 9L12 9L12 6L11 6L11 7L10 7L10 6ZM10 9L10 10L11 10L11 12L9 12L9 13L10 13L10 15L11 15L11 14L12 14L12 15L13 15L13 14L14 14L14 13L13 13L13 12L12 12L12 9ZM22 10L22 11L24 11L24 10ZM14 11L14 12L15 12L15 11ZM20 11L20 13L17 13L17 14L18 14L18 15L20 15L20 16L21 16L21 15L20 15L20 13L21 13L21 14L23 14L23 13L24 13L24 12L21 12L21 11ZM12 13L12 14L13 14L13 13ZM7 14L7 15L8 15L8 14ZM23 15L23 16L24 16L24 15ZM12 16L12 17L13 17L13 20L14 20L14 19L15 19L15 18L14 18L14 16ZM17 17L17 20L20 20L20 17ZM11 18L11 19L12 19L12 18ZM18 18L18 19L19 19L19 18ZM23 20L23 22L20 22L20 23L17 23L17 24L16 24L16 25L17 25L17 24L21 24L21 25L22 25L22 24L24 24L24 25L25 25L25 21L24 21L24 20ZM21 23L21 24L22 24L22 23ZM0 0L0 7L7 7L7 0ZM1 1L1 6L6 6L6 1ZM2 2L2 5L5 5L5 2ZM18 0L18 7L25 7L25 0ZM19 1L19 6L24 6L24 1ZM20 2L20 5L23 5L23 2ZM0 18L0 25L7 25L7 18ZM1 19L1 24L6 24L6 19ZM2 20L2 23L5 23L5 20Z" fill="#000000"/></g></g></svg>