<?xml version="1.0" encoding="UTF-8" standalone="no"?>
<!DOCTYPE svg PUBLIC "-//W3C//DTD SVG 1.1//EN"
"http://www.w3.org/Graphics/SVG/1.1/DTD/svg11.dtd">
<svg viewBox="0 0 909 1286" version="1.1" xmlns="http://www.w3.org/2000/svg" xmlns:xlink="http://www.w3.org/1999/xlink">
<defs>
<clipPath id="c0"><path d="M0,1286.4V0H908.6V1286.4Z"/></clipPath>
<style type="text/css"><![CDATA[
.g0{
fill: #DDD;
}
.g1{
fill: #2C3E77;
}
.g2{
fill: #F8F8F9;
}
.g3{
fill: #EEE;
}
]]></style>
</defs>
<image clip-path="url(#c0)" preserveAspectRatio="none" x="42" y="39" width="146" height="64" xlink:href="img/1.png"/>
<path fill-rule="evenodd" d="M67.4,344.8H168.6v46.7H57.5V354.7c0,-5.5,4.4,-9.9,9.9,-9.9Zm0,.7H167.8v45.2H58.2v-36c0,-5.1,4.1,-9.2,9.2,-9.2Z" class="g0"/>
<path d="M167.8,344.8H733.2v.7H167.8v-.7Z" class="g0"/>
<path d="M167.8,390.7H733.2v.8H167.8v-.8Z" class="g0"/>
<path d="M167.8,344.8h.8v46.7h-.8V344.8Z" class="g0"/>
<path d="M732.4,344.8h.8v46.7h-.8V344.8Z" class="g0"/>
<path fill-rule="evenodd" d="M732.4,344.8H833.6c5.5,0,9.9,4.4,9.9,9.9v36.8H732.4V344.8Zm.8,.7H833.6c5,0,9.2,4.1,9.2,9.2v36H733.2V345.5Z" class="g0"/>
<path d="M57.5,390.7H168.6v46.8H57.5V390.7Z" class="g1"/>
<path d="M57.5,390.7H168.6v.8H57.5v-.8Z" class="g0"/>
<path d="M57.5,436.7H168.6v.8H57.5v-.8Z" class="g0"/>
<path d="M57.5,390.7h.7v46.8h-.7V390.7Z" class="g0"/>
<path d="M167.8,390.7h.8v46.8h-.8V390.7Z" class="g0"/>
<path d="M167.8,390.7H453.6v46.8H167.8V390.7Z" class="g1"/>
<path d="M167.8,390.7H453.6v.8H167.8v-.8Z" class="g0"/>
<path d="M167.8,436.7H453.6v.8H167.8v-.8Z" class="g0"/>
<path d="M167.8,390.7h.8v46.8h-.8V390.7Z" class="g0"/>
<path d="M452.8,390.7h.8v46.8h-.8V390.7Z" class="g0"/>
<path d="M452.8,390.7H734v46.8H452.8V390.7Z" class="g1"/>
<path d="M452.8,390.7H734v.8H452.8v-.8Z" class="g0"/>
<path d="M452.8,436.7H734v.8H452.8v-.8Z" class="g0"/>
<path d="M452.8,390.7h.8v46.8h-.8V390.7Z" class="g0"/>
<path d="M733.2,390.7h.8v46.8h-.8V390.7Z" class="g0"/>
<path d="M733.2,390.7H844.3v46.8H733.2V390.7Z" class="g1"/>
<path d="M733.2,390.7H844.3v.8H733.2v-.8Z" class="g0"/>
<path d="M733.2,436.7H844.3v.8H733.2v-.8Z" class="g0"/>
<path d="M733.2,390.7h.8v46.8h-.8V390.7Z" class="g0"/>
<path d="M843.5,390.7h.8v46.8h-.8V390.7Z" class="g0"/>
<path d="M57.5,436.7H168.6v.8H57.5v-.8Z" class="g0"/>
<path d="M57.5,482.7H168.6v.7H57.5v-.7Z" class="g0"/>
<path d="M57.5,436.7h.7v46.7h-.7V436.7Z" class="g0"/>
<path d="M167.8,436.7h.8v46.7h-.8V436.7Z" class="g0"/>
<path d="M167.8,436.7H733.2v.8H167.8v-.8Z" class="g0"/>
<path d="M167.8,482.7H733.2v.7H167.8v-.7Z" class="g0"/>
<path d="M167.8,436.7h.8v46.7h-.8V436.7Z" class="g0"/>
<path d="M732.4,436.7h.8v46.7h-.8V436.7Z" class="g0"/>
<path d="M732.4,436.7H843.5v.8H732.4v-.8Z" class="g0"/>
<path d="M732.4,482.7H843.5v.7H732.4v-.7Z" class="g0"/>
<path d="M732.4,436.7h.8v46.7h-.8V436.7Z" class="g0"/>
<path d="M842.8,436.7h.7v46.7h-.7V436.7Z" class="g0"/>
<path d="M56.7,482.7H168.6v46.7H56.7V482.7Z" class="g2"/>
<path d="M56.7,482.7H168.6v.7H56.7v-.7Z" class="g0"/>
<path d="M56.7,528.6H168.6v.8H56.7v-.8Z" class="g0"/>
<path d="M56.7,482.7h.8v46.7h-.8V482.7Z" class="g0"/>
<path d="M167.8,482.7h.8v46.7h-.8V482.7Z" class="g0"/>
<path d="M167.8,482.7H453.6v46.7H167.8V482.7Z" class="g2"/>
<path d="M167.8,482.7H453.6v.7H167.8v-.7Z" class="g0"/>
<path d="M167.8,528.6H453.6v.8H167.8v-.8Z" class="g0"/>
<path d="M167.8,482.7h.8v46.7h-.8V482.7Z" class="g0"/>
<path d="M452.8,482.7h.8v46.7h-.8V482.7Z" class="g0"/>
<path d="M452.8,483.4H734v46.8H452.8V483.4Z" class="g2"/>
<path d="M452.8,483.4H734v.8H452.8v-.8Z" class="g0"/>
<path d="M452.8,529.4H734v.8H452.8v-.8Z" class="g0"/>
<path d="M452.8,483.4h.8v46.8h-.8V483.4Z" class="g0"/>
<path d="M733.2,483.4h.8v46.8h-.8V483.4Z" class="g0"/>
<path d="M733.2,482.7H844.3v46.7H733.2V482.7Z" class="g2"/>
<path d="M733.2,482.7H844.3v.7H733.2v-.7Z" class="g0"/>
<path d="M733.2,528.6H844.3v.8H733.2v-.8Z" class="g0"/>
<path d="M733.2,482.7h.8v46.7h-.8V482.7Z" class="g0"/>
<path d="M843.5,482.7h.8v46.7h-.8V482.7Z" class="g0"/>
<path d="M57.5,529.4H168.6v.8H57.5v-.8Z" class="g0"/>
<path d="M57.5,575.4H168.6v.7H57.5v-.7Z" class="g0"/>
<path d="M57.5,529.4h.7v46.7h-.7V529.4Z" class="g0"/>
<path d="M167.8,529.4h.8v46.7h-.8V529.4Z" class="g0"/>
<path d="M167.8,529.4H733.2v.8H167.8v-.8Z" class="g0"/>
<path d="M167.8,575.4H733.2v.7H167.8v-.7Z" class="g0"/>
<path d="M167.8,529.4h.8v46.7h-.8V529.4Z" class="g0"/>
<path d="M732.4,529.4h.8v46.7h-.8V529.4Z" class="g0"/>
<path d="M732.4,529.4H843.5v.8H732.4v-.8Z" class="g0"/>
<path d="M732.4,575.4H843.5v.7H732.4v-.7Z" class="g0"/>
<path d="M732.4,529.4h.8v46.7h-.8V529.4Z" class="g0"/>
<path d="M842.8,529.4h.7v46.7h-.7V529.4Z" class="g0"/>
<path d="M57.5,575.4H168.6v46.7H57.5V575.4Z" class="g2"/>
<path d="M57.5,575.4H168.6v.7H57.5v-.7Z" class="g0"/>
<path d="M57.5,621.3H168.6v.8H57.5v-.8Z" class="g0"/>
<path d="M57.5,575.4h.7v46.7h-.7V575.4Z" class="g0"/>
<path d="M167.8,575.4h.8v46.7h-.8V575.4Z" class="g0"/>
<path d="M167.8,575.4H453.6v46.7H167.8V575.4Z" class="g2"/>
<path d="M167.8,575.4H453.6v.7H167.8v-.7Z" class="g0"/>
<path d="M167.8,621.3H453.6v.8H167.8v-.8Z" class="g0"/>
<path d="M167.8,575.4h.8v46.7h-.8V575.4Z" class="g0"/>
<path d="M452.8,575.4h.8v46.7h-.8V575.4Z" class="g0"/>
<path d="M452.8,575.4H734v46.7H452.8V575.4Z" class="g2"/>
<path d="M452.8,575.4H734v.7H452.8v-.7Z" class="g0"/>
<path d="M452.8,621.3H734v.8H452.8v-.8Z" class="g0"/>
<path d="M452.8,575.4h.8v46.7h-.8V575.4Z" class="g0"/>
<path d="M733.2,575.4h.8v46.7h-.8V575.4Z" class="g0"/>
<path d="M733.2,575.4H844.3v46.7H733.2V575.4Z" class="g2"/>
<path d="M733.2,575.4H844.3v.7H733.2v-.7Z" class="g0"/>
<path d="M733.2,621.3H844.3v.8H733.2v-.8Z" class="g0"/>
<path d="M733.2,575.4h.8v46.7h-.8V575.4Z" class="g0"/>
<path d="M843.5,575.4h.8v46.7h-.8V575.4Z" class="g0"/>
<path d="M57.5,621.3H168.6v.8H57.5v-.8Z" class="g0"/>
<path d="M57.5,667.3H168.6v.8H57.5v-.8Z" class="g0"/>
<path d="M57.5,621.3h.7v46.8h-.7V621.3Z" class="g0"/>
<path d="M167.8,621.3h.8v46.8h-.8V621.3Z" class="g0"/>
<path d="M167.8,621.3H453.6v.8H167.8v-.8Z" class="g0"/>
<path d="M167.8,667.3H453.6v.8H167.8v-.8Z" class="g0"/>
<path d="M167.8,621.3h.8v46.8h-.8V621.3Z" class="g0"/>
<path d="M452.8,621.3h.8v46.8h-.8V621.3Z" class="g0"/>
<path d="M452.8,621.3H734v.8H452.8v-.8Z" class="g0"/>
<path d="M452.8,667.3H734v.8H452.8v-.8Z" class="g0"/>
<path d="M452.8,621.3h.8v46.8h-.8V621.3Z" class="g0"/>
<path d="M733.2,621.3h.8v46.8h-.8V621.3Z" class="g0"/>
<path d="M733.2,621.3H844.3v.8H733.2v-.8Z" class="g0"/>
<path d="M733.2,667.3H844.3v.8H733.2v-.8Z" class="g0"/>
<path d="M733.2,621.3h.8v46.8h-.8V621.3Z" class="g0"/>
<path d="M843.5,621.3h.8v46.8h-.8V621.3Z" class="g0"/>
<path d="M58.2,667.3H168.6V714H58.2V667.3Z" class="g2"/>
<path d="M58.2,667.3H168.6v.8H58.2v-.8Z" class="g0"/>
<path d="M58.2,713.3H168.6v.7H58.2v-.7Z" class="g0"/>
<path d="M58.2,667.3H59V714h-.8V667.3Z" class="g0"/>
<path d="M167.8,667.3h.8V714h-.8V667.3Z" class="g0"/>
<path d="M167.8,667.3H453.6V714H167.8V667.3Z" class="g2"/>
<path d="M167.8,667.3H453.6v.8H167.8v-.8Z" class="g0"/>
<path d="M167.8,713.3H453.6v.7H167.8v-.7Z" class="g0"/>
<path d="M167.8,667.3h.8V714h-.8V667.3Z" class="g0"/>
<path d="M452.8,667.3h.8V714h-.8V667.3Z" class="g0"/>
<path d="M452.8,668.1H733.2v46.7H452.8V668.1Z" class="g2"/>
<path d="M452.8,668.1H733.2v.7H452.8v-.7Z" class="g0"/>
<path d="M452.8,714H733.2v.8H452.8V714Z" class="g0"/>
<path d="M452.8,668.1h.8v46.7h-.8V668.1Z" class="g0"/>
<path d="M732.4,668.1h.8v46.7h-.8V668.1Z" class="g0"/>
<path d="M732.4,667.3H843.5V714H732.4V667.3Z" class="g2"/>
<path d="M732.4,667.3H843.5v.8H732.4v-.8Z" class="g0"/>
<path d="M732.4,713.3H843.5v.7H732.4v-.7Z" class="g0"/>
<path d="M732.4,667.3h.8V714h-.8V667.3Z" class="g0"/>
<path d="M842.8,667.3h.7V714h-.7V667.3Z" class="g0"/>
<path fill-rule="evenodd" d="M57.5,714H168.6v46.8H67.4c-5.5,0,-9.9,-4.5,-9.9,-10V714Zm.7,.8H167.8V760H67.4c-5.1,0,-9.2,-4.1,-9.2,-9.2v-36Z" class="g0"/>
<path d="M167.8,714H453.6v.8H167.8V714Z" class="g0"/>
<path d="M167.8,760H453.6v.8H167.8V760Z" class="g0"/>
<path d="M167.8,714h.8v46.8h-.8V714Z" class="g0"/>
<path d="M452.8,714h.8v46.8h-.8V714Z" class="g0"/>
<path d="M452.8,714H734v.8H452.8V714Z" class="g0"/>
<path d="M452.8,760H734v.8H452.8V760Z" class="g0"/>
<path d="M452.8,714h.8v46.8h-.8V714Z" class="g0"/>
<path d="M733.2,714h.8v46.8h-.8V714Z" class="g0"/>
<path fill-rule="evenodd" d="M733.2,714H844.3v36.8c0,5.5,-4.5,10,-10,10H733.2V714Zm.8,.8H843.5v36c0,5.1,-4.1,9.2,-9.2,9.2H734V714.8Z" class="g0"/>
<image clip-path="url(#c0)" preserveAspectRatio="none" x="118" y="811" width="138" height="137" xlink:href="img/2.jpg"/>
<path d="M452.8,876.5h2.3v206.8h-2.3V876.5Z" class="g3"/>
<g clip-path="url(#c0)">
<image preserveAspectRatio="none" x="636" y="876" width="153" height="128" xlink:href="img/3.png"/>
<image preserveAspectRatio="none" x="729" y="1129" width="138" height="65" xlink:href="img/4.png"/>
<image preserveAspectRatio="none" x="602" y="0" width="307" height="124" xlink:href="img/5.png"/>
<image preserveAspectRatio="none" x="311" y="0" width="268" height="127" xlink:href="img/6.png"/>
</g>
</svg>