<?xml version="1.0" encoding="UTF-8" standalone="no"?>
<!DOCTYPE svg PUBLIC "-//W3C//DTD SVG 1.1//EN"
"http://www.w3.org/Graphics/SVG/1.1/DTD/svg11.dtd">
<svg viewBox="0 0 909 1286" version="1.1" xmlns="http://www.w3.org/2000/svg" xmlns:xlink="http://www.w3.org/1999/xlink">
<defs>
<clipPath id="c0"><path d="M0,1286.4V0H908.6V1286.4Z"/></clipPath>
<clipPath id="c1"><path d="M68.2,846.6c-5.5,0,-10,-4.5,-10,-10V799.9H168.6v46.7Z"/></clipPath>
<clipPath id="c2"><path d="M732.4,846.6V799.9H843.5v36.7c0,5.5,-4.4,10,-9.9,10Z"/></clipPath>
<style type="text/css"><![CDATA[
.g0{
fill: #DDD;
}
.g1{
fill: #2C3E77;
}
.g2{
fill: #F8F8F9;
}
.g3{
fill: #EEE;
}
]]></style>
</defs>
<image clip-path="url(#c0)" preserveAspectRatio="none" x="42" y="39" width="146" height="64" xlink:href="img/1.png"/>
<path fill-rule="evenodd" d="M67.4,291.1H168.6v46.8H57.5V301.1c0,-5.5,4.4,-10,9.9,-10Zm0,.8H167.8v45.2H58.2v-36c0,-5.1,4.1,-9.2,9.2,-9.2Z" class="g0"/>
<path d="M167.8,291.1H733.2v.8H167.8v-.8Z" class="g0"/>
<path d="M167.8,337.1H733.2v.8H167.8v-.8Z" class="g0"/>
<path d="M167.8,291.1h.8v46.8h-.8V291.1Z" class="g0"/>
<path d="M732.4,291.1h.8v46.8h-.8V291.1Z" class="g0"/>
<path fill-rule="evenodd" d="M732.4,291.1H833.6c5.5,0,9.9,4.5,9.9,10v36.8H732.4V291.1Zm.8,.8H833.6c5,0,9.2,4.1,9.2,9.2v36H733.2V291.9Z" class="g0"/>
<path d="M57.5,337.9H168.6v46.7H57.5V337.9Z" class="g1"/>
<path d="M57.5,337.9H168.6v.7H57.5v-.7Z" class="g0"/>
<path d="M57.5,383.8H168.6v.8H57.5v-.8Z" class="g0"/>
<path d="M57.5,337.9h.7v46.7h-.7V337.9Z" class="g0"/>
<path d="M167.8,337.9h.8v46.7h-.8V337.9Z" class="g0"/>
<path d="M167.8,337.1H453.6v46.7H167.8V337.1Z" class="g1"/>
<path d="M167.8,337.1H453.6v.8H167.8v-.8Z" class="g0"/>
<path d="M167.8,383.1H453.6v.7H167.8v-.7Z" class="g0"/>
<path d="M167.8,337.1h.8v46.7h-.8V337.1Z" class="g0"/>
<path d="M452.8,337.1h.8v46.7h-.8V337.1Z" class="g0"/>
<path d="M452.8,337.1H734v46.7H452.8V337.1Z" class="g1"/>
<path d="M452.8,337.1H734v.8H452.8v-.8Z" class="g0"/>
<path d="M452.8,383.1H734v.7H452.8v-.7Z" class="g0"/>
<path d="M452.8,337.1h.8v46.7h-.8V337.1Z" class="g0"/>
<path d="M733.2,337.1h.8v46.7h-.8V337.1Z" class="g0"/>
<path d="M733.2,337.1H844.3v46.7H733.2V337.1Z" class="g1"/>
<path d="M733.2,337.1H844.3v.8H733.2v-.8Z" class="g0"/>
<path d="M733.2,383.1H844.3v.7H733.2v-.7Z" class="g0"/>
<path d="M733.2,337.1h.8v46.7h-.8V337.1Z" class="g0"/>
<path d="M843.5,337.1h.8v46.7h-.8V337.1Z" class="g0"/>
<path d="M57.5,384.6H168.6v46.7H57.5V384.6Z" class="g1"/>
<path d="M57.5,384.6H168.6v.8H57.5v-.8Z" class="g0"/>
<path d="M57.5,430.6H168.6v.7H57.5v-.7Z" class="g0"/>
<path d="M57.5,384.6h.7v46.7h-.7V384.6Z" class="g0"/>
<path d="M167.8,384.6h.8v46.7h-.8V384.6Z" class="g0"/>
<path d="M167.8,383.8H453.6v46.8H167.8V383.8Z" class="g1"/>
<path d="M167.8,383.8H453.6v.8H167.8v-.8Z" class="g0"/>
<path d="M167.8,429.8H453.6v.8H167.8v-.8Z" class="g0"/>
<path d="M167.8,383.8h.8v46.8h-.8V383.8Z" class="g0"/>
<path d="M452.8,383.8h.8v46.8h-.8V383.8Z" class="g0"/>
<path d="M452.8,383.8H734v46.8H452.8V383.8Z" class="g1"/>
<path d="M452.8,383.8H734v.8H452.8v-.8Z" class="g0"/>
<path d="M452.8,429.8H734v.8H452.8v-.8Z" class="g0"/>
<path d="M452.8,383.8h.8v46.8h-.8V383.8Z" class="g0"/>
<path d="M733.2,383.8h.8v46.8h-.8V383.8Z" class="g0"/>
<path d="M733.2,383.8H844.3v46.8H733.2V383.8Z" class="g1"/>
<path d="M733.2,383.8H844.3v.8H733.2v-.8Z" class="g0"/>
<path d="M733.2,429.8H844.3v.8H733.2v-.8Z" class="g0"/>
<path d="M733.2,383.8h.8v46.8h-.8V383.8Z" class="g0"/>
<path d="M843.5,383.8h.8v46.8h-.8V383.8Z" class="g0"/>
<path d="M57.5,430.6H168.6v46.7H57.5V430.6Z" class="g1"/>
<path d="M57.5,430.6H168.6v.7H57.5v-.7Z" class="g0"/>
<path d="M57.5,476.5H168.6v.8H57.5v-.8Z" class="g0"/>
<path d="M57.5,430.6h.7v46.7h-.7V430.6Z" class="g0"/>
<path d="M167.8,430.6h.8v46.7h-.8V430.6Z" class="g0"/>
<path d="M167.8,430.6H453.6v46.7H167.8V430.6Z" class="g1"/>
<path d="M167.8,430.6H453.6v.7H167.8v-.7Z" class="g0"/>
<path d="M167.8,476.5H453.6v.8H167.8v-.8Z" class="g0"/>
<path d="M167.8,430.6h.8v46.7h-.8V430.6Z" class="g0"/>
<path d="M452.8,430.6h.8v46.7h-.8V430.6Z" class="g0"/>
<path d="M452.8,430.6H734v46.7H452.8V430.6Z" class="g1"/>
<path d="M452.8,430.6H734v.7H452.8v-.7Z" class="g0"/>
<path d="M452.8,476.5H734v.8H452.8v-.8Z" class="g0"/>
<path d="M452.8,430.6h.8v46.7h-.8V430.6Z" class="g0"/>
<path d="M733.2,430.6h.8v46.7h-.8V430.6Z" class="g0"/>
<path d="M733.2,430.6H844.3v46.7H733.2V430.6Z" class="g1"/>
<path d="M733.2,430.6H844.3v.7H733.2v-.7Z" class="g0"/>
<path d="M733.2,476.5H844.3v.8H733.2v-.8Z" class="g0"/>
<path d="M733.2,430.6h.8v46.7h-.8V430.6Z" class="g0"/>
<path d="M843.5,430.6h.8v46.7h-.8V430.6Z" class="g0"/>
<path d="M57.5,476.5H168.6v.8H57.5v-.8Z" class="g0"/>
<path d="M57.5,522.5H168.6v.8H57.5v-.8Z" class="g0"/>
<path d="M57.5,476.5h.7v46.8h-.7V476.5Z" class="g0"/>
<path d="M167.8,476.5h.8v46.8h-.8V476.5Z" class="g0"/>
<path d="M167.8,476.5H733.2v.8H167.8v-.8Z" class="g0"/>
<path d="M167.8,522.5H733.2v.8H167.8v-.8Z" class="g0"/>
<path d="M167.8,476.5h.8v46.8h-.8V476.5Z" class="g0"/>
<path d="M732.4,476.5h.8v46.8h-.8V476.5Z" class="g0"/>
<path d="M732.4,476.5H843.5v.8H732.4v-.8Z" class="g0"/>
<path d="M732.4,522.5H843.5v.8H732.4v-.8Z" class="g0"/>
<path d="M732.4,476.5h.8v46.8h-.8V476.5Z" class="g0"/>
<path d="M842.8,476.5h.7v46.8h-.7V476.5Z" class="g0"/>
<path d="M56.7,522.5H168.6v46.7H56.7V522.5Z" class="g2"/>
<path d="M56.7,522.5H168.6v.8H56.7v-.8Z" class="g0"/>
<path d="M56.7,568.5H168.6v.7H56.7v-.7Z" class="g0"/>
<path d="M56.7,522.5h.8v46.7h-.8V522.5Z" class="g0"/>
<path d="M167.8,522.5h.8v46.7h-.8V522.5Z" class="g0"/>
<path d="M167.8,522.5H453.6v46.7H167.8V522.5Z" class="g2"/>
<path d="M167.8,522.5H453.6v.8H167.8v-.8Z" class="g0"/>
<path d="M167.8,568.5H453.6v.7H167.8v-.7Z" class="g0"/>
<path d="M167.8,522.5h.8v46.7h-.8V522.5Z" class="g0"/>
<path d="M452.8,522.5h.8v46.7h-.8V522.5Z" class="g0"/>
<path d="M452.8,523.3H734V570H452.8V523.3Z" class="g2"/>
<path d="M452.8,523.3H734v.7H452.8v-.7Z" class="g0"/>
<path d="M452.8,569.2H734v.8H452.8v-.8Z" class="g0"/>
<path d="M452.8,523.3h.8V570h-.8V523.3Z" class="g0"/>
<path d="M733.2,523.3h.8V570h-.8V523.3Z" class="g0"/>
<path d="M733.2,522.5H844.3v46.7H733.2V522.5Z" class="g2"/>
<path d="M733.2,522.5H844.3v.8H733.2v-.8Z" class="g0"/>
<path d="M733.2,568.5H844.3v.7H733.2v-.7Z" class="g0"/>
<path d="M733.2,522.5h.8v46.7h-.8V522.5Z" class="g0"/>
<path d="M843.5,522.5h.8v46.7h-.8V522.5Z" class="g0"/>
<path d="M57.5,569.2H168.6v.8H57.5v-.8Z" class="g0"/>
<path d="M57.5,615.2H168.6v.8H57.5v-.8Z" class="g0"/>
<path d="M57.5,569.2h.7V616h-.7V569.2Z" class="g0"/>
<path d="M167.8,569.2h.8V616h-.8V569.2Z" class="g0"/>
<path d="M167.8,569.2H733.2v.8H167.8v-.8Z" class="g0"/>
<path d="M167.8,615.2H733.2v.8H167.8v-.8Z" class="g0"/>
<path d="M167.8,569.2h.8V616h-.8V569.2Z" class="g0"/>
<path d="M732.4,569.2h.8V616h-.8V569.2Z" class="g0"/>
<path d="M732.4,569.2H843.5v.8H732.4v-.8Z" class="g0"/>
<path d="M732.4,615.2H843.5v.8H732.4v-.8Z" class="g0"/>
<path d="M732.4,569.2h.8V616h-.8V569.2Z" class="g0"/>
<path d="M842.8,569.2h.7V616h-.7V569.2Z" class="g0"/>
<path d="M57.5,615.2H168.6v46.7H57.5V615.2Z" class="g2"/>
<path d="M57.5,615.2H168.6v.8H57.5v-.8Z" class="g0"/>
<path d="M57.5,661.2H168.6v.7H57.5v-.7Z" class="g0"/>
<path d="M57.5,615.2h.7v46.7h-.7V615.2Z" class="g0"/>
<path d="M167.8,615.2h.8v46.7h-.8V615.2Z" class="g0"/>
<path d="M167.8,615.2H453.6v46.7H167.8V615.2Z" class="g2"/>
<path d="M167.8,615.2H453.6v.8H167.8v-.8Z" class="g0"/>
<path d="M167.8,661.2H453.6v.7H167.8v-.7Z" class="g0"/>
<path d="M167.8,615.2h.8v46.7h-.8V615.2Z" class="g0"/>
<path d="M452.8,615.2h.8v46.7h-.8V615.2Z" class="g0"/>
<path d="M452.8,615.2H734v46.7H452.8V615.2Z" class="g2"/>
<path d="M452.8,615.2H734v.8H452.8v-.8Z" class="g0"/>
<path d="M452.8,661.2H734v.7H452.8v-.7Z" class="g0"/>
<path d="M452.8,615.2h.8v46.7h-.8V615.2Z" class="g0"/>
<path d="M733.2,615.2h.8v46.7h-.8V615.2Z" class="g0"/>
<path d="M733.2,615.2H844.3v46.7H733.2V615.2Z" class="g2"/>
<path d="M733.2,615.2H844.3v.8H733.2v-.8Z" class="g0"/>
<path d="M733.2,661.2H844.3v.7H733.2v-.7Z" class="g0"/>
<path d="M733.2,615.2h.8v46.7h-.8V615.2Z" class="g0"/>
<path d="M843.5,615.2h.8v46.7h-.8V615.2Z" class="g0"/>
<path d="M57.5,661.2H168.6v.7H57.5v-.7Z" class="g0"/>
<path d="M57.5,707.2H168.6v.7H57.5v-.7Z" class="g0"/>
<path d="M57.5,661.2h.7v46.7h-.7V661.2Z" class="g0"/>
<path d="M167.8,661.2h.8v46.7h-.8V661.2Z" class="g0"/>
<path d="M167.8,661.2H453.6v.7H167.8v-.7Z" class="g0"/>
<path d="M167.8,707.2H453.6v.7H167.8v-.7Z" class="g0"/>
<path d="M167.8,661.2h.8v46.7h-.8V661.2Z" class="g0"/>
<path d="M452.8,661.2h.8v46.7h-.8V661.2Z" class="g0"/>
<path d="M452.8,661.2H734v.7H452.8v-.7Z" class="g0"/>
<path d="M452.8,707.2H734v.7H452.8v-.7Z" class="g0"/>
<path d="M452.8,661.2h.8v46.7h-.8V661.2Z" class="g0"/>
<path d="M733.2,661.2h.8v46.7h-.8V661.2Z" class="g0"/>
<path d="M733.2,661.2H844.3v.7H733.2v-.7Z" class="g0"/>
<path d="M733.2,707.2H844.3v.7H733.2v-.7Z" class="g0"/>
<path d="M733.2,661.2h.8v46.7h-.8V661.2Z" class="g0"/>
<path d="M843.5,661.2h.8v46.7h-.8V661.2Z" class="g0"/>
<path d="M58.2,707.2H168.6v46.7H58.2V707.2Z" class="g2"/>
<path d="M58.2,707.2H168.6v.7H58.2v-.7Z" class="g0"/>
<path d="M58.2,753.1H168.6v.8H58.2v-.8Z" class="g0"/>
<path d="M58.2,707.2H59v46.7h-.8V707.2Z" class="g0"/>
<path d="M167.8,707.2h.8v46.7h-.8V707.2Z" class="g0"/>
<path d="M167.8,707.2H453.6v46.7H167.8V707.2Z" class="g2"/>
<path d="M167.8,707.2H453.6v.7H167.8v-.7Z" class="g0"/>
<path d="M167.8,753.1H453.6v.8H167.8v-.8Z" class="g0"/>
<path d="M167.8,707.2h.8v46.7h-.8V707.2Z" class="g0"/>
<path d="M452.8,707.2h.8v46.7h-.8V707.2Z" class="g0"/>
<path d="M452.8,707.9H733.2v46.8H452.8V707.9Z" class="g2"/>
<path d="M452.8,707.9H733.2v.8H452.8v-.8Z" class="g0"/>
<path d="M452.8,753.9H733.2v.8H452.8v-.8Z" class="g0"/>
<path d="M452.8,707.9h.8v46.8h-.8V707.9Z" class="g0"/>
<path d="M732.4,707.9h.8v46.8h-.8V707.9Z" class="g0"/>
<path d="M732.4,707.2H843.5v46.7H732.4V707.2Z" class="g2"/>
<path d="M732.4,707.2H843.5v.7H732.4v-.7Z" class="g0"/>
<path d="M732.4,753.1H843.5v.8H732.4v-.8Z" class="g0"/>
<path d="M732.4,707.2h.8v46.7h-.8V707.2Z" class="g0"/>
<path d="M842.8,707.2h.7v46.7h-.7V707.2Z" class="g0"/>
<path d="M57.5,753.9H168.6v.8H57.5v-.8Z" class="g0"/>
<path d="M57.5,799.9H168.6v.7H57.5v-.7Z" class="g0"/>
<path d="M57.5,753.9h.7v46.7h-.7V753.9Z" class="g0"/>
<path d="M167.8,753.9h.8v46.7h-.8V753.9Z" class="g0"/>
<path d="M167.8,753.9H453.6v.8H167.8v-.8Z" class="g0"/>
<path d="M167.8,799.9H453.6v.7H167.8v-.7Z" class="g0"/>
<path d="M167.8,753.9h.8v46.7h-.8V753.9Z" class="g0"/>
<path d="M452.8,753.9h.8v46.7h-.8V753.9Z" class="g0"/>
<path d="M452.8,753.9H734v.8H452.8v-.8Z" class="g0"/>
<path d="M452.8,799.9H734v.7H452.8v-.7Z" class="g0"/>
<path d="M452.8,753.9h.8v46.7h-.8V753.9Z" class="g0"/>
<path d="M733.2,753.9h.8v46.7h-.8V753.9Z" class="g0"/>
<path d="M733.2,753.9H844.3v.8H733.2v-.8Z" class="g0"/>
<path d="M733.2,799.9H844.3v.7H733.2v-.7Z" class="g0"/>
<path d="M733.2,753.9h.8v46.7h-.8V753.9Z" class="g0"/>
<path d="M843.5,753.9h.8v46.7h-.8V753.9Z" class="g0"/>
<image clip-path="url(#c1)" preserveAspectRatio="none" x="57" y="800" width="113" height="48" xlink:href="img/2.png"/>
<path d="M167.8,799.9H453.6v46.7H167.8V799.9Z" class="g2"/>
<path d="M167.8,799.9H453.6v.7H167.8v-.7Z" class="g0"/>
<path d="M167.8,845.8H453.6v.8H167.8v-.8Z" class="g0"/>
<path d="M167.8,799.9h.8v46.7h-.8V799.9Z" class="g0"/>
<path d="M452.8,799.9h.8v46.7h-.8V799.9Z" class="g0"/>
<path d="M452.8,800.6H733.2v46.8H452.8V800.6Z" class="g2"/>
<path d="M452.8,800.6H733.2v.8H452.8v-.8Z" class="g0"/>
<path d="M452.8,846.6H733.2v.8H452.8v-.8Z" class="g0"/>
<path d="M452.8,800.6h.8v46.8h-.8V800.6Z" class="g0"/>
<path d="M732.4,800.6h.8v46.8h-.8V800.6Z" class="g0"/>
<image clip-path="url(#c2)" preserveAspectRatio="none" x="732" y="800" width="112" height="48" xlink:href="img/3.png"/>
<image clip-path="url(#c0)" preserveAspectRatio="none" x="118" y="852" width="138" height="138" xlink:href="img/4.jpg"/>
<path d="M452.8,895.6h2.3v206.9h-2.3V895.6Z" class="g3"/>
<g clip-path="url(#c0)">
<image preserveAspectRatio="none" x="636" y="896" width="153" height="128" xlink:href="img/5.png"/>
<image preserveAspectRatio="none" x="729" y="1148" width="138" height="65" xlink:href="img/6.png"/>
<image preserveAspectRatio="none" x="602" y="0" width="307" height="124" xlink:href="img/7.png"/>
<image preserveAspectRatio="none" x="311" y="0" width="268" height="127" xlink:href="img/8.png"/>
</g>
</svg>