<svg xmlns="http://www.w3.org/2000/svg" xmlns:xlink="http://www.w3.org/1999/xlink" id="body_1" preserveAspectRatio="xMinYMin meet" viewBox="0 0 793 1123"><defs><clipPath id="1"><path id="" clip-rule="evenodd" transform="matrix(1 0 0 1 0 0)" d="M0 842L0 0L0 0L595 0L595 0L595 842L595 842L0 842z" /></clipPath><clipPath id="2"><path id="" clip-rule="evenodd" transform="matrix(1 0 0 1 0 0)" d="M0 0L594.75 0L594.75 0L594.75 841.9774L594.75 841.9774L0 841.9774L0 841.9774L0 0z" /></clipPath></defs><g transform="matrix(1.333333 0 0 1.333333 0 0)"><g clip-path="url(#1)"><g clip-path="url(#2)"><g transform="matrix(0.1200004 0 0 0.1202962 27.58115 25.57526)"><g transform="matrix(1 0 0 1 0 0)"><image x="0" y="0" xlink:href="img_01.png" width="794" height="346" /></g></g><path id="62" transform="matrix(1 0 0 -1 0 842)" d="M44.12985 615.8345L109.8232 615.8345L109.8232 615.8345L109.8232 586.2475L109.8232 586.2475L38.11214 586.2475L38.11214 586.2475L38.11214 609.8168C 38.11214 613.1386 40.80807 615.8345 44.12985 615.8345zM44.12985 616.336L110.3246 616.336L110.3246 616.336L110.3246 585.746L110.3246 585.746L37.61066 585.746L37.61066 585.746L37.61066 609.8168C 37.61066 613.4154 40.53126 616.336 44.12985 616.336z" stroke="none" fill="#DDDDDD" fill-rule="evenodd" /><path id="71" transform="matrix(1 0 0 -1 0 842)" d="M109.8231 616.336L479.9121 616.336L479.9121 615.8345L109.8231 615.8345z" stroke="none" fill="#DDDDDD" fill-rule="nonzero" /><path id="72" transform="matrix(1 0 0 -1 0 842)" d="M109.8231 586.2474L479.9121 586.2474L479.9121 585.746L109.8231 585.746z" stroke="none" fill="#DDDDDD" fill-rule="nonzero" /><path id="73" transform="matrix(1 0 0 -1 0 842)" d="M109.8231 616.336L110.3246 616.336L110.3246 585.746L109.8231 585.746z" stroke="none" fill="#DDDDDD" fill-rule="nonzero" /><path id="74" transform="matrix(1 0 0 -1 0 842)" d="M479.4106 616.336L479.9121 616.336L479.9121 585.746L479.4106 585.746z" stroke="none" fill="#DDDDDD" fill-rule="nonzero" /><path id="90" transform="matrix(1 0 0 -1 0 842)" d="M479.9121 615.8345L545.6054 615.8345C 548.9272 615.8345 551.623 613.1386 551.623 609.8168L551.623 609.8168L551.623 586.2475L551.623 586.2475L479.9121 586.2475L479.9121 586.2475L479.9121 615.8345zM479.4106 616.336L545.6054 616.336C 549.204 616.336 552.1246 613.4154 552.1246 609.8168L552.1246 609.8168L552.1246 585.746L552.1246 585.746L479.4106 585.746L479.4106 585.746L479.4106 616.336z" stroke="none" fill="#DDDDDD" fill-rule="evenodd" /><path id="100" transform="matrix(1 0 0 -1 0 842)" d="M37.61066 586.2474L110.3246 586.2474L110.3246 555.6575L37.61066 555.6575z" stroke="none" fill="#2C3E77" fill-rule="nonzero" /><path id="101" transform="matrix(1 0 0 -1 0 842)" d="M37.61066 586.2474L110.3246 586.2474L110.3246 585.746L37.61066 585.746z" stroke="none" fill="#DDDDDD" fill-rule="nonzero" /><path id="102" transform="matrix(1 0 0 -1 0 842)" d="M37.61066 556.1589L110.3246 556.1589L110.3246 555.6575L37.61066 555.6575z" stroke="none" fill="#DDDDDD" fill-rule="nonzero" /><path id="103" transform="matrix(1 0 0 -1 0 842)" d="M37.61066 586.2474L38.11214 586.2474L38.11214 555.6575L37.61066 555.6575z" stroke="none" fill="#DDDDDD" fill-rule="nonzero" /><path id="104" transform="matrix(1 0 0 -1 0 842)" d="M109.8231 586.2474L110.3246 586.2474L110.3246 555.6575L109.8231 555.6575z" stroke="none" fill="#DDDDDD" fill-rule="nonzero" /><path id="119" transform="matrix(1 0 0 -1 0 842)" d="M109.8231 586.2474L296.8735 586.2474L296.8735 555.6575L109.8231 555.6575z" stroke="none" fill="#2C3E77" fill-rule="nonzero" /><path id="120" transform="matrix(1 0 0 -1 0 842)" d="M109.8231 586.2474L296.8735 586.2474L296.8735 585.746L109.8231 585.746z" stroke="none" fill="#DDDDDD" fill-rule="nonzero" /><path id="121" transform="matrix(1 0 0 -1 0 842)" d="M109.8231 556.1589L296.8735 556.1589L296.8735 555.6575L109.8231 555.6575z" stroke="none" fill="#DDDDDD" fill-rule="nonzero" /><path id="122" transform="matrix(1 0 0 -1 0 842)" d="M109.8231 586.2474L110.3246 586.2474L110.3246 555.6575L109.8231 555.6575z" stroke="none" fill="#DDDDDD" fill-rule="nonzero" /><path id="123" transform="matrix(1 0 0 -1 0 842)" d="M296.372 586.2474L296.8735 586.2474L296.8735 555.6575L296.372 555.6575z" stroke="none" fill="#DDDDDD" fill-rule="nonzero" /><path id="153" transform="matrix(1 0 0 -1 0 842)" d="M296.372 586.2474L480.4135 586.2474L480.4135 555.6575L296.372 555.6575z" stroke="none" fill="#2C3E77" fill-rule="nonzero" /><path id="154" transform="matrix(1 0 0 -1 0 842)" d="M296.372 586.2474L480.4135 586.2474L480.4135 585.746L296.372 585.746z" stroke="none" fill="#DDDDDD" fill-rule="nonzero" /><path id="155" transform="matrix(1 0 0 -1 0 842)" d="M296.372 556.1589L480.4135 556.1589L480.4135 555.6575L296.372 555.6575z" stroke="none" fill="#DDDDDD" fill-rule="nonzero" /><path id="156" transform="matrix(1 0 0 -1 0 842)" d="M296.372 586.2474L296.8735 586.2474L296.8735 555.6575L296.372 555.6575z" stroke="none" fill="#DDDDDD" fill-rule="nonzero" /><path id="157" transform="matrix(1 0 0 -1 0 842)" d="M479.9121 586.2474L480.4135 586.2474L480.4135 555.6575L479.9121 555.6575z" stroke="none" fill="#DDDDDD" fill-rule="nonzero" /><path id="188" transform="matrix(1 0 0 -1 0 842)" d="M479.9121 586.2474L552.626 586.2474L552.626 555.6575L479.9121 555.6575z" stroke="none" fill="#2C3E77" fill-rule="nonzero" /><path id="189" transform="matrix(1 0 0 -1 0 842)" d="M479.9121 586.2474L552.626 586.2474L552.626 585.746L479.9121 585.746z" stroke="none" fill="#DDDDDD" fill-rule="nonzero" /><path id="190" transform="matrix(1 0 0 -1 0 842)" d="M479.9121 556.1589L552.626 556.1589L552.626 555.6575L479.9121 555.6575z" stroke="none" fill="#DDDDDD" fill-rule="nonzero" /><path id="191" transform="matrix(1 0 0 -1 0 842)" d="M479.9121 586.2474L480.4135 586.2474L480.4135 555.6575L479.9121 555.6575z" stroke="none" fill="#DDDDDD" fill-rule="nonzero" /><path id="192" transform="matrix(1 0 0 -1 0 842)" d="M552.1245 586.2474L552.626 586.2474L552.626 555.6575L552.1245 555.6575z" stroke="none" fill="#DDDDDD" fill-rule="nonzero" /><path id="202" transform="matrix(1 0 0 -1 0 842)" d="M37.61066 556.1589L110.3246 556.1589L110.3246 555.6575L37.61066 555.6575z" stroke="none" fill="#DDDDDD" fill-rule="nonzero" /><path id="203" transform="matrix(1 0 0 -1 0 842)" d="M37.61066 526.0704L110.3246 526.0704L110.3246 525.5689L37.61066 525.5689z" stroke="none" fill="#DDDDDD" fill-rule="nonzero" /><path id="204" transform="matrix(1 0 0 -1 0 842)" d="M37.61066 556.1589L38.11214 556.1589L38.11214 525.5689L37.61066 525.5689z" stroke="none" fill="#DDDDDD" fill-rule="nonzero" /><path id="205" transform="matrix(1 0 0 -1 0 842)" d="M109.8231 556.1589L110.3246 556.1589L110.3246 525.5689L109.8231 525.5689z" stroke="none" fill="#DDDDDD" fill-rule="nonzero" /><path id="216" transform="matrix(1 0 0 -1 0 842)" d="M109.8231 556.1589L479.9121 556.1589L479.9121 555.6575L109.8231 555.6575z" stroke="none" fill="#DDDDDD" fill-rule="nonzero" /><path id="217" transform="matrix(1 0 0 -1 0 842)" d="M109.8231 526.0704L479.9121 526.0704L479.9121 525.5689L109.8231 525.5689z" stroke="none" fill="#DDDDDD" fill-rule="nonzero" /><path id="218" transform="matrix(1 0 0 -1 0 842)" d="M109.8231 556.1589L110.3246 556.1589L110.3246 525.5689L109.8231 525.5689z" stroke="none" fill="#DDDDDD" fill-rule="nonzero" /><path id="219" transform="matrix(1 0 0 -1 0 842)" d="M479.4106 556.1589L479.9121 556.1589L479.9121 525.5689L479.4106 525.5689z" stroke="none" fill="#DDDDDD" fill-rule="nonzero" /><path id="231" transform="matrix(1 0 0 -1 0 842)" d="M479.4106 556.1589L552.1245 556.1589L552.1245 555.6575L479.4106 555.6575z" stroke="none" fill="#DDDDDD" fill-rule="nonzero" /><path id="232" transform="matrix(1 0 0 -1 0 842)" d="M479.4106 526.0704L552.1245 526.0704L552.1245 525.5689L479.4106 525.5689z" stroke="none" fill="#DDDDDD" fill-rule="nonzero" /><path id="233" transform="matrix(1 0 0 -1 0 842)" d="M479.4106 556.1589L479.9121 556.1589L479.9121 525.5689L479.4106 525.5689z" stroke="none" fill="#DDDDDD" fill-rule="nonzero" /><path id="234" transform="matrix(1 0 0 -1 0 842)" d="M551.623 556.1589L552.1245 556.1589L552.1245 525.5689L551.623 525.5689z" stroke="none" fill="#DDDDDD" fill-rule="nonzero" /><path id="252" transform="matrix(1 0 0 -1 0 842)" d="M37.10919 526.0704L110.3246 526.0704L110.3246 495.4804L37.10919 495.4804z" stroke="none" fill="#F8F8F9" fill-rule="nonzero" /><path id="253" transform="matrix(1 0 0 -1 0 842)" d="M37.10919 526.0704L110.3246 526.0704L110.3246 525.5689L37.10919 525.5689z" stroke="none" fill="#DDDDDD" fill-rule="nonzero" /><path id="254" transform="matrix(1 0 0 -1 0 842)" d="M37.10919 495.9818L110.3246 495.9818L110.3246 495.4804L37.10919 495.4804z" stroke="none" fill="#DDDDDD" fill-rule="nonzero" /><path id="255" transform="matrix(1 0 0 -1 0 842)" d="M37.10919 526.0704L37.61066 526.0704L37.61066 495.4804L37.10919 495.4804z" stroke="none" fill="#DDDDDD" fill-rule="nonzero" /><path id="256" transform="matrix(1 0 0 -1 0 842)" d="M109.8231 526.0704L110.3246 526.0704L110.3246 495.4804L109.8231 495.4804z" stroke="none" fill="#DDDDDD" fill-rule="nonzero" /><path id="262" transform="matrix(1 0 0 -1 0 842)" d="M109.8231 526.0704L296.8735 526.0704L296.8735 495.4804L109.8231 495.4804z" stroke="none" fill="#F8F8F9" fill-rule="nonzero" /><path id="263" transform="matrix(1 0 0 -1 0 842)" d="M109.8231 526.0704L296.8735 526.0704L296.8735 525.5689L109.8231 525.5689z" stroke="none" fill="#DDDDDD" fill-rule="nonzero" /><path id="264" transform="matrix(1 0 0 -1 0 842)" d="M109.8231 495.9818L296.8735 495.9818L296.8735 495.4804L109.8231 495.4804z" stroke="none" fill="#DDDDDD" fill-rule="nonzero" /><path id="265" transform="matrix(1 0 0 -1 0 842)" d="M109.8231 526.0704L110.3246 526.0704L110.3246 495.4804L109.8231 495.4804z" stroke="none" fill="#DDDDDD" fill-rule="nonzero" /><path id="266" transform="matrix(1 0 0 -1 0 842)" d="M296.372 526.0704L296.8735 526.0704L296.8735 495.4804L296.372 495.4804z" stroke="none" fill="#DDDDDD" fill-rule="nonzero" /><path id="290" transform="matrix(1 0 0 -1 0 842)" d="M296.372 525.5689L480.4135 525.5689L480.4135 494.9789L296.372 494.9789z" stroke="none" fill="#F8F8F9" fill-rule="nonzero" /><path id="291" transform="matrix(1 0 0 -1 0 842)" d="M296.372 525.5689L480.4135 525.5689L480.4135 525.0674L296.372 525.0674z" stroke="none" fill="#DDDDDD" fill-rule="nonzero" /><path id="292" transform="matrix(1 0 0 -1 0 842)" d="M296.372 495.4804L480.4135 495.4804L480.4135 494.9789L296.372 494.9789z" stroke="none" fill="#DDDDDD" fill-rule="nonzero" /><path id="293" transform="matrix(1 0 0 -1 0 842)" d="M296.372 525.5689L296.8735 525.5689L296.8735 494.9789L296.372 494.9789z" stroke="none" fill="#DDDDDD" fill-rule="nonzero" /><path id="294" transform="matrix(1 0 0 -1 0 842)" d="M479.9121 525.5689L480.4135 525.5689L480.4135 494.9789L479.9121 494.9789z" stroke="none" fill="#DDDDDD" fill-rule="nonzero" /><path id="318" transform="matrix(1 0 0 -1 0 842)" d="M479.9121 526.0704L552.626 526.0704L552.626 495.4804L479.9121 495.4804z" stroke="none" fill="#F8F8F9" fill-rule="nonzero" /><path id="319" transform="matrix(1 0 0 -1 0 842)" d="M479.9121 526.0704L552.626 526.0704L552.626 525.5689L479.9121 525.5689z" stroke="none" fill="#DDDDDD" fill-rule="nonzero" /><path id="320" transform="matrix(1 0 0 -1 0 842)" d="M479.9121 495.9818L552.626 495.9818L552.626 495.4804L479.9121 495.4804z" stroke="none" fill="#DDDDDD" fill-rule="nonzero" /><path id="321" transform="matrix(1 0 0 -1 0 842)" d="M479.9121 526.0704L480.4135 526.0704L480.4135 495.4804L479.9121 495.4804z" stroke="none" fill="#DDDDDD" fill-rule="nonzero" /><path id="322" transform="matrix(1 0 0 -1 0 842)" d="M552.1245 526.0704L552.626 526.0704L552.626 495.4804L552.1245 495.4804z" stroke="none" fill="#DDDDDD" fill-rule="nonzero" /><path id="327" transform="matrix(1 0 0 -1 0 842)" d="M37.61066 495.4804L110.3246 495.4804L110.3246 494.9789L37.61066 494.9789z" stroke="none" fill="#DDDDDD" fill-rule="nonzero" /><path id="328" transform="matrix(1 0 0 -1 0 842)" d="M37.61066 465.3918L110.3246 465.3918L110.3246 464.8904L37.61066 464.8904z" stroke="none" fill="#DDDDDD" fill-rule="nonzero" /><path id="329" transform="matrix(1 0 0 -1 0 842)" d="M37.61066 495.4804L38.11214 495.4804L38.11214 464.8904L37.61066 464.8904z" stroke="none" fill="#DDDDDD" fill-rule="nonzero" /><path id="330" transform="matrix(1 0 0 -1 0 842)" d="M109.8231 495.4804L110.3246 495.4804L110.3246 464.8904L109.8231 464.8904z" stroke="none" fill="#DDDDDD" fill-rule="nonzero" /><path id="348" transform="matrix(1 0 0 -1 0 842)" d="M109.8231 495.4804L479.9121 495.4804L479.9121 494.9789L109.8231 494.9789z" stroke="none" fill="#DDDDDD" fill-rule="nonzero" /><path id="349" transform="matrix(1 0 0 -1 0 842)" d="M109.8231 465.3918L479.9121 465.3918L479.9121 464.8904L109.8231 464.8904z" stroke="none" fill="#DDDDDD" fill-rule="nonzero" /><path id="350" transform="matrix(1 0 0 -1 0 842)" d="M109.8231 495.4804L110.3246 495.4804L110.3246 464.8904L109.8231 464.8904z" stroke="none" fill="#DDDDDD" fill-rule="nonzero" /><path id="351" transform="matrix(1 0 0 -1 0 842)" d="M479.4106 495.4804L479.9121 495.4804L479.9121 464.8904L479.4106 464.8904z" stroke="none" fill="#DDDDDD" fill-rule="nonzero" /><path id="363" transform="matrix(1 0 0 -1 0 842)" d="M479.4106 495.4804L552.1245 495.4804L552.1245 494.9789L479.4106 494.9789z" stroke="none" fill="#DDDDDD" fill-rule="nonzero" /><path id="364" transform="matrix(1 0 0 -1 0 842)" d="M479.4106 465.3918L552.1245 465.3918L552.1245 464.8904L479.4106 464.8904z" stroke="none" fill="#DDDDDD" fill-rule="nonzero" /><path id="365" transform="matrix(1 0 0 -1 0 842)" d="M479.4106 495.4804L479.9121 495.4804L479.9121 464.8904L479.4106 464.8904z" stroke="none" fill="#DDDDDD" fill-rule="nonzero" /><path id="366" transform="matrix(1 0 0 -1 0 842)" d="M551.623 495.4804L552.1245 495.4804L552.1245 464.8904L551.623 464.8904z" stroke="none" fill="#DDDDDD" fill-rule="nonzero" /><path id="383" transform="matrix(1 0 0 -1 0 842)" d="M37.61066 465.3918L110.3246 465.3918L110.3246 434.8018L37.61066 434.8018z" stroke="none" fill="#F8F8F9" fill-rule="nonzero" /><path id="384" transform="matrix(1 0 0 -1 0 842)" d="M37.61066 465.3918L110.3246 465.3918L110.3246 464.8904L37.61066 464.8904z" stroke="none" fill="#DDDDDD" fill-rule="nonzero" /><path id="385" transform="matrix(1 0 0 -1 0 842)" d="M37.61066 435.3033L110.3246 435.3033L110.3246 434.8018L37.61066 434.8018z" stroke="none" fill="#DDDDDD" fill-rule="nonzero" /><path id="386" transform="matrix(1 0 0 -1 0 842)" d="M37.61066 465.3918L38.11214 465.3918L38.11214 434.8018L37.61066 434.8018z" stroke="none" fill="#DDDDDD" fill-rule="nonzero" /><path id="387" transform="matrix(1 0 0 -1 0 842)" d="M109.8231 465.3918L110.3246 465.3918L110.3246 434.8018L109.8231 434.8018z" stroke="none" fill="#DDDDDD" fill-rule="nonzero" /><path id="400" transform="matrix(1 0 0 -1 0 842)" d="M109.8231 465.3918L296.8735 465.3918L296.8735 434.8018L109.8231 434.8018z" stroke="none" fill="#F8F8F9" fill-rule="nonzero" /><path id="401" transform="matrix(1 0 0 -1 0 842)" d="M109.8231 465.3918L296.8735 465.3918L296.8735 464.8904L109.8231 464.8904z" stroke="none" fill="#DDDDDD" fill-rule="nonzero" /><path id="402" transform="matrix(1 0 0 -1 0 842)" d="M109.8231 435.3033L296.8735 435.3033L296.8735 434.8018L109.8231 434.8018z" stroke="none" fill="#DDDDDD" fill-rule="nonzero" /><path id="403" transform="matrix(1 0 0 -1 0 842)" d="M109.8231 465.3918L110.3246 465.3918L110.3246 434.8018L109.8231 434.8018z" stroke="none" fill="#DDDDDD" fill-rule="nonzero" /><path id="404" transform="matrix(1 0 0 -1 0 842)" d="M296.372 465.3918L296.8735 465.3918L296.8735 434.8018L296.372 434.8018z" stroke="none" fill="#DDDDDD" fill-rule="nonzero" /><path id="417" transform="matrix(1 0 0 -1 0 842)" d="M296.372 465.3918L480.4135 465.3918L480.4135 434.8018L296.372 434.8018z" stroke="none" fill="#F8F8F9" fill-rule="nonzero" /><path id="418" transform="matrix(1 0 0 -1 0 842)" d="M296.372 465.3918L480.4135 465.3918L480.4135 464.8904L296.372 464.8904z" stroke="none" fill="#DDDDDD" fill-rule="nonzero" /><path id="419" transform="matrix(1 0 0 -1 0 842)" d="M296.372 435.3033L480.4135 435.3033L480.4135 434.8018L296.372 434.8018z" stroke="none" fill="#DDDDDD" fill-rule="nonzero" /><path id="420" transform="matrix(1 0 0 -1 0 842)" d="M296.372 465.3918L296.8735 465.3918L296.8735 434.8018L296.372 434.8018z" stroke="none" fill="#DDDDDD" fill-rule="nonzero" /><path id="421" transform="matrix(1 0 0 -1 0 842)" d="M479.9121 465.3918L480.4135 465.3918L480.4135 434.8018L479.9121 434.8018z" stroke="none" fill="#DDDDDD" fill-rule="nonzero" /><path id="431" transform="matrix(1 0 0 -1 0 842)" d="M479.9121 465.3918L552.626 465.3918L552.626 434.8018L479.9121 434.8018z" stroke="none" fill="#F8F8F9" fill-rule="nonzero" /><path id="432" transform="matrix(1 0 0 -1 0 842)" d="M479.9121 465.3918L552.626 465.3918L552.626 464.8904L479.9121 464.8904z" stroke="none" fill="#DDDDDD" fill-rule="nonzero" /><path id="433" transform="matrix(1 0 0 -1 0 842)" d="M479.9121 435.3033L552.626 435.3033L552.626 434.8018L479.9121 434.8018z" stroke="none" fill="#DDDDDD" fill-rule="nonzero" /><path id="434" transform="matrix(1 0 0 -1 0 842)" d="M479.9121 465.3918L480.4135 465.3918L480.4135 434.8018L479.9121 434.8018z" stroke="none" fill="#DDDDDD" fill-rule="nonzero" /><path id="435" transform="matrix(1 0 0 -1 0 842)" d="M552.1245 465.3918L552.626 465.3918L552.626 434.8018L552.1245 434.8018z" stroke="none" fill="#DDDDDD" fill-rule="nonzero" /><path id="443" transform="matrix(1 0 0 -1 0 842)" d="M37.61066 435.3033L110.3246 435.3033L110.3246 434.8018L37.61066 434.8018z" stroke="none" fill="#DDDDDD" fill-rule="nonzero" /><path id="444" transform="matrix(1 0 0 -1 0 842)" d="M37.61066 405.2148L110.3246 405.2148L110.3246 404.7133L37.61066 404.7133z" stroke="none" fill="#DDDDDD" fill-rule="nonzero" /><path id="445" transform="matrix(1 0 0 -1 0 842)" d="M37.61066 435.3033L38.11214 435.3033L38.11214 404.7133L37.61066 404.7133z" stroke="none" fill="#DDDDDD" fill-rule="nonzero" /><path id="446" transform="matrix(1 0 0 -1 0 842)" d="M109.8231 435.3033L110.3246 435.3033L110.3246 404.7133L109.8231 404.7133z" stroke="none" fill="#DDDDDD" fill-rule="nonzero" /><path id="456" transform="matrix(1 0 0 -1 0 842)" d="M109.8231 435.3033L296.8735 435.3033L296.8735 434.8018L109.8231 434.8018z" stroke="none" fill="#DDDDDD" fill-rule="nonzero" /><path id="457" transform="matrix(1 0 0 -1 0 842)" d="M109.8231 405.2148L296.8735 405.2148L296.8735 404.7133L109.8231 404.7133z" stroke="none" fill="#DDDDDD" fill-rule="nonzero" /><path id="458" transform="matrix(1 0 0 -1 0 842)" d="M109.8231 435.3033L110.3246 435.3033L110.3246 404.7133L109.8231 404.7133z" stroke="none" fill="#DDDDDD" fill-rule="nonzero" /><path id="459" transform="matrix(1 0 0 -1 0 842)" d="M296.372 435.3033L296.8735 435.3033L296.8735 404.7133L296.372 404.7133z" stroke="none" fill="#DDDDDD" fill-rule="nonzero" /><path id="461" transform="matrix(1 0 0 -1 0 842)" d="M296.372 435.3033L480.4135 435.3033L480.4135 434.8018L296.372 434.8018z" stroke="none" fill="#DDDDDD" fill-rule="nonzero" /><path id="462" transform="matrix(1 0 0 -1 0 842)" d="M296.372 405.2148L480.4135 405.2148L480.4135 404.7133L296.372 404.7133z" stroke="none" fill="#DDDDDD" fill-rule="nonzero" /><path id="463" transform="matrix(1 0 0 -1 0 842)" d="M296.372 435.3033L296.8735 435.3033L296.8735 404.7133L296.372 404.7133z" stroke="none" fill="#DDDDDD" fill-rule="nonzero" /><path id="464" transform="matrix(1 0 0 -1 0 842)" d="M479.9121 435.3033L480.4135 435.3033L480.4135 404.7133L479.9121 404.7133z" stroke="none" fill="#DDDDDD" fill-rule="nonzero" /><path id="478" transform="matrix(1 0 0 -1 0 842)" d="M479.9121 435.3033L552.626 435.3033L552.626 434.8018L479.9121 434.8018z" stroke="none" fill="#DDDDDD" fill-rule="nonzero" /><path id="479" transform="matrix(1 0 0 -1 0 842)" d="M479.9121 405.2148L552.626 405.2148L552.626 404.7133L479.9121 404.7133z" stroke="none" fill="#DDDDDD" fill-rule="nonzero" /><path id="480" transform="matrix(1 0 0 -1 0 842)" d="M479.9121 435.3033L480.4135 435.3033L480.4135 404.7133L479.9121 404.7133z" stroke="none" fill="#DDDDDD" fill-rule="nonzero" /><path id="481" transform="matrix(1 0 0 -1 0 842)" d="M552.1245 435.3033L552.626 435.3033L552.626 404.7133L552.1245 404.7133z" stroke="none" fill="#DDDDDD" fill-rule="nonzero" /><path id="490" transform="matrix(1 0 0 -1 0 842)" d="M38.11214 405.2148L110.3246 405.2148L110.3246 374.6248L38.11214 374.6248z" stroke="none" fill="#F8F8F9" fill-rule="nonzero" /><path id="491" transform="matrix(1 0 0 -1 0 842)" d="M38.11214 405.2148L110.3246 405.2148L110.3246 404.7133L38.11214 404.7133z" stroke="none" fill="#DDDDDD" fill-rule="nonzero" /><path id="492" transform="matrix(1 0 0 -1 0 842)" d="M38.11214 375.1263L110.3246 375.1263L110.3246 374.6248L38.11214 374.6248z" stroke="none" fill="#DDDDDD" fill-rule="nonzero" /><path id="493" transform="matrix(1 0 0 -1 0 842)" d="M38.11214 405.2148L38.61361 405.2148L38.61361 374.6248L38.11214 374.6248z" stroke="none" fill="#DDDDDD" fill-rule="nonzero" /><path id="494" transform="matrix(1 0 0 -1 0 842)" d="M109.8231 405.2148L110.3246 405.2148L110.3246 374.6248L109.8231 374.6248z" stroke="none" fill="#DDDDDD" fill-rule="nonzero" /><path id="509" transform="matrix(1 0 0 -1 0 842)" d="M109.8231 405.2148L296.8735 405.2148L296.8735 374.6248L109.8231 374.6248z" stroke="none" fill="#F8F8F9" fill-rule="nonzero" /><path id="510" transform="matrix(1 0 0 -1 0 842)" d="M109.8231 405.2148L296.8735 405.2148L296.8735 404.7133L109.8231 404.7133z" stroke="none" fill="#DDDDDD" fill-rule="nonzero" /><path id="511" transform="matrix(1 0 0 -1 0 842)" d="M109.8231 375.1263L296.8735 375.1263L296.8735 374.6248L109.8231 374.6248z" stroke="none" fill="#DDDDDD" fill-rule="nonzero" /><path id="512" transform="matrix(1 0 0 -1 0 842)" d="M109.8231 405.2148L110.3246 405.2148L110.3246 374.6248L109.8231 374.6248z" stroke="none" fill="#DDDDDD" fill-rule="nonzero" /><path id="513" transform="matrix(1 0 0 -1 0 842)" d="M296.372 405.2148L296.8735 405.2148L296.8735 374.6248L296.372 374.6248z" stroke="none" fill="#DDDDDD" fill-rule="nonzero" /><path id="543" transform="matrix(1 0 0 -1 0 842)" d="M296.372 404.7133L479.9121 404.7133L479.9121 374.1233L296.372 374.1233z" stroke="none" fill="#F8F8F9" fill-rule="nonzero" /><path id="544" transform="matrix(1 0 0 -1 0 842)" d="M296.372 404.7133L479.9121 404.7133L479.9121 404.2118L296.372 404.2118z" stroke="none" fill="#DDDDDD" fill-rule="nonzero" /><path id="545" transform="matrix(1 0 0 -1 0 842)" d="M296.372 374.6248L479.9121 374.6248L479.9121 374.1233L296.372 374.1233z" stroke="none" fill="#DDDDDD" fill-rule="nonzero" /><path id="546" transform="matrix(1 0 0 -1 0 842)" d="M296.372 404.7133L296.8735 404.7133L296.8735 374.1233L296.372 374.1233z" stroke="none" fill="#DDDDDD" fill-rule="nonzero" /><path id="547" transform="matrix(1 0 0 -1 0 842)" d="M479.4106 404.7133L479.9121 404.7133L479.9121 374.1233L479.4106 374.1233z" stroke="none" fill="#DDDDDD" fill-rule="nonzero" /><path id="571" transform="matrix(1 0 0 -1 0 842)" d="M479.4106 405.2148L552.1245 405.2148L552.1245 374.6248L479.4106 374.6248z" stroke="none" fill="#F8F8F9" fill-rule="nonzero" /><path id="572" transform="matrix(1 0 0 -1 0 842)" d="M479.4106 405.2148L552.1245 405.2148L552.1245 404.7133L479.4106 404.7133z" stroke="none" fill="#DDDDDD" fill-rule="nonzero" /><path id="573" transform="matrix(1 0 0 -1 0 842)" d="M479.4106 375.1263L552.1245 375.1263L552.1245 374.6248L479.4106 374.6248z" stroke="none" fill="#DDDDDD" fill-rule="nonzero" /><path id="574" transform="matrix(1 0 0 -1 0 842)" d="M479.4106 405.2148L479.9121 405.2148L479.9121 374.6248L479.4106 374.6248z" stroke="none" fill="#DDDDDD" fill-rule="nonzero" /><path id="575" transform="matrix(1 0 0 -1 0 842)" d="M551.623 405.2148L552.1245 405.2148L552.1245 374.6248L551.623 374.6248z" stroke="none" fill="#DDDDDD" fill-rule="nonzero" /><path id="592" transform="matrix(1 0 0 -1 0 842)" d="M38.11214 374.1233L109.8232 374.1233L109.8232 374.1233L109.8232 344.5363L109.8232 344.5363L44.12985 344.5363C 40.80807 344.5363 38.11214 347.2322 38.11214 350.554L38.11214 350.554L38.11214 374.1233zM37.61066 374.6248L110.3246 374.6248L110.3246 374.6248L110.3246 344.0348L110.3246 344.0348L44.12985 344.0348C 40.53126 344.0348 37.61066 346.9554 37.61066 350.554L37.61066 350.554L37.61066 374.6248z" stroke="none" fill="#DDDDDD" fill-rule="evenodd" /><path id="602" transform="matrix(1 0 0 -1 0 842)" d="M109.8231 374.6248L296.8735 374.6248L296.8735 374.1233L109.8231 374.1233z" stroke="none" fill="#DDDDDD" fill-rule="nonzero" /><path id="603" transform="matrix(1 0 0 -1 0 842)" d="M109.8231 344.5362L296.8735 344.5362L296.8735 344.0348L109.8231 344.0348z" stroke="none" fill="#DDDDDD" fill-rule="nonzero" /><path id="604" transform="matrix(1 0 0 -1 0 842)" d="M109.8231 374.6248L110.3246 374.6248L110.3246 344.0348L109.8231 344.0348z" stroke="none" fill="#DDDDDD" fill-rule="nonzero" /><path id="605" transform="matrix(1 0 0 -1 0 842)" d="M296.372 374.6248L296.8735 374.6248L296.8735 344.0348L296.372 344.0348z" stroke="none" fill="#DDDDDD" fill-rule="nonzero" /><path id="616" transform="matrix(1 0 0 -1 0 842)" d="M296.372 374.6248L480.4135 374.6248L480.4135 374.1233L296.372 374.1233z" stroke="none" fill="#DDDDDD" fill-rule="nonzero" /><path id="617" transform="matrix(1 0 0 -1 0 842)" d="M296.372 344.5362L480.4135 344.5362L480.4135 344.0348L296.372 344.0348z" stroke="none" fill="#DDDDDD" fill-rule="nonzero" /><path id="618" transform="matrix(1 0 0 -1 0 842)" d="M296.372 374.6248L296.8735 374.6248L296.8735 344.0348L296.372 344.0348z" stroke="none" fill="#DDDDDD" fill-rule="nonzero" /><path id="619" transform="matrix(1 0 0 -1 0 842)" d="M479.9121 374.6248L480.4135 374.6248L480.4135 344.0348L479.9121 344.0348z" stroke="none" fill="#DDDDDD" fill-rule="nonzero" /><path id="625" transform="matrix(1 0 0 -1 0 842)" d="M480.4136 374.1233L552.1246 374.1233L552.1246 374.1233L552.1246 350.554C 552.1246 347.2322 549.4286 344.5363 546.1069 344.5363L546.1069 344.5363L480.4136 344.5363L480.4136 344.5363L480.4136 374.1233zM479.9121 374.6248L552.626 374.6248L552.626 374.6248L552.626 350.554C 552.626 346.9554 549.7054 344.0348 546.1069 344.0348L546.1069 344.0348L479.9121 344.0348L479.9121 344.0348L479.9121 374.6248z" stroke="none" fill="#DDDDDD" fill-rule="evenodd" /><g transform="matrix(0.120034 0 0 0.1201939 77.22723 530.5612)"><g transform="matrix(1 0 0 1 0 0)"><image x="0" y="0" xlink:href="img_02.png" width="752" height="751" /></g></g><path id="882" transform="matrix(1 0 0 -1 0 842)" d="M296.372 268.312L297.8765 268.312L297.8765 132.9135L296.372 132.9135z" stroke="none" fill="#EEEEEE" fill-rule="nonzero" /><g transform="matrix(0.1121869 0 0 0.111811 416.2247 573.688)"><g transform="matrix(1 0 0 1 0 0)"><image x="0" y="0" xlink:href="img_03.png" width="894" height="749" /></g></g><g transform="matrix(0.1812562 0 0 0.1806162 476.9032 738.6735)"><g transform="matrix(1 0 0 1 0 0)"><image x="0" y="0" xlink:href="img_04.png" width="498" height="236" /></g></g><g transform="matrix(0.2022078 0 0 0.2010867 394.1598 6.103516E-05)"><g transform="matrix(1 0 0 1 0 0)"><image x="0" y="0" xlink:href="img_05.png" width="992" height="404" /></g></g><g transform="matrix(0.1199702 0 0 0.1201226 203.5991 6.103516E-05)"><g transform="matrix(1 0 0 1 0 0)"><image x="0" y="0" xlink:href="img_06.png" width="1463" height="693" /></g></g></g></g></g></svg>